M48
; DRILL file {KiCad 8.0.5} date 2024-10-30T07:11:30+0100
; FORMAT={-:-/ absolute / inch / decimal}
; #@! TF.CreationDate,2024-10-30T07:11:30+01:00
; #@! TF.GenerationSoftware,Kicad,Pcbnew,8.0.5
; #@! TF.FileFunction,Plated,1,2,PTH
FMAT,2
INCH
; #@! TA.AperFunction,Plated,PTH,ComponentDrill
T1C0.0354
; #@! TA.AperFunction,Plated,PTH,ComponentDrill
T2C0.0394
%
G90
G05
T1
X5.1018Y-2.6744
X5.1018Y-2.7744
X5.1018Y-2.8744
X5.1018Y-2.9744
X5.1018Y-3.0744
X5.1018Y-3.1744
X5.1018Y-3.2744
X5.1018Y-3.3744
X5.1018Y-3.4744
X5.1018Y-3.5744
X5.1018Y-3.6744
X5.1018Y-3.7744
X5.1018Y-3.8744
X5.1018Y-3.9744
X5.1018Y-4.0744
X5.1018Y-4.1744
X5.1018Y-4.2744
X5.1018Y-4.3744
X5.1018Y-4.4744
X6.1254Y-2.6744
X6.1254Y-2.7744
X6.1254Y-2.8744
X6.1254Y-2.9744
X6.1254Y-3.0744
X6.1254Y-3.1744
X6.1254Y-3.2744
X6.1254Y-3.3744
X6.1254Y-3.4744
X6.1254Y-3.5744
X6.1254Y-3.6744
X6.1254Y-3.7744
X6.1254Y-3.8744
X6.1254Y-3.9744
X6.1254Y-4.0744
X6.1254Y-4.1744
X6.1254Y-4.2744
X6.1254Y-4.3744
X6.1254Y-4.4744
T2
X2.5169Y-4.95
X2.5169Y-5.05
X2.5169Y-5.15
X2.5785Y-3.6744
X2.5785Y-3.8713
X2.7Y-4.95
X2.7Y-5.05
X2.7Y-5.15
X2.7754Y-3.6744
X2.7754Y-3.8713
X2.8831Y-4.95
X2.8831Y-5.05
X2.8831Y-5.15
X2.9093Y-1.4744
X2.9093Y-1.5744
X2.9093Y-1.6744
X3.0923Y-1.4744
X3.0923Y-1.5744
X3.0923Y-1.6744
X3.1746Y-2.5512
X3.1746Y-3.0512
X3.2746Y-2.5512
X3.2746Y-3.0512
X3.2754Y-1.4744
X3.2754Y-1.5744
X3.2754Y-1.6744
X3.3746Y-2.5512
X3.3746Y-3.0512
X3.4285Y-2.026
X3.4285Y-2.2228
X3.4746Y-2.5512
X3.4746Y-3.0512
X3.5746Y-2.5512
X3.5746Y-3.0512
X3.6254Y-2.026
X3.6254Y-2.2228
X4.1746Y-2.5244
X4.2746Y-2.5244
X4.3746Y-2.5244
X4.4254Y-2.026
X4.4254Y-2.2228
X4.4746Y-2.5244
X4.5746Y-2.5244
X4.6222Y-2.026
X4.6222Y-2.2228
X5.4169Y-5.3
X5.4169Y-5.4
X5.4169Y-5.5
X5.4339Y-1.95
X5.4339Y-2.05
X5.4339Y-2.15
X5.6Y-5.3
X5.6Y-5.4
X5.6Y-5.5
X5.6169Y-1.95
X5.6169Y-2.05
X5.6169Y-2.15
X5.7831Y-5.3
X5.7831Y-5.4
X5.7831Y-5.5
X5.8Y-1.95
X5.8Y-2.05
X5.8Y-2.15
X6.3016Y-2.0016
X6.3016Y-2.1984
X6.4984Y-2.0016
X6.4984Y-2.1984
X6.6754Y-2.5244
X6.7754Y-2.5244
X6.8754Y-2.5244
X6.9285Y-2.0744
X6.9285Y-2.2713
X6.9754Y-2.5244
X7.0754Y-2.5244
X7.1254Y-2.0744
X7.1254Y-2.2713
X7.7746Y-3.0512
X7.7754Y-2.5244
X7.8746Y-3.0512
X7.8754Y-2.5244
X7.9746Y-3.0512
X7.9754Y-2.5244
X8.0285Y-2.0776
X8.0285Y-2.2744
X8.0746Y-3.0512
X8.0754Y-2.5244
X8.1746Y-3.0512
X8.1754Y-2.5244
X8.2254Y-2.0776
X8.2254Y-2.2744
X8.4839Y-2.6
X8.4839Y-2.7
X8.4839Y-2.8
X8.5Y-4.9
X8.5Y-5.0
X8.5Y-5.1
X8.6669Y-2.6
X8.6669Y-2.7
X8.6669Y-2.8
X8.6831Y-4.9
X8.6831Y-5.0
X8.6831Y-5.1
X8.85Y-2.6
X8.85Y-2.7
X8.85Y-2.8
X8.8661Y-4.9
X8.8661Y-5.0
X8.8661Y-5.1
X9.0732Y-3.625
X9.0732Y-3.725
X9.0732Y-3.825
X9.0732Y-4.0049
X9.0732Y-4.1049
X9.0732Y-4.2049
X9.0732Y-4.3049
M30
