%TF.GenerationSoftware,KiCad,Pcbnew,8.0.5*%
%TF.CreationDate,2024-10-30T17:58:28+01:00*%
%TF.ProjectId,Controller-BMU-Kombi,436f6e74-726f-46c6-9c65-722d424d552d,rev?*%
%TF.SameCoordinates,Original*%
%TF.FileFunction,Soldermask,Bot*%
%TF.FilePolarity,Negative*%
%FSLAX46Y46*%
G04 Gerber Fmt 4.6, Leading zero omitted, Abs format (unit mm)*
G04 Created by KiCad (PCBNEW 8.0.5) date 2024-10-30 17:58:28*
%MOMM*%
%LPD*%
G01*
G04 APERTURE LIST*
G04 Aperture macros list*
%AMRoundRect*
0 Rectangle with rounded corners*
0 $1 Rounding radius*
0 $2 $3 $4 $5 $6 $7 $8 $9 X,Y pos of 4 corners*
0 Add a 4 corners polygon primitive as box body*
4,1,4,$2,$3,$4,$5,$6,$7,$8,$9,$2,$3,0*
0 Add four circle primitives for the rounded corners*
1,1,$1+$1,$2,$3*
1,1,$1+$1,$4,$5*
1,1,$1+$1,$6,$7*
1,1,$1+$1,$8,$9*
0 Add four rect primitives between the rounded corners*
20,1,$1+$1,$2,$3,$4,$5,0*
20,1,$1+$1,$4,$5,$6,$7,0*
20,1,$1+$1,$6,$7,$8,$9,0*
20,1,$1+$1,$8,$9,$2,$3,0*%
G04 Aperture macros list end*
%ADD10R,1.700000X1.700000*%
%ADD11O,1.700000X1.700000*%
%ADD12C,2.000000*%
%ADD13RoundRect,0.100000X0.637500X0.100000X-0.637500X0.100000X-0.637500X-0.100000X0.637500X-0.100000X0*%
%ADD14C,1.554000*%
%ADD15RoundRect,0.102000X0.675000X0.675000X-0.675000X0.675000X-0.675000X-0.675000X0.675000X-0.675000X0*%
%ADD16C,2.250000*%
G04 APERTURE END LIST*
D10*
%TO.C,J10*%
X134620000Y-130810000D03*
D11*
X134620000Y-133350000D03*
X134620000Y-135890000D03*
%TD*%
D10*
%TO.C,J12*%
X134620000Y-151130000D03*
D11*
X134620000Y-153670000D03*
X134620000Y-156210000D03*
%TD*%
D10*
%TO.C,J11*%
X134620000Y-140970000D03*
D11*
X134620000Y-143510000D03*
X134620000Y-146050000D03*
%TD*%
D10*
%TO.C,J22*%
X200660000Y-127015000D03*
D11*
X200660000Y-129555000D03*
X200660000Y-132095000D03*
%TD*%
%TO.C,J21*%
X168925000Y-148590000D03*
X166385000Y-148590000D03*
D10*
X163845000Y-148590000D03*
%TD*%
%TO.C,J3*%
X162540000Y-64120000D03*
D11*
X165080000Y-64120000D03*
X167620000Y-64120000D03*
X170160000Y-64120000D03*
X172700000Y-64120000D03*
%TD*%
D10*
%TO.C,J18*%
X85090000Y-148605000D03*
D11*
X85090000Y-151145000D03*
X85090000Y-153685000D03*
%TD*%
D12*
%TO.C,U7*%
X190580000Y-58420000D03*
X190580000Y-53420000D03*
X195580000Y-58420000D03*
X195580000Y-53420000D03*
%TD*%
D10*
%TO.C,J1*%
X91420000Y-64180000D03*
D11*
X93960000Y-64180000D03*
X96500000Y-64180000D03*
X99040000Y-64180000D03*
X101580000Y-64180000D03*
%TD*%
%TO.C,J19*%
X147320000Y-148590000D03*
X144780000Y-148590000D03*
D10*
X142240000Y-148590000D03*
%TD*%
D13*
%TO.C,U9*%
X146372500Y-120885000D03*
X146372500Y-121535000D03*
X146372500Y-122185000D03*
X146372500Y-122835000D03*
X146372500Y-123485000D03*
X146372500Y-124135000D03*
X146372500Y-124785000D03*
X146372500Y-125435000D03*
X146372500Y-126085000D03*
X146372500Y-126735000D03*
X146372500Y-127385000D03*
X146372500Y-128035000D03*
X140647500Y-128035000D03*
X140647500Y-127385000D03*
X140647500Y-126735000D03*
X140647500Y-126085000D03*
X140647500Y-125435000D03*
X140647500Y-124785000D03*
X140647500Y-124135000D03*
X140647500Y-123485000D03*
X140647500Y-122835000D03*
X140647500Y-122185000D03*
X140647500Y-121535000D03*
X140647500Y-120885000D03*
%TD*%
D12*
%TO.C,U3*%
X160100000Y-59690000D03*
X160100000Y-54690000D03*
X165100000Y-59690000D03*
X165100000Y-54690000D03*
%TD*%
%TO.C,U5*%
X114380000Y-59690000D03*
X114380000Y-54690000D03*
X119380000Y-59690000D03*
X119380000Y-54690000D03*
%TD*%
D11*
%TO.C,J9*%
X128270000Y-156210000D03*
X128270000Y-153670000D03*
D10*
X128270000Y-151130000D03*
%TD*%
%TO.C,J26*%
X171490000Y-69850000D03*
D11*
X168950000Y-69850000D03*
X166410000Y-69850000D03*
X163870000Y-69850000D03*
%TD*%
D10*
%TO.C,J4*%
X182860000Y-64120000D03*
D11*
X185400000Y-64120000D03*
X187940000Y-64120000D03*
X190480000Y-64120000D03*
X193020000Y-64120000D03*
%TD*%
%TO.C,J20*%
X158264386Y-148509185D03*
X155724386Y-148509185D03*
D10*
X153184386Y-148509185D03*
%TD*%
D11*
%TO.C,J8*%
X128270000Y-146050000D03*
X128270000Y-143510000D03*
D10*
X128270000Y-140970000D03*
%TD*%
D12*
%TO.C,U8*%
X80050000Y-96560000D03*
X85050000Y-96560000D03*
X80050000Y-101560000D03*
X85050000Y-101560000D03*
%TD*%
%TO.C,U6*%
X177880000Y-58420000D03*
X177880000Y-53420000D03*
X182880000Y-58420000D03*
X182880000Y-53420000D03*
%TD*%
D10*
%TO.C,J2*%
X111760000Y-64180000D03*
D11*
X114300000Y-64180000D03*
X116840000Y-64180000D03*
X119380000Y-64180000D03*
X121920000Y-64180000D03*
%TD*%
D10*
%TO.C,J13*%
X201930000Y-69850000D03*
D11*
X201930000Y-72390000D03*
X201930000Y-74930000D03*
%TD*%
D10*
%TO.C,J23*%
X200660000Y-138430000D03*
D11*
X200660000Y-140970000D03*
X200660000Y-143510000D03*
%TD*%
D12*
%TO.C,U4*%
X97870000Y-59610000D03*
X97870000Y-54610000D03*
X102870000Y-59610000D03*
X102870000Y-54610000D03*
%TD*%
D10*
%TO.C,J17*%
X85090000Y-137175000D03*
D11*
X85090000Y-139715000D03*
X85090000Y-142255000D03*
%TD*%
D10*
%TO.C,J15*%
X201930000Y-92710000D03*
D11*
X201930000Y-95250000D03*
X201930000Y-97790000D03*
%TD*%
D10*
%TO.C,J24*%
X200660000Y-149860000D03*
D11*
X200660000Y-152400000D03*
X200660000Y-154940000D03*
%TD*%
D10*
%TO.C,J14*%
X201930000Y-81280000D03*
D11*
X201930000Y-83820000D03*
X201930000Y-86360000D03*
%TD*%
%TO.C,J25*%
X114285000Y-69850000D03*
X116825000Y-69850000D03*
D10*
X119365000Y-69850000D03*
%TD*%
%TO.C,J5*%
X91420000Y-126410000D03*
D11*
X93960000Y-126410000D03*
X96500000Y-126410000D03*
X99040000Y-126410000D03*
X101580000Y-126410000D03*
%TD*%
%TO.C,J7*%
X128270000Y-135890000D03*
X128270000Y-133350000D03*
D10*
X128270000Y-130810000D03*
%TD*%
%TO.C,J16*%
X85090000Y-125745000D03*
D11*
X85090000Y-128285000D03*
X85090000Y-130825000D03*
%TD*%
%TO.C,J6*%
X194290000Y-126410000D03*
X191750000Y-126410000D03*
X189210000Y-126410000D03*
X186670000Y-126410000D03*
D10*
X184130000Y-126410000D03*
%TD*%
D14*
%TO.C,U2*%
X155585000Y-113650000D03*
X155585000Y-111110000D03*
X155585000Y-108570000D03*
X155585000Y-106030000D03*
X155585000Y-103490000D03*
X155585000Y-100950000D03*
X155585000Y-98410000D03*
X155585000Y-95870000D03*
X155585000Y-93330000D03*
X155585000Y-90790000D03*
X155585000Y-88250000D03*
X155585000Y-85710000D03*
X155585000Y-83170000D03*
X155585000Y-80630000D03*
X155585000Y-78090000D03*
X155585000Y-75550000D03*
X155585000Y-73010000D03*
X155585000Y-70470000D03*
D15*
X155585000Y-67930000D03*
D14*
X129585000Y-67930000D03*
X129585000Y-70470000D03*
X129585000Y-73010000D03*
X129585000Y-75550000D03*
X129585000Y-78090000D03*
X129585000Y-80630000D03*
X129585000Y-83170000D03*
X129585000Y-85710000D03*
X129585000Y-88250000D03*
X129585000Y-90790000D03*
X129585000Y-93330000D03*
X129585000Y-95870000D03*
X129585000Y-98410000D03*
X129585000Y-100950000D03*
X129585000Y-103490000D03*
X129585000Y-106030000D03*
X129585000Y-108570000D03*
X129585000Y-111110000D03*
D15*
X129585000Y-113650000D03*
D16*
X130085000Y-64790000D03*
X130085000Y-116790000D03*
X155085000Y-64790000D03*
X155085000Y-116790000D03*
%TD*%
M02*
