%TF.GenerationSoftware,KiCad,Pcbnew,8.0.6*%
%TF.CreationDate,2024-10-27T21:16:08+01:00*%
%TF.ProjectId,Controller-BMU-Kombi,436f6e74-726f-46c6-9c65-722d424d552d,rev?*%
%TF.SameCoordinates,Original*%
%TF.FileFunction,Soldermask,Bot*%
%TF.FilePolarity,Negative*%
%FSLAX46Y46*%
G04 Gerber Fmt 4.6, Leading zero omitted, Abs format (unit mm)*
G04 Created by KiCad (PCBNEW 8.0.6) date 2024-10-27 21:16:08*
%MOMM*%
%LPD*%
G01*
G04 APERTURE LIST*
G04 Aperture macros list*
%AMRoundRect*
0 Rectangle with rounded corners*
0 $1 Rounding radius*
0 $2 $3 $4 $5 $6 $7 $8 $9 X,Y pos of 4 corners*
0 Add a 4 corners polygon primitive as box body*
4,1,4,$2,$3,$4,$5,$6,$7,$8,$9,$2,$3,0*
0 Add four circle primitives for the rounded corners*
1,1,$1+$1,$2,$3*
1,1,$1+$1,$4,$5*
1,1,$1+$1,$6,$7*
1,1,$1+$1,$8,$9*
0 Add four rect primitives between the rounded corners*
20,1,$1+$1,$2,$3,$4,$5,0*
20,1,$1+$1,$4,$5,$6,$7,0*
20,1,$1+$1,$6,$7,$8,$9,0*
20,1,$1+$1,$8,$9,$2,$3,0*%
G04 Aperture macros list end*
%ADD10R,1.700000X1.700000*%
%ADD11O,1.700000X1.700000*%
%ADD12C,2.000000*%
%ADD13C,2.250000*%
%ADD14RoundRect,0.102000X0.675000X0.675000X-0.675000X0.675000X-0.675000X-0.675000X0.675000X-0.675000X0*%
%ADD15C,1.554000*%
G04 APERTURE END LIST*
D10*
%TO.C,J24*%
X74000000Y-83920000D03*
D11*
X74000000Y-86460000D03*
X74000000Y-89000000D03*
%TD*%
D10*
%TO.C,J23*%
X69350000Y-83920000D03*
D11*
X69350000Y-86460000D03*
X69350000Y-89000000D03*
%TD*%
D10*
%TO.C,J22*%
X64700000Y-83920000D03*
D11*
X64700000Y-86460000D03*
X64700000Y-89000000D03*
%TD*%
D10*
%TO.C,J21*%
X60050000Y-83920000D03*
D11*
X60050000Y-86460000D03*
X60050000Y-89000000D03*
%TD*%
D10*
%TO.C,J20*%
X55400000Y-83920000D03*
D11*
X55400000Y-86460000D03*
X55400000Y-89000000D03*
%TD*%
D10*
%TO.C,J19*%
X50750000Y-83920000D03*
D11*
X50750000Y-86460000D03*
X50750000Y-89000000D03*
%TD*%
D10*
%TO.C,J18*%
X74000000Y-74220000D03*
D11*
X74000000Y-76760000D03*
X74000000Y-79300000D03*
%TD*%
D10*
%TO.C,J17*%
X69350000Y-74220000D03*
D11*
X69350000Y-76760000D03*
X69350000Y-79300000D03*
%TD*%
D10*
%TO.C,J16*%
X64700000Y-74220000D03*
D11*
X64700000Y-76760000D03*
X64700000Y-79300000D03*
%TD*%
D10*
%TO.C,J15*%
X60050000Y-74220000D03*
D11*
X60050000Y-76760000D03*
X60050000Y-79300000D03*
%TD*%
D10*
%TO.C,J14*%
X55400000Y-74220000D03*
D11*
X55400000Y-76760000D03*
X55400000Y-79300000D03*
%TD*%
D10*
%TO.C,J13*%
X50750000Y-74220000D03*
D11*
X50750000Y-76760000D03*
X50750000Y-79300000D03*
%TD*%
D10*
%TO.C,J12*%
X74000000Y-64520000D03*
D11*
X74000000Y-67060000D03*
X74000000Y-69600000D03*
%TD*%
D10*
%TO.C,J11*%
X69350000Y-64520000D03*
D11*
X69350000Y-67060000D03*
X69350000Y-69600000D03*
%TD*%
D10*
%TO.C,J10*%
X64700000Y-64520000D03*
D11*
X64700000Y-67060000D03*
X64700000Y-69600000D03*
%TD*%
D10*
%TO.C,J9*%
X60050000Y-64520000D03*
D11*
X60050000Y-67060000D03*
X60050000Y-69600000D03*
%TD*%
D10*
%TO.C,J8*%
X55400000Y-64520000D03*
D11*
X55400000Y-67060000D03*
X55400000Y-69600000D03*
%TD*%
D10*
%TO.C,J7*%
X50750000Y-64520000D03*
D11*
X50750000Y-67060000D03*
X50750000Y-69600000D03*
%TD*%
D10*
%TO.C,J3*%
X175260000Y-82550000D03*
D11*
X177800000Y-82550000D03*
X180340000Y-82550000D03*
X182880000Y-82550000D03*
X185420000Y-82550000D03*
%TD*%
D12*
%TO.C,U7*%
X207090000Y-74850000D03*
X207090000Y-69850000D03*
X212090000Y-74850000D03*
X212090000Y-69850000D03*
%TD*%
D10*
%TO.C,J1*%
X86340000Y-83230000D03*
D11*
X88880000Y-83230000D03*
X91420000Y-83230000D03*
X93960000Y-83230000D03*
X96500000Y-83230000D03*
%TD*%
D12*
%TO.C,U3*%
X146130000Y-73660000D03*
X146130000Y-68660000D03*
X151130000Y-73660000D03*
X151130000Y-68660000D03*
%TD*%
%TO.C,U5*%
X115610000Y-74890000D03*
X115610000Y-69890000D03*
X120610000Y-74890000D03*
X120610000Y-69890000D03*
%TD*%
D10*
%TO.C,J4*%
X203200000Y-82550000D03*
D11*
X205740000Y-82550000D03*
X208280000Y-82550000D03*
X210820000Y-82550000D03*
X213360000Y-82550000D03*
%TD*%
D12*
%TO.C,U8*%
X59770000Y-101600000D03*
X64770000Y-101600000D03*
X59770000Y-106600000D03*
X64770000Y-106600000D03*
%TD*%
%TO.C,U6*%
X177840000Y-76160000D03*
X177840000Y-71160000D03*
X182840000Y-76160000D03*
X182840000Y-71160000D03*
%TD*%
D10*
%TO.C,J2*%
X111740000Y-82550000D03*
D11*
X114280000Y-82550000D03*
X116820000Y-82550000D03*
X119360000Y-82550000D03*
X121900000Y-82550000D03*
%TD*%
D12*
%TO.C,U4*%
X88940000Y-74890000D03*
X88940000Y-69890000D03*
X93940000Y-74890000D03*
X93940000Y-69890000D03*
%TD*%
D10*
%TO.C,J5*%
X68560000Y-114980000D03*
D11*
X71100000Y-114980000D03*
X73640000Y-114980000D03*
X76180000Y-114980000D03*
X78720000Y-114980000D03*
%TD*%
D10*
%TO.C,J6*%
X204450000Y-113710000D03*
D11*
X206990000Y-113710000D03*
X209530000Y-113710000D03*
X212070000Y-113710000D03*
X214610000Y-113710000D03*
%TD*%
D13*
%TO.C,U2*%
X160790000Y-135220000D03*
X160790000Y-83220000D03*
X135790000Y-135220000D03*
X135790000Y-83220000D03*
D14*
X135290000Y-132080000D03*
D15*
X135290000Y-129540000D03*
X135290000Y-127000000D03*
X135290000Y-124460000D03*
X135290000Y-121920000D03*
X135290000Y-119380000D03*
X135290000Y-116840000D03*
X135290000Y-114300000D03*
X135290000Y-111760000D03*
X135290000Y-109220000D03*
X135290000Y-106680000D03*
X135290000Y-104140000D03*
X135290000Y-101600000D03*
X135290000Y-99060000D03*
X135290000Y-96520000D03*
X135290000Y-93980000D03*
X135290000Y-91440000D03*
X135290000Y-88900000D03*
X135290000Y-86360000D03*
D14*
X161290000Y-86360000D03*
D15*
X161290000Y-88900000D03*
X161290000Y-91440000D03*
X161290000Y-93980000D03*
X161290000Y-96520000D03*
X161290000Y-99060000D03*
X161290000Y-101600000D03*
X161290000Y-104140000D03*
X161290000Y-106680000D03*
X161290000Y-109220000D03*
X161290000Y-111760000D03*
X161290000Y-114300000D03*
X161290000Y-116840000D03*
X161290000Y-119380000D03*
X161290000Y-121920000D03*
X161290000Y-124460000D03*
X161290000Y-127000000D03*
X161290000Y-129540000D03*
X161290000Y-132080000D03*
%TD*%
M02*
