%TF.GenerationSoftware,KiCad,Pcbnew,8.0.5*%
%TF.CreationDate,2024-10-04T19:06:34+02:00*%
%TF.ProjectId,BMU,424d552e-6b69-4636-9164-5f7063625858,rev?*%
%TF.SameCoordinates,Original*%
%TF.FileFunction,Legend,Top*%
%TF.FilePolarity,Positive*%
%FSLAX46Y46*%
G04 Gerber Fmt 4.6, Leading zero omitted, Abs format (unit mm)*
G04 Created by KiCad (PCBNEW 8.0.5) date 2024-10-04 19:06:34*
%MOMM*%
%LPD*%
G01*
G04 APERTURE LIST*
%ADD10C,0.000000*%
%ADD11C,0.150000*%
%ADD12C,0.254000*%
%ADD13C,0.120000*%
%ADD14C,0.200000*%
%ADD15C,0.127000*%
%ADD16C,0.152400*%
G04 APERTURE END LIST*
D10*
G36*
X102569658Y-53058612D02*
G01*
X102612259Y-53058758D01*
X102649672Y-53059063D01*
X102682199Y-53059577D01*
X102696723Y-53059929D01*
X102710139Y-53060353D01*
X102722482Y-53060854D01*
X102733792Y-53061439D01*
X102744105Y-53062115D01*
X102753459Y-53062887D01*
X102761891Y-53063763D01*
X102769440Y-53064748D01*
X102776142Y-53065849D01*
X102782035Y-53067071D01*
X102787157Y-53068423D01*
X102789440Y-53069148D01*
X102791544Y-53069909D01*
X102793475Y-53070704D01*
X102795236Y-53071536D01*
X102796832Y-53072404D01*
X102798268Y-53073310D01*
X102799549Y-53074255D01*
X102800680Y-53075238D01*
X102801664Y-53076262D01*
X102802507Y-53077327D01*
X102803214Y-53078433D01*
X102803789Y-53079581D01*
X102804236Y-53080773D01*
X102804561Y-53082009D01*
X102804769Y-53083289D01*
X102804863Y-53084615D01*
X102804849Y-53085987D01*
X102804731Y-53087407D01*
X102804514Y-53088874D01*
X102804203Y-53090391D01*
X102803316Y-53093572D01*
X102802108Y-53096958D01*
X102800617Y-53100555D01*
X102791626Y-53123127D01*
X102780552Y-53151487D01*
X102769015Y-53182162D01*
X102763580Y-53197283D01*
X102758636Y-53211680D01*
X102733942Y-53280824D01*
X102148683Y-53280824D01*
X102188194Y-53169699D01*
X102225236Y-53058574D01*
X102521569Y-53058574D01*
X102569658Y-53058612D01*
G37*
G36*
X106317723Y-51947438D02*
G01*
X106339880Y-51947768D01*
X106361240Y-51948301D01*
X106381696Y-51949022D01*
X106401139Y-51949917D01*
X106419461Y-51950971D01*
X106436553Y-51952169D01*
X106452307Y-51953498D01*
X106466613Y-51954943D01*
X106479365Y-51956488D01*
X106490452Y-51958121D01*
X106499767Y-51959826D01*
X106507200Y-51961589D01*
X106512644Y-51963395D01*
X106514586Y-51964310D01*
X106515990Y-51965230D01*
X106516843Y-51966154D01*
X106517130Y-51967080D01*
X106493748Y-52044211D01*
X106430082Y-52237793D01*
X106220796Y-52858549D01*
X106136131Y-53109439D01*
X106100827Y-53215093D01*
X106069929Y-53308528D01*
X106043227Y-53390475D01*
X106020511Y-53461663D01*
X106001572Y-53522824D01*
X105986199Y-53574688D01*
X105974184Y-53617987D01*
X105969369Y-53636652D01*
X105965315Y-53653450D01*
X105961996Y-53668472D01*
X105959384Y-53681809D01*
X105957454Y-53693552D01*
X105956180Y-53703794D01*
X105955536Y-53712624D01*
X105955494Y-53720136D01*
X105956030Y-53726419D01*
X105957116Y-53731565D01*
X105958727Y-53735666D01*
X105960836Y-53738813D01*
X105963417Y-53741098D01*
X105966444Y-53742610D01*
X105970343Y-53743883D01*
X105974600Y-53744921D01*
X105979168Y-53745719D01*
X105984000Y-53746276D01*
X105989049Y-53746586D01*
X105994268Y-53746647D01*
X105999610Y-53746455D01*
X106005029Y-53746006D01*
X106010476Y-53745296D01*
X106015905Y-53744323D01*
X106021269Y-53743081D01*
X106026521Y-53741569D01*
X106031613Y-53739781D01*
X106036500Y-53737715D01*
X106041133Y-53735367D01*
X106045466Y-53732733D01*
X106050975Y-53725893D01*
X106059091Y-53711125D01*
X106082701Y-53658958D01*
X106115397Y-53578547D01*
X106156283Y-53472206D01*
X106259035Y-53190998D01*
X106383781Y-52833855D01*
X106680114Y-51959672D01*
X106907302Y-51952263D01*
X106995932Y-51950874D01*
X107068125Y-51950411D01*
X107095814Y-51950527D01*
X107116703Y-51950874D01*
X107129895Y-51951453D01*
X107133323Y-51951829D01*
X107134197Y-51952039D01*
X107134491Y-51952263D01*
X107044356Y-52222050D01*
X106828280Y-52858549D01*
X106740118Y-53116814D01*
X106668423Y-53323538D01*
X106637963Y-53409553D01*
X106610675Y-53485060D01*
X106586245Y-53550850D01*
X106564358Y-53607717D01*
X106544700Y-53656452D01*
X106526955Y-53697847D01*
X106510809Y-53732695D01*
X106495947Y-53761787D01*
X106482054Y-53785917D01*
X106468817Y-53805875D01*
X106455919Y-53822456D01*
X106443047Y-53836449D01*
X106415298Y-53863039D01*
X106385431Y-53887714D01*
X106353643Y-53910485D01*
X106320129Y-53931364D01*
X106285087Y-53950359D01*
X106248713Y-53967482D01*
X106211205Y-53982743D01*
X106172758Y-53996153D01*
X106133570Y-54007721D01*
X106093837Y-54017459D01*
X106053755Y-54025375D01*
X106013522Y-54031482D01*
X105973335Y-54035790D01*
X105933389Y-54038308D01*
X105893882Y-54039047D01*
X105855010Y-54038018D01*
X105816970Y-54035230D01*
X105779959Y-54030696D01*
X105744173Y-54024423D01*
X105709810Y-54016425D01*
X105677065Y-54006709D01*
X105646135Y-53995288D01*
X105617218Y-53982171D01*
X105590510Y-53967368D01*
X105566207Y-53950891D01*
X105544506Y-53932750D01*
X105525604Y-53912954D01*
X105509698Y-53891515D01*
X105496984Y-53868442D01*
X105487659Y-53843747D01*
X105481920Y-53817439D01*
X105479963Y-53789530D01*
X105486012Y-53754644D01*
X105503346Y-53687781D01*
X105567011Y-53473750D01*
X105661236Y-53178690D01*
X105776297Y-52833855D01*
X105985582Y-52216494D01*
X106049247Y-52026810D01*
X106072630Y-51954733D01*
X106073796Y-51954242D01*
X106077216Y-51953705D01*
X106090340Y-51952533D01*
X106138379Y-51950102D01*
X106209106Y-51948135D01*
X106294880Y-51947324D01*
X106317723Y-51947438D01*
G37*
G36*
X104907053Y-52421458D02*
G01*
X104881046Y-52608942D01*
X104860133Y-52767488D01*
X104852310Y-52830628D01*
X104846628Y-52880195D01*
X104843377Y-52914078D01*
X104842754Y-52924477D01*
X104842847Y-52930163D01*
X104843640Y-52931333D01*
X104845082Y-52931160D01*
X104849850Y-52926907D01*
X104866461Y-52903655D01*
X104891638Y-52862403D01*
X104924338Y-52805148D01*
X105008145Y-52650614D01*
X105109546Y-52456030D01*
X105368838Y-51947324D01*
X105675049Y-51947324D01*
X105720346Y-51947387D01*
X105761003Y-51947594D01*
X105797238Y-51947976D01*
X105829274Y-51948559D01*
X105857331Y-51949374D01*
X105869936Y-51949878D01*
X105881629Y-51950450D01*
X105892438Y-51951094D01*
X105902390Y-51951815D01*
X105911512Y-51952615D01*
X105919833Y-51953498D01*
X105927380Y-51954468D01*
X105934180Y-51955529D01*
X105940262Y-51956683D01*
X105945652Y-51957935D01*
X105950378Y-51959289D01*
X105954468Y-51960747D01*
X105957949Y-51962314D01*
X105959470Y-51963139D01*
X105960849Y-51963993D01*
X105962090Y-51964876D01*
X105963196Y-51965788D01*
X105964171Y-51966730D01*
X105965017Y-51967702D01*
X105965739Y-51968705D01*
X105966340Y-51969739D01*
X105966823Y-51970805D01*
X105967192Y-51971903D01*
X105967450Y-51973034D01*
X105967600Y-51974197D01*
X105967647Y-51975394D01*
X105967594Y-51976625D01*
X105967199Y-51979190D01*
X105966444Y-51981897D01*
X105610844Y-53019063D01*
X105270061Y-54021658D01*
X104865072Y-54021658D01*
X105050280Y-53488257D01*
X105121084Y-53278702D01*
X105177765Y-53106420D01*
X105199001Y-53039827D01*
X105214537Y-52989237D01*
X105223648Y-52956879D01*
X105225568Y-52948233D01*
X105225611Y-52944980D01*
X105223176Y-52946874D01*
X105217826Y-52954226D01*
X105198987Y-52984221D01*
X105133007Y-53097777D01*
X105037393Y-53268284D01*
X104921869Y-53478380D01*
X104628005Y-54021658D01*
X104474900Y-54021658D01*
X104457689Y-54021542D01*
X104441273Y-54021199D01*
X104425697Y-54020632D01*
X104411003Y-54019844D01*
X104397235Y-54018839D01*
X104384437Y-54017621D01*
X104372652Y-54016192D01*
X104361923Y-54014558D01*
X104352293Y-54012721D01*
X104343807Y-54010685D01*
X104340006Y-54009593D01*
X104336507Y-54008454D01*
X104333316Y-54007266D01*
X104330437Y-54006031D01*
X104327877Y-54004748D01*
X104325641Y-54003420D01*
X104323733Y-54002045D01*
X104322161Y-54000624D01*
X104320928Y-53999158D01*
X104320041Y-53997647D01*
X104319505Y-53996093D01*
X104319325Y-53994494D01*
X104323260Y-53948037D01*
X104334141Y-53841388D01*
X104350578Y-53690289D01*
X104371183Y-53510483D01*
X104389897Y-53328515D01*
X104397705Y-53245866D01*
X104404212Y-53171551D01*
X104409213Y-53107654D01*
X104412508Y-53056259D01*
X104413892Y-53019449D01*
X104413805Y-53007164D01*
X104413164Y-52999308D01*
X104412471Y-52997255D01*
X104411327Y-52996632D01*
X104407728Y-52999549D01*
X104402458Y-53007805D01*
X104395607Y-53021147D01*
X104377525Y-53062076D01*
X104354205Y-53120310D01*
X104326371Y-53193825D01*
X104294746Y-53280593D01*
X104223016Y-53485788D01*
X104042747Y-54021658D01*
X103872355Y-54021658D01*
X103854977Y-54021544D01*
X103838092Y-54021214D01*
X103821785Y-54020681D01*
X103806143Y-54019960D01*
X103791254Y-54019065D01*
X103777205Y-54018011D01*
X103764081Y-54016813D01*
X103751970Y-54015484D01*
X103740959Y-54014039D01*
X103731134Y-54012494D01*
X103722583Y-54010861D01*
X103715391Y-54009156D01*
X103709647Y-54007393D01*
X103707345Y-54006494D01*
X103705436Y-54005587D01*
X103703933Y-54004672D01*
X103702846Y-54003752D01*
X103702186Y-54002828D01*
X103701964Y-54001902D01*
X104008175Y-53077404D01*
X104381061Y-51976958D01*
X104383360Y-51972962D01*
X104387529Y-51969303D01*
X104393644Y-51965970D01*
X104401781Y-51962951D01*
X104412016Y-51960236D01*
X104424426Y-51957815D01*
X104456070Y-51953807D01*
X104497323Y-51950840D01*
X104548790Y-51948829D01*
X104611081Y-51947686D01*
X104684803Y-51947324D01*
X104978666Y-51947324D01*
X104907053Y-52421458D01*
G37*
G36*
X103640372Y-51947624D02*
G01*
X103699339Y-51948564D01*
X103753214Y-51950206D01*
X103802284Y-51952611D01*
X103846840Y-51955840D01*
X103887172Y-51959956D01*
X103923567Y-51965020D01*
X103940379Y-51967926D01*
X103956316Y-51971093D01*
X103971414Y-51974527D01*
X103985708Y-51978236D01*
X103999236Y-51982229D01*
X104012033Y-51986512D01*
X104024135Y-51991094D01*
X104035579Y-51995982D01*
X104046401Y-52001184D01*
X104056637Y-52006707D01*
X104066323Y-52012559D01*
X104075496Y-52018748D01*
X104084190Y-52025282D01*
X104092444Y-52032168D01*
X104100292Y-52039414D01*
X104107772Y-52047028D01*
X104114918Y-52055016D01*
X104121768Y-52063388D01*
X104133024Y-52079053D01*
X104142711Y-52094714D01*
X104150820Y-52110600D01*
X104157344Y-52126938D01*
X104162277Y-52143956D01*
X104165611Y-52161881D01*
X104167339Y-52180943D01*
X104167454Y-52201368D01*
X104165948Y-52223385D01*
X104162814Y-52247222D01*
X104158045Y-52273106D01*
X104151634Y-52301265D01*
X104143573Y-52331928D01*
X104133856Y-52365321D01*
X104122475Y-52401674D01*
X104109422Y-52441213D01*
X104094295Y-52484449D01*
X104079388Y-52524451D01*
X104064576Y-52561400D01*
X104049731Y-52595476D01*
X104034727Y-52626862D01*
X104019437Y-52655737D01*
X104003734Y-52682282D01*
X103995689Y-52694737D01*
X103987493Y-52706678D01*
X103979131Y-52718128D01*
X103970586Y-52729107D01*
X103961844Y-52739640D01*
X103952887Y-52749749D01*
X103943701Y-52759456D01*
X103934269Y-52768785D01*
X103924576Y-52777757D01*
X103914606Y-52786395D01*
X103904343Y-52794723D01*
X103893770Y-52802761D01*
X103871637Y-52818064D01*
X103848077Y-52832484D01*
X103822966Y-52846202D01*
X103706903Y-52902999D01*
X103790863Y-52969674D01*
X103809960Y-52985582D01*
X103826492Y-53001203D01*
X103840441Y-53017005D01*
X103851789Y-53033455D01*
X103860519Y-53051019D01*
X103866611Y-53070164D01*
X103870048Y-53091356D01*
X103870812Y-53115063D01*
X103868884Y-53141750D01*
X103864248Y-53171884D01*
X103856883Y-53205932D01*
X103846773Y-53244361D01*
X103833900Y-53287637D01*
X103818245Y-53336228D01*
X103778517Y-53451216D01*
X103757867Y-53508607D01*
X103738335Y-53560648D01*
X103719649Y-53607719D01*
X103701539Y-53650199D01*
X103683733Y-53688469D01*
X103665959Y-53722908D01*
X103656999Y-53738809D01*
X103647946Y-53753896D01*
X103638765Y-53768214D01*
X103629423Y-53781813D01*
X103619886Y-53794738D01*
X103610119Y-53807038D01*
X103600090Y-53818761D01*
X103589763Y-53829952D01*
X103579105Y-53840661D01*
X103568082Y-53850935D01*
X103556660Y-53860820D01*
X103544806Y-53870365D01*
X103532485Y-53879617D01*
X103519664Y-53888624D01*
X103492383Y-53906090D01*
X103462694Y-53923144D01*
X103430324Y-53940166D01*
X103385990Y-53961585D01*
X103365776Y-53970438D01*
X103346055Y-53978172D01*
X103326217Y-53984879D01*
X103305656Y-53990650D01*
X103283764Y-53995573D01*
X103259933Y-53999741D01*
X103233555Y-54003243D01*
X103204023Y-54006171D01*
X103133065Y-54010661D01*
X103042198Y-54013936D01*
X102926558Y-54016719D01*
X102873622Y-54017961D01*
X102825793Y-54018899D01*
X102782855Y-54019518D01*
X102744591Y-54019805D01*
X102710783Y-54019745D01*
X102681215Y-54019323D01*
X102655669Y-54018525D01*
X102644337Y-54017980D01*
X102633929Y-54017336D01*
X102624418Y-54016591D01*
X102615777Y-54015742D01*
X102607979Y-54014789D01*
X102600996Y-54013728D01*
X102594802Y-54012560D01*
X102589370Y-54011281D01*
X102584672Y-54009889D01*
X102580681Y-54008384D01*
X102577371Y-54006763D01*
X102574713Y-54005025D01*
X102572681Y-54003167D01*
X102571247Y-54001188D01*
X102570747Y-54000153D01*
X102570385Y-53999086D01*
X102570068Y-53996860D01*
X102570268Y-53994506D01*
X102570958Y-53992024D01*
X102656357Y-53740606D01*
X103120773Y-53740606D01*
X103120964Y-53743497D01*
X103121644Y-53745080D01*
X103122410Y-53745731D01*
X103123316Y-53746297D01*
X103125531Y-53747178D01*
X103128253Y-53747733D01*
X103131445Y-53747974D01*
X103135070Y-53747910D01*
X103139094Y-53747554D01*
X103143479Y-53746916D01*
X103148190Y-53746006D01*
X103153191Y-53744836D01*
X103158444Y-53743416D01*
X103163915Y-53741757D01*
X103169566Y-53739871D01*
X103175363Y-53737767D01*
X103181267Y-53735458D01*
X103187245Y-53732952D01*
X103193258Y-53730263D01*
X103202305Y-53725565D01*
X103211002Y-53719652D01*
X103219460Y-53712292D01*
X103227791Y-53703253D01*
X103236108Y-53692305D01*
X103244523Y-53679215D01*
X103253147Y-53663752D01*
X103262094Y-53645685D01*
X103271474Y-53624781D01*
X103281401Y-53600810D01*
X103303341Y-53542740D01*
X103328812Y-53469621D01*
X103358711Y-53379602D01*
X103374925Y-53330358D01*
X103389338Y-53286149D01*
X103402000Y-53246686D01*
X103412962Y-53211680D01*
X103422274Y-53180841D01*
X103429987Y-53153879D01*
X103433260Y-53141763D01*
X103436152Y-53130507D01*
X103438670Y-53120075D01*
X103440820Y-53110433D01*
X103442608Y-53101542D01*
X103444040Y-53093368D01*
X103445124Y-53085874D01*
X103445865Y-53079024D01*
X103446269Y-53072782D01*
X103446343Y-53067111D01*
X103446094Y-53061976D01*
X103445527Y-53057340D01*
X103444649Y-53053166D01*
X103443466Y-53049420D01*
X103441985Y-53046064D01*
X103440212Y-53043063D01*
X103438152Y-53040380D01*
X103435814Y-53037980D01*
X103433202Y-53035825D01*
X103430324Y-53033880D01*
X103420208Y-53027463D01*
X103411090Y-53022135D01*
X103402869Y-53017944D01*
X103399063Y-53016288D01*
X103395444Y-53014935D01*
X103391998Y-53013888D01*
X103388713Y-53013155D01*
X103385577Y-53012742D01*
X103382576Y-53012653D01*
X103379698Y-53012896D01*
X103376930Y-53013475D01*
X103374260Y-53014397D01*
X103371676Y-53015668D01*
X103369163Y-53017293D01*
X103366710Y-53019278D01*
X103364304Y-53021630D01*
X103361933Y-53024354D01*
X103359583Y-53027456D01*
X103357242Y-53030942D01*
X103354898Y-53034817D01*
X103352537Y-53039089D01*
X103347717Y-53048842D01*
X103342679Y-53060248D01*
X103337323Y-53073354D01*
X103331547Y-53088208D01*
X103280291Y-53234430D01*
X103235894Y-53363435D01*
X103198501Y-53474671D01*
X103168255Y-53567588D01*
X103145301Y-53641638D01*
X103129785Y-53696270D01*
X103124862Y-53716132D01*
X103121851Y-53730934D01*
X103120773Y-53740606D01*
X102656357Y-53740606D01*
X102924089Y-52952388D01*
X102988171Y-52763391D01*
X103455756Y-52763391D01*
X103455824Y-52767733D01*
X103456146Y-52771589D01*
X103456716Y-52774974D01*
X103457533Y-52777903D01*
X103458593Y-52780392D01*
X103459891Y-52782455D01*
X103461424Y-52784109D01*
X103463189Y-52785369D01*
X103465181Y-52786249D01*
X103467398Y-52786767D01*
X103469836Y-52786935D01*
X103473708Y-52786707D01*
X103477895Y-52786034D01*
X103482364Y-52784933D01*
X103487083Y-52783424D01*
X103492019Y-52781524D01*
X103497139Y-52779252D01*
X103502412Y-52776625D01*
X103507803Y-52773662D01*
X103513282Y-52770381D01*
X103518815Y-52766799D01*
X103524369Y-52762935D01*
X103529913Y-52758807D01*
X103535413Y-52754433D01*
X103540837Y-52749831D01*
X103546153Y-52745019D01*
X103551327Y-52740016D01*
X103562356Y-52726170D01*
X103574845Y-52705646D01*
X103588463Y-52679407D01*
X103602877Y-52648415D01*
X103617754Y-52613632D01*
X103632761Y-52576020D01*
X103661835Y-52496158D01*
X103687436Y-52416528D01*
X103698102Y-52379206D01*
X103706902Y-52344828D01*
X103713502Y-52314356D01*
X103717571Y-52288754D01*
X103718774Y-52268983D01*
X103718197Y-52261585D01*
X103716780Y-52256005D01*
X103715010Y-52251954D01*
X103712957Y-52248135D01*
X103710638Y-52244551D01*
X103708074Y-52241203D01*
X103705284Y-52238091D01*
X103702287Y-52235218D01*
X103699103Y-52232584D01*
X103695751Y-52230191D01*
X103692251Y-52228041D01*
X103688622Y-52226135D01*
X103684883Y-52224473D01*
X103681055Y-52223058D01*
X103677156Y-52221891D01*
X103673206Y-52220973D01*
X103669224Y-52220305D01*
X103665230Y-52219889D01*
X103661244Y-52219727D01*
X103657284Y-52219819D01*
X103653370Y-52220167D01*
X103649521Y-52220772D01*
X103645758Y-52221636D01*
X103642099Y-52222760D01*
X103638564Y-52224145D01*
X103635173Y-52225793D01*
X103631944Y-52227705D01*
X103628897Y-52229882D01*
X103626052Y-52232326D01*
X103623428Y-52235039D01*
X103621045Y-52238021D01*
X103618922Y-52241273D01*
X103617078Y-52244798D01*
X103615533Y-52248597D01*
X103603957Y-52280815D01*
X103582195Y-52345214D01*
X103519224Y-52532583D01*
X103507383Y-52567995D01*
X103496845Y-52600232D01*
X103487580Y-52629415D01*
X103479559Y-52655669D01*
X103472753Y-52679115D01*
X103467134Y-52699878D01*
X103464761Y-52709291D01*
X103462673Y-52718079D01*
X103460867Y-52726258D01*
X103459340Y-52733842D01*
X103458088Y-52740848D01*
X103457107Y-52747290D01*
X103456394Y-52753185D01*
X103455945Y-52758546D01*
X103455756Y-52763391D01*
X102988171Y-52763391D01*
X103264872Y-51947324D01*
X103576021Y-51947324D01*
X103640372Y-51947624D01*
G37*
G36*
X101109047Y-52814099D02*
G01*
X100990514Y-53158085D01*
X100886797Y-53450907D01*
X100843968Y-53568510D01*
X100809010Y-53661774D01*
X100783312Y-53726853D01*
X100774370Y-53747620D01*
X100768264Y-53759896D01*
X100749022Y-53789440D01*
X100726640Y-53817403D01*
X100701348Y-53843768D01*
X100673378Y-53868518D01*
X100642962Y-53891635D01*
X100610329Y-53913100D01*
X100575711Y-53932897D01*
X100539339Y-53951008D01*
X100501444Y-53967415D01*
X100462257Y-53982101D01*
X100422010Y-53995048D01*
X100380932Y-54006238D01*
X100339257Y-54015654D01*
X100297213Y-54023277D01*
X100255033Y-54029092D01*
X100212948Y-54033079D01*
X100171188Y-54035221D01*
X100129984Y-54035501D01*
X100089569Y-54033900D01*
X100050172Y-54030402D01*
X100012024Y-54024988D01*
X99975358Y-54017642D01*
X99940404Y-54008344D01*
X99907392Y-53997079D01*
X99876555Y-53983827D01*
X99848123Y-53968572D01*
X99822326Y-53951296D01*
X99799398Y-53931981D01*
X99779567Y-53910610D01*
X99763065Y-53887164D01*
X99750124Y-53861627D01*
X99740975Y-53833980D01*
X99739741Y-53823060D01*
X99740714Y-53806816D01*
X99749541Y-53757427D01*
X99767975Y-53683961D01*
X99796537Y-53584566D01*
X99886132Y-53300580D01*
X100022492Y-52890652D01*
X100235172Y-52258783D01*
X100302735Y-52058951D01*
X100331172Y-51976958D01*
X100333318Y-51973369D01*
X100336998Y-51970012D01*
X100342241Y-51966887D01*
X100349076Y-51963993D01*
X100357531Y-51961331D01*
X100367635Y-51958900D01*
X100379418Y-51956701D01*
X100392908Y-51954733D01*
X100425127Y-51951492D01*
X100464522Y-51949176D01*
X100511326Y-51947787D01*
X100565769Y-51947324D01*
X100610060Y-51947546D01*
X100651544Y-51948173D01*
X100689265Y-51949148D01*
X100722270Y-51950411D01*
X100749603Y-51951906D01*
X100770308Y-51953575D01*
X100777878Y-51954457D01*
X100783432Y-51955360D01*
X100786852Y-51956277D01*
X100787725Y-51956739D01*
X100788019Y-51957202D01*
X100700971Y-52221124D01*
X100491686Y-52838794D01*
X100432491Y-53013425D01*
X100377898Y-53177378D01*
X100329035Y-53326919D01*
X100287031Y-53458315D01*
X100253013Y-53567834D01*
X100228111Y-53651742D01*
X100213454Y-53706307D01*
X100210319Y-53721418D01*
X100210169Y-53727794D01*
X100212191Y-53730695D01*
X100214541Y-53733380D01*
X100217196Y-53735850D01*
X100220138Y-53738105D01*
X100223346Y-53740148D01*
X100226800Y-53741977D01*
X100230478Y-53743595D01*
X100234362Y-53745003D01*
X100238430Y-53746200D01*
X100242662Y-53747189D01*
X100247038Y-53747969D01*
X100251537Y-53748543D01*
X100260825Y-53749072D01*
X100270362Y-53748784D01*
X100279986Y-53747685D01*
X100289534Y-53745784D01*
X100294229Y-53744534D01*
X100298843Y-53743087D01*
X100303357Y-53741442D01*
X100307751Y-53739601D01*
X100312003Y-53737564D01*
X100316094Y-53735333D01*
X100320004Y-53732909D01*
X100323711Y-53730292D01*
X100327195Y-53727483D01*
X100330437Y-53724484D01*
X100333416Y-53721294D01*
X100336111Y-53717916D01*
X100347470Y-53694586D01*
X100369564Y-53638238D01*
X100440754Y-53441647D01*
X100539261Y-53158471D01*
X100654669Y-52819038D01*
X100948533Y-51947324D01*
X101402910Y-51947324D01*
X101109047Y-52814099D01*
G37*
G36*
X99589396Y-51947567D02*
G01*
X99645115Y-51948337D01*
X99696066Y-51949701D01*
X99742557Y-51951723D01*
X99784895Y-51954469D01*
X99823388Y-51958003D01*
X99858343Y-51962391D01*
X99890068Y-51967697D01*
X99904815Y-51970715D01*
X99918870Y-51973988D01*
X99932271Y-51977522D01*
X99945056Y-51981327D01*
X99957265Y-51985411D01*
X99968935Y-51989781D01*
X99980105Y-51994446D01*
X99990813Y-51999414D01*
X100001098Y-52004693D01*
X100010999Y-52010292D01*
X100020553Y-52016217D01*
X100029799Y-52022478D01*
X100038775Y-52029083D01*
X100047521Y-52036040D01*
X100064472Y-52051041D01*
X100077494Y-52064292D01*
X100088776Y-52078219D01*
X100098314Y-52092979D01*
X100106106Y-52108726D01*
X100112146Y-52125616D01*
X100116432Y-52143804D01*
X100118960Y-52163447D01*
X100119726Y-52184700D01*
X100118727Y-52207717D01*
X100115959Y-52232656D01*
X100111419Y-52259671D01*
X100105102Y-52288918D01*
X100097006Y-52320552D01*
X100087127Y-52354730D01*
X100075460Y-52391606D01*
X100062003Y-52431335D01*
X100045471Y-52478965D01*
X100029992Y-52522059D01*
X100015344Y-52560941D01*
X100001308Y-52595939D01*
X99987663Y-52627378D01*
X99974188Y-52655582D01*
X99967445Y-52668573D01*
X99960662Y-52680878D01*
X99953811Y-52692537D01*
X99946865Y-52703592D01*
X99939795Y-52714081D01*
X99932575Y-52724048D01*
X99925177Y-52733531D01*
X99917574Y-52742572D01*
X99909737Y-52751212D01*
X99901639Y-52759491D01*
X99893252Y-52767449D01*
X99884550Y-52775128D01*
X99875504Y-52782569D01*
X99866086Y-52789811D01*
X99846027Y-52803865D01*
X99824153Y-52817614D01*
X99800241Y-52831385D01*
X99789592Y-52837115D01*
X99779409Y-52842724D01*
X99769692Y-52848209D01*
X99760446Y-52853567D01*
X99751671Y-52858792D01*
X99743371Y-52863882D01*
X99735548Y-52868831D01*
X99728203Y-52873636D01*
X99721340Y-52878293D01*
X99714960Y-52882797D01*
X99709065Y-52887145D01*
X99703658Y-52891332D01*
X99698742Y-52895355D01*
X99694318Y-52899209D01*
X99690388Y-52902890D01*
X99686956Y-52906395D01*
X99684023Y-52909718D01*
X99681591Y-52912857D01*
X99679663Y-52915807D01*
X99678240Y-52918564D01*
X99677327Y-52921123D01*
X99677061Y-52922328D01*
X99676923Y-52923481D01*
X99676914Y-52924584D01*
X99677032Y-52925634D01*
X99677280Y-52926633D01*
X99677657Y-52927578D01*
X99678163Y-52928470D01*
X99678798Y-52929308D01*
X99679564Y-52930092D01*
X99680460Y-52930821D01*
X99681486Y-52931495D01*
X99682643Y-52932112D01*
X99685350Y-52933178D01*
X99688583Y-52934014D01*
X99692345Y-52934616D01*
X99696638Y-52934980D01*
X99701464Y-52935102D01*
X99706163Y-52935395D01*
X99710989Y-52936255D01*
X99715924Y-52937660D01*
X99720949Y-52939583D01*
X99726046Y-52942000D01*
X99731198Y-52944885D01*
X99736386Y-52948215D01*
X99741592Y-52951964D01*
X99751986Y-52960620D01*
X99762235Y-52970653D01*
X99772195Y-52981867D01*
X99781720Y-52994060D01*
X99790667Y-53007035D01*
X99798891Y-53020592D01*
X99806246Y-53034533D01*
X99812588Y-53048658D01*
X99817773Y-53062769D01*
X99821656Y-53076666D01*
X99823064Y-53083472D01*
X99824092Y-53090151D01*
X99824722Y-53096676D01*
X99824936Y-53103024D01*
X99823116Y-53125272D01*
X99817899Y-53155182D01*
X99809651Y-53191675D01*
X99798736Y-53233673D01*
X99770372Y-53329875D01*
X99735727Y-53435164D01*
X99697726Y-53540916D01*
X99659290Y-53638508D01*
X99640823Y-53681548D01*
X99623343Y-53719315D01*
X99607217Y-53750729D01*
X99592808Y-53774713D01*
X99586196Y-53783814D01*
X99578459Y-53793461D01*
X99569688Y-53803563D01*
X99559972Y-53814031D01*
X99549403Y-53824774D01*
X99538070Y-53835702D01*
X99526065Y-53846723D01*
X99513477Y-53857748D01*
X99500398Y-53868686D01*
X99486916Y-53879447D01*
X99473124Y-53889941D01*
X99459111Y-53900076D01*
X99444968Y-53909763D01*
X99430785Y-53918910D01*
X99416652Y-53927429D01*
X99402661Y-53935227D01*
X99358814Y-53958986D01*
X99339106Y-53968706D01*
X99319973Y-53977130D01*
X99300739Y-53984369D01*
X99280727Y-53990529D01*
X99259261Y-53995720D01*
X99235665Y-54000050D01*
X99209261Y-54003628D01*
X99179374Y-54006561D01*
X99106443Y-54010931D01*
X99011462Y-54014027D01*
X98889017Y-54016719D01*
X98806252Y-54018817D01*
X98768212Y-54019372D01*
X98732516Y-54019613D01*
X98699250Y-54019549D01*
X98668503Y-54019193D01*
X98640360Y-54018554D01*
X98614908Y-54017645D01*
X98592235Y-54016474D01*
X98572426Y-54015055D01*
X98555569Y-54013396D01*
X98541751Y-54011510D01*
X98531058Y-54009406D01*
X98526911Y-54008276D01*
X98523577Y-54007097D01*
X98521069Y-54005868D01*
X98519396Y-54004591D01*
X98518569Y-54003269D01*
X98518600Y-54001902D01*
X98611129Y-53731382D01*
X99088154Y-53731382D01*
X99088416Y-53735894D01*
X99088995Y-53739747D01*
X99089888Y-53742959D01*
X99091092Y-53745548D01*
X99092600Y-53747530D01*
X99094410Y-53748925D01*
X99096518Y-53749748D01*
X99098920Y-53750019D01*
X99102819Y-53749763D01*
X99107080Y-53749016D01*
X99111660Y-53747805D01*
X99116514Y-53746160D01*
X99121600Y-53744110D01*
X99126874Y-53741684D01*
X99132293Y-53738911D01*
X99137813Y-53735819D01*
X99143391Y-53732438D01*
X99148983Y-53728797D01*
X99154547Y-53724924D01*
X99160038Y-53720848D01*
X99165413Y-53716599D01*
X99170630Y-53712205D01*
X99175643Y-53707696D01*
X99180411Y-53703099D01*
X99192862Y-53686608D01*
X99207676Y-53660299D01*
X99224378Y-53625583D01*
X99242494Y-53583871D01*
X99281074Y-53485103D01*
X99319626Y-53375280D01*
X99354357Y-53265689D01*
X99381478Y-53167616D01*
X99390999Y-53126425D01*
X99397196Y-53092346D01*
X99399595Y-53066789D01*
X99399222Y-53057648D01*
X99397722Y-53051166D01*
X99389749Y-53032988D01*
X99381512Y-53019295D01*
X99377266Y-53014176D01*
X99372920Y-53010232D01*
X99368463Y-53007482D01*
X99363883Y-53005944D01*
X99359169Y-53005636D01*
X99354311Y-53006576D01*
X99349296Y-53008782D01*
X99344113Y-53012272D01*
X99333199Y-53023177D01*
X99321478Y-53039436D01*
X99308860Y-53061193D01*
X99295254Y-53088593D01*
X99280571Y-53121781D01*
X99264719Y-53160902D01*
X99247609Y-53206099D01*
X99229149Y-53257519D01*
X99187819Y-53379602D01*
X99171058Y-53429748D01*
X99155943Y-53475635D01*
X99142442Y-53517407D01*
X99130521Y-53555203D01*
X99120148Y-53589164D01*
X99111291Y-53619432D01*
X99103917Y-53646148D01*
X99097993Y-53669453D01*
X99093488Y-53689488D01*
X99091757Y-53698323D01*
X99090368Y-53706394D01*
X99089317Y-53713717D01*
X99088601Y-53720311D01*
X99088215Y-53726194D01*
X99088154Y-53731382D01*
X98611129Y-53731382D01*
X98874200Y-52962266D01*
X98942335Y-52762241D01*
X99405130Y-52762241D01*
X99405238Y-52765584D01*
X99405560Y-52768666D01*
X99406092Y-52771489D01*
X99406833Y-52774053D01*
X99407777Y-52776358D01*
X99408923Y-52778405D01*
X99410267Y-52780194D01*
X99411805Y-52781726D01*
X99413536Y-52783002D01*
X99415455Y-52784020D01*
X99417559Y-52784783D01*
X99419845Y-52785291D01*
X99422311Y-52785543D01*
X99424953Y-52785541D01*
X99427767Y-52785285D01*
X99430751Y-52784775D01*
X99433901Y-52784011D01*
X99437214Y-52782995D01*
X99444318Y-52780207D01*
X99452037Y-52776413D01*
X99460345Y-52771617D01*
X99469218Y-52765823D01*
X99478630Y-52759034D01*
X99488556Y-52751253D01*
X99498969Y-52742485D01*
X99504729Y-52736688D01*
X99510867Y-52729101D01*
X99524117Y-52709027D01*
X99538395Y-52683217D01*
X99553374Y-52652621D01*
X99568730Y-52618190D01*
X99584136Y-52580877D01*
X99599267Y-52541631D01*
X99613798Y-52501406D01*
X99627403Y-52461151D01*
X99639756Y-52421819D01*
X99650533Y-52384361D01*
X99659406Y-52349728D01*
X99666051Y-52318871D01*
X99670142Y-52292743D01*
X99671354Y-52272293D01*
X99670778Y-52264495D01*
X99669361Y-52258474D01*
X99662237Y-52242304D01*
X99654737Y-52229936D01*
X99650837Y-52225190D01*
X99646832Y-52221409D01*
X99642719Y-52218599D01*
X99638493Y-52216764D01*
X99634151Y-52215909D01*
X99629691Y-52216040D01*
X99625107Y-52217161D01*
X99620397Y-52219277D01*
X99615556Y-52222393D01*
X99610581Y-52226514D01*
X99600217Y-52237793D01*
X99589273Y-52253151D01*
X99577721Y-52272630D01*
X99565533Y-52296269D01*
X99552680Y-52324107D01*
X99539132Y-52356186D01*
X99524860Y-52392543D01*
X99509836Y-52433219D01*
X99494030Y-52478255D01*
X99476030Y-52530972D01*
X99459304Y-52580968D01*
X99444198Y-52627145D01*
X99431059Y-52668402D01*
X99420236Y-52703640D01*
X99412075Y-52731759D01*
X99406924Y-52751659D01*
X99405586Y-52758184D01*
X99405130Y-52762241D01*
X98942335Y-52762241D01*
X99219922Y-51947324D01*
X99528603Y-51947324D01*
X99589396Y-51947567D01*
G37*
G36*
X98269370Y-51947438D02*
G01*
X98291146Y-51947768D01*
X98312176Y-51948301D01*
X98332350Y-51949022D01*
X98351554Y-51949917D01*
X98369676Y-51950971D01*
X98386604Y-51952169D01*
X98402227Y-51953498D01*
X98416432Y-51954943D01*
X98429107Y-51956488D01*
X98440139Y-51958121D01*
X98449417Y-51959826D01*
X98456828Y-51961589D01*
X98462261Y-51963395D01*
X98464200Y-51964310D01*
X98465603Y-51965230D01*
X98466455Y-51966154D01*
X98466742Y-51967080D01*
X98464726Y-51976707D01*
X98458947Y-51997331D01*
X98437726Y-52066475D01*
X98406317Y-52164327D01*
X98367963Y-52280699D01*
X98348237Y-52339522D01*
X98330073Y-52394757D01*
X98313877Y-52445130D01*
X98300054Y-52489367D01*
X98289009Y-52526197D01*
X98281147Y-52554345D01*
X98278537Y-52564765D01*
X98276874Y-52572537D01*
X98276210Y-52577503D01*
X98276268Y-52578883D01*
X98276594Y-52579502D01*
X98278082Y-52578747D01*
X98281548Y-52574737D01*
X98293996Y-52557586D01*
X98338022Y-52491219D01*
X98401957Y-52390590D01*
X98479089Y-52265883D01*
X98676644Y-51947324D01*
X98881608Y-51947324D01*
X98922214Y-51947551D01*
X98960129Y-51948212D01*
X98994513Y-51949278D01*
X99024527Y-51950720D01*
X99037634Y-51951573D01*
X99049333Y-51952509D01*
X99059520Y-51953525D01*
X99068090Y-51954617D01*
X99074938Y-51955781D01*
X99079960Y-51957014D01*
X99081753Y-51957655D01*
X99083049Y-51958312D01*
X99083837Y-51958984D01*
X99084103Y-51959672D01*
X99078059Y-51971845D01*
X99060759Y-52001498D01*
X98997364Y-52105369D01*
X98790239Y-52436274D01*
X98496375Y-52898060D01*
X98479089Y-53391949D01*
X98472761Y-53588926D01*
X98465507Y-53760205D01*
X98461822Y-53830493D01*
X98458253Y-53887497D01*
X98454915Y-53928933D01*
X98451925Y-53952513D01*
X98437108Y-54021658D01*
X97948158Y-54021658D01*
X97960505Y-53930288D01*
X97971661Y-53849173D01*
X97982614Y-53762443D01*
X97992931Y-53674440D01*
X98002177Y-53589505D01*
X98009918Y-53511978D01*
X98015721Y-53446200D01*
X98019150Y-53396512D01*
X98019772Y-53367255D01*
X98019459Y-53363107D01*
X98019072Y-53361731D01*
X98018538Y-53360811D01*
X98017858Y-53360340D01*
X98017038Y-53360310D01*
X98014988Y-53361544D01*
X98012417Y-53364457D01*
X98009354Y-53368991D01*
X98005829Y-53375088D01*
X98001869Y-53382689D01*
X97992763Y-53402174D01*
X97982267Y-53426984D01*
X97970615Y-53456656D01*
X97958036Y-53490727D01*
X97897226Y-53665132D01*
X97834564Y-53841388D01*
X97770358Y-54021658D01*
X97550578Y-54021658D01*
X97506393Y-54021431D01*
X97465189Y-54020770D01*
X97427863Y-54019704D01*
X97395311Y-54018262D01*
X97368432Y-54016473D01*
X97357400Y-54015457D01*
X97348122Y-54014365D01*
X97340710Y-54013201D01*
X97335278Y-54011968D01*
X97333339Y-54011327D01*
X97331936Y-54010670D01*
X97331084Y-54009998D01*
X97330797Y-54009310D01*
X97351556Y-53943214D01*
X97407967Y-53773170D01*
X97592558Y-53224027D01*
X97803696Y-52606049D01*
X97940750Y-52199208D01*
X98027180Y-51947324D01*
X98246961Y-51947324D01*
X98269370Y-51947438D01*
G37*
G36*
X96582555Y-52668402D02*
G01*
X96234364Y-53700630D01*
X96128178Y-54009310D01*
X95898519Y-54016719D01*
X95866697Y-54017527D01*
X95837830Y-54018088D01*
X95811806Y-54018390D01*
X95788513Y-54018416D01*
X95767840Y-54018154D01*
X95758450Y-54017909D01*
X95749673Y-54017587D01*
X95741494Y-54017185D01*
X95733900Y-54016702D01*
X95726877Y-54016135D01*
X95720411Y-54015484D01*
X95714487Y-54014746D01*
X95709092Y-54013919D01*
X95704211Y-54013002D01*
X95699831Y-54011992D01*
X95695937Y-54010888D01*
X95692516Y-54009689D01*
X95689553Y-54008392D01*
X95687035Y-54006995D01*
X95684947Y-54005497D01*
X95683276Y-54003896D01*
X95682592Y-54003057D01*
X95682007Y-54002191D01*
X95681519Y-54001298D01*
X95681126Y-54000378D01*
X95680828Y-53999431D01*
X95680620Y-53998457D01*
X95680475Y-53996425D01*
X95680675Y-53994282D01*
X95681209Y-53992024D01*
X96034339Y-52952388D01*
X96377592Y-51947324D01*
X96829500Y-51947324D01*
X96582555Y-52668402D01*
G37*
G36*
X96278814Y-52001652D02*
G01*
X96267748Y-52037030D01*
X96257539Y-52068327D01*
X96247945Y-52095804D01*
X96238724Y-52119722D01*
X96234177Y-52130428D01*
X96229633Y-52140341D01*
X96225061Y-52149495D01*
X96220430Y-52157922D01*
X96215711Y-52165654D01*
X96210872Y-52172724D01*
X96205885Y-52179165D01*
X96200718Y-52185008D01*
X96195341Y-52190288D01*
X96189724Y-52195036D01*
X96183837Y-52199284D01*
X96177649Y-52203066D01*
X96171130Y-52206414D01*
X96164249Y-52209360D01*
X96156978Y-52211938D01*
X96149284Y-52214179D01*
X96141138Y-52216116D01*
X96132510Y-52217782D01*
X96113684Y-52220429D01*
X96092566Y-52222383D01*
X96068911Y-52223902D01*
X95942970Y-52231310D01*
X95639228Y-53120310D01*
X95337956Y-54009310D01*
X95113236Y-54016719D01*
X95024606Y-54018108D01*
X94952414Y-54018571D01*
X94924724Y-54018455D01*
X94903835Y-54018108D01*
X94890644Y-54017529D01*
X94887215Y-54017153D01*
X94886342Y-54016943D01*
X94886047Y-54016719D01*
X94973095Y-53754957D01*
X95182381Y-53137596D01*
X95297441Y-52796119D01*
X95391666Y-52513444D01*
X95455331Y-52318744D01*
X95472666Y-52263500D01*
X95478714Y-52241188D01*
X95478570Y-52240038D01*
X95478144Y-52238904D01*
X95477442Y-52237787D01*
X95476471Y-52236688D01*
X95473749Y-52234552D01*
X95470032Y-52232507D01*
X95465375Y-52230562D01*
X95459831Y-52228730D01*
X95453456Y-52227021D01*
X95446302Y-52225446D01*
X95438426Y-52224015D01*
X95429880Y-52222740D01*
X95420719Y-52221631D01*
X95410997Y-52220700D01*
X95400769Y-52219956D01*
X95390089Y-52219412D01*
X95379011Y-52219077D01*
X95367589Y-52218963D01*
X95356167Y-52218850D01*
X95345089Y-52218520D01*
X95334409Y-52217987D01*
X95324181Y-52217266D01*
X95314459Y-52216371D01*
X95305298Y-52215317D01*
X95296752Y-52214118D01*
X95288875Y-52212790D01*
X95281722Y-52211345D01*
X95275346Y-52209799D01*
X95269803Y-52208167D01*
X95265146Y-52206462D01*
X95263166Y-52205587D01*
X95261429Y-52204699D01*
X95259940Y-52203800D01*
X95258707Y-52202893D01*
X95257736Y-52201978D01*
X95257034Y-52201057D01*
X95256608Y-52200133D01*
X95256464Y-52199208D01*
X95256663Y-52196353D01*
X95257250Y-52192460D01*
X95259512Y-52181806D01*
X95263105Y-52167737D01*
X95267885Y-52150745D01*
X95273707Y-52131322D01*
X95280425Y-52109960D01*
X95287896Y-52087152D01*
X95295975Y-52063388D01*
X95335486Y-51947324D01*
X96296100Y-51947324D01*
X96278814Y-52001652D01*
G37*
G36*
X102025615Y-51932506D02*
G01*
X102062253Y-51934051D01*
X102098196Y-51936899D01*
X102133104Y-51941030D01*
X102166638Y-51946428D01*
X102198458Y-51953073D01*
X102228223Y-51960949D01*
X102255593Y-51970036D01*
X102280228Y-51980318D01*
X102301789Y-51991774D01*
X102323989Y-52005338D01*
X102343383Y-52019367D01*
X102359999Y-52034157D01*
X102373865Y-52049999D01*
X102379777Y-52058407D01*
X102385012Y-52067187D01*
X102389574Y-52076377D01*
X102393467Y-52086014D01*
X102396694Y-52096133D01*
X102399259Y-52106772D01*
X102402418Y-52129755D01*
X102402973Y-52155255D01*
X102400952Y-52183566D01*
X102396385Y-52214981D01*
X102389300Y-52249793D01*
X102379726Y-52288294D01*
X102367692Y-52330778D01*
X102353228Y-52377538D01*
X102336361Y-52428866D01*
X102252400Y-52675810D01*
X102052375Y-52683219D01*
X102031788Y-52684002D01*
X102011769Y-52684506D01*
X101992423Y-52684743D01*
X101973854Y-52684724D01*
X101956168Y-52684458D01*
X101939470Y-52683957D01*
X101923864Y-52683231D01*
X101909456Y-52682293D01*
X101896349Y-52681151D01*
X101884650Y-52679818D01*
X101874463Y-52678305D01*
X101865893Y-52676621D01*
X101859045Y-52674778D01*
X101856299Y-52673800D01*
X101854023Y-52672786D01*
X101852230Y-52671738D01*
X101850934Y-52670657D01*
X101850146Y-52669545D01*
X101849880Y-52668402D01*
X101851115Y-52660208D01*
X101854665Y-52645444D01*
X101860298Y-52624950D01*
X101867784Y-52599566D01*
X101887385Y-52537483D01*
X101899038Y-52502462D01*
X101911616Y-52465908D01*
X101924668Y-52426916D01*
X101936045Y-52392196D01*
X101945751Y-52361506D01*
X101949979Y-52347596D01*
X101953790Y-52334603D01*
X101957185Y-52322496D01*
X101960164Y-52311245D01*
X101962728Y-52300820D01*
X101964878Y-52291190D01*
X101966614Y-52282325D01*
X101967935Y-52274195D01*
X101968844Y-52266769D01*
X101969340Y-52260018D01*
X101969423Y-52253910D01*
X101969094Y-52248416D01*
X101968354Y-52243506D01*
X101967830Y-52241260D01*
X101967203Y-52239148D01*
X101966473Y-52237167D01*
X101965641Y-52235313D01*
X101964706Y-52233582D01*
X101963669Y-52231971D01*
X101962530Y-52230475D01*
X101961288Y-52229090D01*
X101959944Y-52227814D01*
X101958497Y-52226642D01*
X101956948Y-52225570D01*
X101955298Y-52224595D01*
X101951690Y-52222919D01*
X101947674Y-52221584D01*
X101943251Y-52220560D01*
X101938421Y-52219816D01*
X101933184Y-52219322D01*
X101927542Y-52219048D01*
X101921494Y-52218963D01*
X101918499Y-52219043D01*
X101915532Y-52219281D01*
X101912595Y-52219677D01*
X101909687Y-52220232D01*
X101906807Y-52220943D01*
X101903957Y-52221812D01*
X101898343Y-52224018D01*
X101892845Y-52226846D01*
X101887462Y-52230293D01*
X101882195Y-52234354D01*
X101877044Y-52239027D01*
X101872009Y-52244308D01*
X101867089Y-52250193D01*
X101862285Y-52256678D01*
X101857597Y-52263760D01*
X101853025Y-52271436D01*
X101848568Y-52279701D01*
X101844227Y-52288552D01*
X101840002Y-52297985D01*
X101743540Y-52568621D01*
X101579476Y-53048079D01*
X101424673Y-53509942D01*
X101374763Y-53663521D01*
X101355991Y-53727794D01*
X101356247Y-53730695D01*
X101356997Y-53733380D01*
X101358213Y-53735850D01*
X101359869Y-53738105D01*
X101361937Y-53740148D01*
X101364391Y-53741977D01*
X101367202Y-53743595D01*
X101370345Y-53745003D01*
X101373791Y-53746200D01*
X101377515Y-53747189D01*
X101381487Y-53747969D01*
X101385683Y-53748543D01*
X101394632Y-53749072D01*
X101404146Y-53748784D01*
X101414006Y-53747685D01*
X101423998Y-53745784D01*
X101433902Y-53743087D01*
X101443502Y-53739601D01*
X101448121Y-53737564D01*
X101452582Y-53735333D01*
X101456859Y-53732909D01*
X101460924Y-53730292D01*
X101464750Y-53727483D01*
X101468310Y-53724484D01*
X101471578Y-53721294D01*
X101474525Y-53717916D01*
X101479500Y-53709651D01*
X101486775Y-53694746D01*
X101506782Y-53648771D01*
X101531650Y-53587518D01*
X101558486Y-53518508D01*
X101584396Y-53449267D01*
X101606485Y-53387319D01*
X101621862Y-53340187D01*
X101626128Y-53324529D01*
X101627630Y-53315396D01*
X101627580Y-53314933D01*
X101627431Y-53314471D01*
X101627186Y-53314011D01*
X101626849Y-53313554D01*
X101625905Y-53312651D01*
X101624620Y-53311769D01*
X101623018Y-53310917D01*
X101621119Y-53310101D01*
X101618945Y-53309328D01*
X101616518Y-53308606D01*
X101613859Y-53307941D01*
X101610990Y-53307342D01*
X101607934Y-53306815D01*
X101604711Y-53306368D01*
X101601343Y-53306007D01*
X101597852Y-53305741D01*
X101594260Y-53305575D01*
X101590588Y-53305519D01*
X101582370Y-53305148D01*
X101575314Y-53303942D01*
X101569422Y-53301759D01*
X101566914Y-53300257D01*
X101564698Y-53298458D01*
X101562775Y-53296344D01*
X101561146Y-53293898D01*
X101559811Y-53291102D01*
X101558770Y-53287938D01*
X101557574Y-53280438D01*
X101557560Y-53271255D01*
X101558732Y-53260249D01*
X101561095Y-53247279D01*
X101564652Y-53232204D01*
X101569405Y-53214882D01*
X101575360Y-53195173D01*
X101582519Y-53172936D01*
X101600466Y-53120310D01*
X101644916Y-52996838D01*
X101874575Y-52989430D01*
X101920939Y-52988846D01*
X101964902Y-52988928D01*
X102005450Y-52989647D01*
X102041571Y-52990973D01*
X102072251Y-52992878D01*
X102085234Y-52994039D01*
X102096477Y-52995333D01*
X102105854Y-52996758D01*
X102113238Y-52998309D01*
X102118502Y-52999983D01*
X102120299Y-53000865D01*
X102121519Y-53001777D01*
X102122458Y-53006217D01*
X102121625Y-53015653D01*
X102114959Y-53048426D01*
X102102159Y-53097926D01*
X102083860Y-53161982D01*
X102033314Y-53325081D01*
X101968414Y-53520360D01*
X101793083Y-54021658D01*
X101686897Y-54021658D01*
X101672654Y-54021541D01*
X101659540Y-54021185D01*
X101653397Y-54020915D01*
X101647526Y-54020583D01*
X101641922Y-54020188D01*
X101636582Y-54019728D01*
X101631503Y-54019204D01*
X101626680Y-54018613D01*
X101622111Y-54017955D01*
X101617791Y-54017230D01*
X101613717Y-54016436D01*
X101609886Y-54015572D01*
X101606293Y-54014638D01*
X101602936Y-54013632D01*
X101599810Y-54012554D01*
X101596912Y-54011402D01*
X101594238Y-54010177D01*
X101591785Y-54008876D01*
X101589549Y-54007500D01*
X101587526Y-54006046D01*
X101585713Y-54004515D01*
X101584106Y-54002905D01*
X101582702Y-54001216D01*
X101581497Y-53999446D01*
X101580487Y-53997594D01*
X101579669Y-53995661D01*
X101579039Y-53993644D01*
X101578594Y-53991543D01*
X101578329Y-53989357D01*
X101578241Y-53987085D01*
X101577771Y-53976203D01*
X101577175Y-53971281D01*
X101576331Y-53966703D01*
X101575235Y-53962469D01*
X101573879Y-53958577D01*
X101572259Y-53955027D01*
X101570370Y-53951819D01*
X101568206Y-53948950D01*
X101565761Y-53946420D01*
X101563031Y-53944229D01*
X101560010Y-53942375D01*
X101556692Y-53940857D01*
X101553072Y-53939675D01*
X101549144Y-53938828D01*
X101544904Y-53938314D01*
X101540345Y-53938133D01*
X101535462Y-53938284D01*
X101524704Y-53939577D01*
X101512586Y-53942188D01*
X101499065Y-53946108D01*
X101484096Y-53951330D01*
X101467637Y-53957847D01*
X101449644Y-53965652D01*
X101430075Y-53974738D01*
X101401522Y-53987877D01*
X101374126Y-53999519D01*
X101347773Y-54009671D01*
X101322345Y-54018339D01*
X101297728Y-54025532D01*
X101273805Y-54031256D01*
X101250461Y-54035518D01*
X101227580Y-54038326D01*
X101205047Y-54039688D01*
X101182745Y-54039609D01*
X101160558Y-54038098D01*
X101138372Y-54035162D01*
X101116070Y-54030808D01*
X101093536Y-54025043D01*
X101070655Y-54017875D01*
X101047311Y-54009310D01*
X101025974Y-54000907D01*
X101006382Y-53992318D01*
X100988482Y-53983477D01*
X100972224Y-53974314D01*
X100964696Y-53969590D01*
X100957558Y-53964760D01*
X100950807Y-53959815D01*
X100944434Y-53954746D01*
X100938433Y-53949546D01*
X100932799Y-53944205D01*
X100927525Y-53938714D01*
X100922604Y-53933066D01*
X100918031Y-53927252D01*
X100913798Y-53921262D01*
X100909900Y-53915089D01*
X100906331Y-53908724D01*
X100903083Y-53902158D01*
X100900151Y-53895383D01*
X100897528Y-53888389D01*
X100895209Y-53881169D01*
X100893185Y-53873714D01*
X100891453Y-53866016D01*
X100890004Y-53858065D01*
X100888832Y-53849853D01*
X100887297Y-53832612D01*
X100886797Y-53814224D01*
X100892497Y-53781674D01*
X100908665Y-53720974D01*
X100966822Y-53531241D01*
X101147323Y-52991282D01*
X101338937Y-52452249D01*
X101410985Y-52263674D01*
X101436182Y-52203726D01*
X101452299Y-52172044D01*
X101466921Y-52152621D01*
X101482106Y-52134153D01*
X101497900Y-52116611D01*
X101514344Y-52099967D01*
X101531483Y-52084190D01*
X101549360Y-52069253D01*
X101568019Y-52055126D01*
X101587502Y-52041781D01*
X101607853Y-52029187D01*
X101629116Y-52017318D01*
X101651333Y-52006142D01*
X101674550Y-51995633D01*
X101698808Y-51985760D01*
X101724151Y-51976495D01*
X101750623Y-51967808D01*
X101778266Y-51959672D01*
X101810245Y-51951595D01*
X101843909Y-51944947D01*
X101878919Y-51939709D01*
X101914935Y-51935865D01*
X101951616Y-51933395D01*
X101988623Y-51932281D01*
X102025615Y-51932506D01*
G37*
G36*
X97510979Y-51929050D02*
G01*
X97548108Y-51933125D01*
X97583617Y-51939226D01*
X97617340Y-51947324D01*
X97649108Y-51957390D01*
X97664208Y-51963152D01*
X97678757Y-51969395D01*
X97692735Y-51976115D01*
X97706120Y-51983310D01*
X97718892Y-51990974D01*
X97731030Y-51999106D01*
X97742514Y-52007700D01*
X97753322Y-52016753D01*
X97763433Y-52026263D01*
X97772828Y-52036224D01*
X97784919Y-52051496D01*
X97795246Y-52066953D01*
X97803778Y-52082894D01*
X97810487Y-52099620D01*
X97815344Y-52117431D01*
X97818320Y-52136628D01*
X97819385Y-52157510D01*
X97818512Y-52180378D01*
X97815672Y-52205533D01*
X97810834Y-52233274D01*
X97803971Y-52263901D01*
X97795053Y-52297715D01*
X97784051Y-52335017D01*
X97770937Y-52376106D01*
X97738255Y-52470847D01*
X97669111Y-52663463D01*
X97259183Y-52663463D01*
X97330797Y-52463438D01*
X97346033Y-52423199D01*
X97360083Y-52384609D01*
X97372686Y-52348624D01*
X97383581Y-52316198D01*
X97392509Y-52288286D01*
X97399208Y-52265844D01*
X97403419Y-52249827D01*
X97404510Y-52244525D01*
X97404881Y-52241188D01*
X97404802Y-52240038D01*
X97404568Y-52238904D01*
X97404183Y-52237787D01*
X97403651Y-52236688D01*
X97402976Y-52235610D01*
X97402162Y-52234552D01*
X97400135Y-52232507D01*
X97397601Y-52230562D01*
X97394593Y-52228730D01*
X97391144Y-52227021D01*
X97387286Y-52225446D01*
X97383052Y-52224015D01*
X97378474Y-52222740D01*
X97373585Y-52221631D01*
X97368418Y-52220700D01*
X97363004Y-52219956D01*
X97357378Y-52219412D01*
X97351570Y-52219077D01*
X97345614Y-52218963D01*
X97337535Y-52219200D01*
X97329944Y-52219928D01*
X97322808Y-52221177D01*
X97319402Y-52222006D01*
X97316096Y-52222976D01*
X97312889Y-52224091D01*
X97309775Y-52225354D01*
X97306751Y-52226769D01*
X97303812Y-52228339D01*
X97300954Y-52230069D01*
X97298174Y-52231962D01*
X97295467Y-52234020D01*
X97292830Y-52236249D01*
X97290257Y-52238652D01*
X97287745Y-52241232D01*
X97285291Y-52243992D01*
X97282889Y-52246937D01*
X97278228Y-52253396D01*
X97273730Y-52260635D01*
X97269362Y-52268685D01*
X97265092Y-52277574D01*
X97260886Y-52287331D01*
X97256714Y-52297985D01*
X97138605Y-52638962D01*
X96982297Y-53107037D01*
X96845898Y-53525569D01*
X96803325Y-53661056D01*
X96787519Y-53717916D01*
X96787577Y-53719963D01*
X96787750Y-53721938D01*
X96788038Y-53723839D01*
X96788441Y-53725667D01*
X96788957Y-53727420D01*
X96789587Y-53729099D01*
X96790329Y-53730703D01*
X96791185Y-53732231D01*
X96792152Y-53733683D01*
X96793232Y-53735059D01*
X96794422Y-53736358D01*
X96795724Y-53737580D01*
X96797135Y-53738724D01*
X96798657Y-53739789D01*
X96800288Y-53740776D01*
X96802027Y-53741684D01*
X96803876Y-53742513D01*
X96805832Y-53743261D01*
X96810068Y-53744516D01*
X96814730Y-53745445D01*
X96819815Y-53746044D01*
X96825320Y-53746312D01*
X96831241Y-53746242D01*
X96837574Y-53745833D01*
X96844317Y-53745080D01*
X96852438Y-53743219D01*
X96860209Y-53740266D01*
X96867741Y-53735997D01*
X96875146Y-53730186D01*
X96882537Y-53722610D01*
X96890026Y-53713045D01*
X96897724Y-53701265D01*
X96905744Y-53687048D01*
X96914199Y-53670168D01*
X96923199Y-53650402D01*
X96943287Y-53601312D01*
X96966906Y-53537984D01*
X96994953Y-53458624D01*
X97088792Y-53182047D01*
X97283878Y-53182047D01*
X97311300Y-53182136D01*
X97336218Y-53182418D01*
X97358735Y-53182909D01*
X97378951Y-53183629D01*
X97388228Y-53184079D01*
X97396968Y-53184594D01*
X97405183Y-53185174D01*
X97412887Y-53185823D01*
X97420091Y-53186542D01*
X97426809Y-53187335D01*
X97433053Y-53188202D01*
X97438835Y-53189146D01*
X97444169Y-53190170D01*
X97449068Y-53191276D01*
X97453543Y-53192466D01*
X97457607Y-53193743D01*
X97461273Y-53195108D01*
X97464555Y-53196564D01*
X97467463Y-53198113D01*
X97470012Y-53199757D01*
X97472213Y-53201499D01*
X97474080Y-53203341D01*
X97475625Y-53205285D01*
X97476861Y-53207334D01*
X97477800Y-53209490D01*
X97478455Y-53211754D01*
X97478839Y-53214130D01*
X97478964Y-53216619D01*
X97476984Y-53231198D01*
X97471348Y-53254659D01*
X97450912Y-53323229D01*
X97421274Y-53412346D01*
X97386051Y-53512026D01*
X97348860Y-53612284D01*
X97313318Y-53703138D01*
X97283043Y-53774602D01*
X97271011Y-53799943D01*
X97261653Y-53816693D01*
X97250419Y-53831153D01*
X97234638Y-53846597D01*
X97214799Y-53862793D01*
X97191389Y-53879510D01*
X97164898Y-53896516D01*
X97135812Y-53913581D01*
X97104622Y-53930471D01*
X97071814Y-53946957D01*
X97037878Y-53962806D01*
X97003302Y-53977786D01*
X96968573Y-53991667D01*
X96934181Y-54004217D01*
X96900614Y-54015204D01*
X96868360Y-54024397D01*
X96837907Y-54031564D01*
X96809745Y-54036474D01*
X96781233Y-54039408D01*
X96751467Y-54040849D01*
X96720752Y-54040864D01*
X96689398Y-54039522D01*
X96657710Y-54036893D01*
X96625998Y-54033045D01*
X96594567Y-54028046D01*
X96563726Y-54021966D01*
X96533782Y-54014873D01*
X96505043Y-54006836D01*
X96477816Y-53997924D01*
X96452408Y-53988204D01*
X96429128Y-53977747D01*
X96408281Y-53966621D01*
X96390177Y-53954894D01*
X96382249Y-53948827D01*
X96375122Y-53942635D01*
X96368380Y-53936011D01*
X96362047Y-53929111D01*
X96356126Y-53921951D01*
X96350621Y-53914546D01*
X96345535Y-53906908D01*
X96340873Y-53899054D01*
X96336638Y-53890997D01*
X96332833Y-53882751D01*
X96329462Y-53874333D01*
X96326529Y-53865755D01*
X96324038Y-53857032D01*
X96321991Y-53848179D01*
X96320392Y-53839210D01*
X96319246Y-53830141D01*
X96318556Y-53820984D01*
X96318325Y-53811755D01*
X96323253Y-53781638D01*
X96337261Y-53726048D01*
X96387855Y-53552540D01*
X96546749Y-53054870D01*
X96720459Y-52544235D01*
X96789574Y-52354522D01*
X96834439Y-52246127D01*
X96844049Y-52229110D01*
X96855984Y-52210696D01*
X96869909Y-52191227D01*
X96885487Y-52171041D01*
X96902382Y-52150478D01*
X96920257Y-52129880D01*
X96938776Y-52109585D01*
X96957603Y-52089935D01*
X96976400Y-52071268D01*
X96994832Y-52053925D01*
X97012563Y-52038246D01*
X97029255Y-52024572D01*
X97044573Y-52013241D01*
X97058179Y-52004594D01*
X97064236Y-52001384D01*
X97069739Y-51998972D01*
X97074645Y-51997401D01*
X97078914Y-51996713D01*
X97127994Y-51984675D01*
X97170939Y-51973446D01*
X97194886Y-51966834D01*
X97219672Y-51959672D01*
X97263487Y-51948757D01*
X97306845Y-51940070D01*
X97349582Y-51933583D01*
X97391530Y-51929267D01*
X97432523Y-51927091D01*
X97472395Y-51927029D01*
X97510979Y-51929050D01*
G37*
G36*
X94774213Y-51934061D02*
G01*
X94820318Y-51938089D01*
X94864748Y-51944238D01*
X94906950Y-51952412D01*
X94946370Y-51962517D01*
X94982455Y-51974461D01*
X94999074Y-51981092D01*
X95014651Y-51988147D01*
X95029118Y-51995615D01*
X95042406Y-52003484D01*
X95054444Y-52011741D01*
X95065164Y-52020376D01*
X95074497Y-52029375D01*
X95082374Y-52038729D01*
X95088725Y-52048424D01*
X95093481Y-52058449D01*
X95098514Y-52073085D01*
X95102490Y-52088367D01*
X95105396Y-52104424D01*
X95107217Y-52121382D01*
X95107938Y-52139366D01*
X95107545Y-52158505D01*
X95106023Y-52178925D01*
X95103358Y-52200751D01*
X95099536Y-52224111D01*
X95094542Y-52249132D01*
X95088361Y-52275940D01*
X95080979Y-52304661D01*
X95062555Y-52368350D01*
X95039153Y-52441213D01*
X94967539Y-52651116D01*
X94767514Y-52658524D01*
X94746927Y-52659307D01*
X94726908Y-52659812D01*
X94707562Y-52660049D01*
X94688993Y-52660029D01*
X94671308Y-52659763D01*
X94654609Y-52659262D01*
X94639003Y-52658537D01*
X94624595Y-52657598D01*
X94611489Y-52656457D01*
X94599790Y-52655124D01*
X94589602Y-52653610D01*
X94581032Y-52651926D01*
X94574184Y-52650083D01*
X94571438Y-52649105D01*
X94569163Y-52648092D01*
X94567370Y-52647044D01*
X94566073Y-52645963D01*
X94565285Y-52644850D01*
X94565020Y-52643708D01*
X94566254Y-52635513D01*
X94569804Y-52620749D01*
X94575438Y-52600256D01*
X94582923Y-52574872D01*
X94602524Y-52512789D01*
X94614177Y-52477768D01*
X94626756Y-52441213D01*
X94651879Y-52367853D01*
X94661759Y-52338173D01*
X94669855Y-52312725D01*
X94673236Y-52301486D01*
X94676172Y-52291184D01*
X94678664Y-52281776D01*
X94680712Y-52273224D01*
X94682317Y-52265485D01*
X94683480Y-52258519D01*
X94684200Y-52252286D01*
X94684479Y-52246745D01*
X94684316Y-52241854D01*
X94683713Y-52237575D01*
X94682669Y-52233864D01*
X94681982Y-52232210D01*
X94681185Y-52230683D01*
X94680278Y-52229279D01*
X94679261Y-52227991D01*
X94678135Y-52226815D01*
X94676899Y-52225746D01*
X94674098Y-52223908D01*
X94670858Y-52222436D01*
X94667182Y-52221290D01*
X94663067Y-52220428D01*
X94658516Y-52219811D01*
X94653529Y-52219397D01*
X94642247Y-52219018D01*
X94629225Y-52218963D01*
X94622997Y-52219259D01*
X94616816Y-52220140D01*
X94610688Y-52221600D01*
X94604618Y-52223632D01*
X94598608Y-52226228D01*
X94592665Y-52229381D01*
X94580994Y-52237330D01*
X94569641Y-52247420D01*
X94558643Y-52259593D01*
X94548036Y-52273793D01*
X94537856Y-52289960D01*
X94528138Y-52308037D01*
X94518920Y-52327966D01*
X94510237Y-52349689D01*
X94502126Y-52373149D01*
X94494622Y-52398287D01*
X94487763Y-52425046D01*
X94481583Y-52453367D01*
X94476120Y-52483194D01*
X94473342Y-52503321D01*
X94471610Y-52522319D01*
X94471101Y-52540623D01*
X94471991Y-52558666D01*
X94474459Y-52576883D01*
X94478681Y-52595708D01*
X94484834Y-52615574D01*
X94493097Y-52636917D01*
X94503646Y-52660169D01*
X94516658Y-52685765D01*
X94532311Y-52714140D01*
X94550782Y-52745727D01*
X94596886Y-52820273D01*
X94656389Y-52912877D01*
X94681719Y-52953437D01*
X94704032Y-52991142D01*
X94723379Y-53026438D01*
X94739810Y-53059770D01*
X94753376Y-53091583D01*
X94764128Y-53122322D01*
X94772117Y-53152431D01*
X94775090Y-53167388D01*
X94777392Y-53182355D01*
X94779028Y-53197387D01*
X94780005Y-53212540D01*
X94780006Y-53243431D01*
X94777446Y-53275471D01*
X94772376Y-53309107D01*
X94764846Y-53344783D01*
X94754906Y-53382944D01*
X94742609Y-53424036D01*
X94728003Y-53468502D01*
X94711139Y-53517964D01*
X94694723Y-53563696D01*
X94678626Y-53605905D01*
X94662717Y-53644797D01*
X94646866Y-53680578D01*
X94630942Y-53713455D01*
X94614816Y-53743632D01*
X94598357Y-53771318D01*
X94589962Y-53784290D01*
X94581435Y-53796717D01*
X94572760Y-53808624D01*
X94563920Y-53820036D01*
X94554899Y-53830980D01*
X94545681Y-53841482D01*
X94536250Y-53851566D01*
X94526589Y-53861259D01*
X94516682Y-53870587D01*
X94506513Y-53879576D01*
X94496065Y-53888250D01*
X94485322Y-53896637D01*
X94462887Y-53912649D01*
X94439078Y-53927819D01*
X94408425Y-53945764D01*
X94376746Y-53962108D01*
X94344172Y-53976871D01*
X94310836Y-53990071D01*
X94276868Y-54001728D01*
X94242401Y-54011862D01*
X94207565Y-54020493D01*
X94172494Y-54027638D01*
X94137317Y-54033319D01*
X94102167Y-54037554D01*
X94067175Y-54040363D01*
X94032473Y-54041765D01*
X93998193Y-54041780D01*
X93964465Y-54040427D01*
X93931422Y-54037726D01*
X93899196Y-54033696D01*
X93867917Y-54028356D01*
X93837717Y-54021727D01*
X93808728Y-54013827D01*
X93781082Y-54004675D01*
X93754910Y-53994292D01*
X93730343Y-53982697D01*
X93707514Y-53969909D01*
X93686553Y-53955947D01*
X93667593Y-53940832D01*
X93650765Y-53924582D01*
X93636201Y-53907217D01*
X93624031Y-53888756D01*
X93614388Y-53869219D01*
X93607404Y-53848626D01*
X93603209Y-53826995D01*
X93601936Y-53804346D01*
X93602420Y-53796070D01*
X93603841Y-53785252D01*
X93609306Y-53756694D01*
X93617954Y-53720091D01*
X93629409Y-53676861D01*
X93643295Y-53628423D01*
X93659235Y-53576193D01*
X93676854Y-53521590D01*
X93695775Y-53466033D01*
X93787145Y-53194394D01*
X93992108Y-53186985D01*
X94032714Y-53185471D01*
X94070629Y-53184593D01*
X94105013Y-53184294D01*
X94135028Y-53184516D01*
X94159833Y-53185201D01*
X94170020Y-53185699D01*
X94178590Y-53186291D01*
X94185438Y-53186970D01*
X94190460Y-53187728D01*
X94193550Y-53188559D01*
X94194337Y-53188999D01*
X94194603Y-53189455D01*
X94193040Y-53195672D01*
X94188584Y-53210021D01*
X94172378Y-53259525D01*
X94120520Y-53416644D01*
X94102783Y-53470354D01*
X94087549Y-53518619D01*
X94074832Y-53561611D01*
X94069423Y-53581182D01*
X94064648Y-53599498D01*
X94060510Y-53616581D01*
X94057011Y-53632452D01*
X94054152Y-53647131D01*
X94051935Y-53660641D01*
X94050361Y-53673002D01*
X94049434Y-53684237D01*
X94049154Y-53694365D01*
X94049523Y-53703408D01*
X94050543Y-53711388D01*
X94052217Y-53718325D01*
X94054545Y-53724242D01*
X94055955Y-53726824D01*
X94057530Y-53729159D01*
X94059269Y-53731249D01*
X94061172Y-53733097D01*
X94063241Y-53734706D01*
X94065476Y-53736078D01*
X94067875Y-53737216D01*
X94070441Y-53738123D01*
X94073172Y-53738801D01*
X94076070Y-53739253D01*
X94082364Y-53739490D01*
X94089326Y-53738855D01*
X94096957Y-53737369D01*
X94105259Y-53735052D01*
X94114234Y-53731928D01*
X94123884Y-53728016D01*
X94134210Y-53723338D01*
X94145214Y-53717916D01*
X94152157Y-53713782D01*
X94159085Y-53708805D01*
X94165985Y-53703010D01*
X94172841Y-53696424D01*
X94179639Y-53689070D01*
X94186365Y-53680975D01*
X94193004Y-53672164D01*
X94199542Y-53662662D01*
X94205964Y-53652494D01*
X94212256Y-53641686D01*
X94218403Y-53630263D01*
X94224391Y-53618251D01*
X94230205Y-53605674D01*
X94235831Y-53592558D01*
X94241255Y-53578928D01*
X94246461Y-53564810D01*
X94259351Y-53526698D01*
X94270167Y-53491658D01*
X94278806Y-53459171D01*
X94285162Y-53428721D01*
X94289131Y-53399790D01*
X94290607Y-53371861D01*
X94290378Y-53358110D01*
X94289487Y-53344417D01*
X94287920Y-53330715D01*
X94285664Y-53316940D01*
X94282706Y-53303028D01*
X94279034Y-53288913D01*
X94269492Y-53259819D01*
X94256933Y-53229141D01*
X94241252Y-53196362D01*
X94222345Y-53160963D01*
X94200106Y-53122428D01*
X94174431Y-53080239D01*
X94145214Y-53033880D01*
X94115224Y-52985591D01*
X94086796Y-52937880D01*
X94060568Y-52892022D01*
X94037176Y-52849289D01*
X94017256Y-52810955D01*
X94001446Y-52778292D01*
X93995281Y-52764486D01*
X93990382Y-52752575D01*
X93986828Y-52742719D01*
X93984700Y-52735077D01*
X93982840Y-52718588D01*
X93983591Y-52696463D01*
X93986730Y-52669433D01*
X93992031Y-52638229D01*
X93999272Y-52603580D01*
X94008227Y-52566219D01*
X94030385Y-52486281D01*
X94056710Y-52404258D01*
X94070874Y-52364293D01*
X94085407Y-52325998D01*
X94100085Y-52290106D01*
X94114684Y-52257346D01*
X94128978Y-52228449D01*
X94142745Y-52204147D01*
X94156368Y-52183170D01*
X94171283Y-52162851D01*
X94187450Y-52143212D01*
X94204828Y-52124275D01*
X94223378Y-52106062D01*
X94243061Y-52088594D01*
X94263836Y-52071893D01*
X94285664Y-52055980D01*
X94308504Y-52040877D01*
X94332318Y-52026607D01*
X94357065Y-52013190D01*
X94382705Y-52000649D01*
X94409199Y-51989005D01*
X94436507Y-51978279D01*
X94464589Y-51968494D01*
X94493406Y-51959672D01*
X94515431Y-51953998D01*
X94537937Y-51949006D01*
X94584114Y-51941025D01*
X94631384Y-51935634D01*
X94679193Y-51932739D01*
X94726987Y-51932246D01*
X94774213Y-51934061D01*
G37*
D11*
X81479007Y-67202787D02*
X80479007Y-67202787D01*
X81479007Y-66774216D02*
X80955197Y-66774216D01*
X80955197Y-66774216D02*
X80859959Y-66821835D01*
X80859959Y-66821835D02*
X80812340Y-66917073D01*
X80812340Y-66917073D02*
X80812340Y-67059930D01*
X80812340Y-67059930D02*
X80859959Y-67155168D01*
X80859959Y-67155168D02*
X80907578Y-67202787D01*
X81431388Y-66345644D02*
X81479007Y-66250406D01*
X81479007Y-66250406D02*
X81479007Y-66059930D01*
X81479007Y-66059930D02*
X81431388Y-65964692D01*
X81431388Y-65964692D02*
X81336149Y-65917073D01*
X81336149Y-65917073D02*
X81288530Y-65917073D01*
X81288530Y-65917073D02*
X81193292Y-65964692D01*
X81193292Y-65964692D02*
X81145673Y-66059930D01*
X81145673Y-66059930D02*
X81145673Y-66202787D01*
X81145673Y-66202787D02*
X81098054Y-66298025D01*
X81098054Y-66298025D02*
X81002816Y-66345644D01*
X81002816Y-66345644D02*
X80955197Y-66345644D01*
X80955197Y-66345644D02*
X80859959Y-66298025D01*
X80859959Y-66298025D02*
X80812340Y-66202787D01*
X80812340Y-66202787D02*
X80812340Y-66059930D01*
X80812340Y-66059930D02*
X80859959Y-65964692D01*
X80812340Y-65059930D02*
X81479007Y-65059930D01*
X80812340Y-65488501D02*
X81336149Y-65488501D01*
X81336149Y-65488501D02*
X81431388Y-65440882D01*
X81431388Y-65440882D02*
X81479007Y-65345644D01*
X81479007Y-65345644D02*
X81479007Y-65202787D01*
X81479007Y-65202787D02*
X81431388Y-65107549D01*
X81431388Y-65107549D02*
X81383768Y-65059930D01*
X80812340Y-64583739D02*
X81812340Y-64583739D01*
X80859959Y-64583739D02*
X80812340Y-64488501D01*
X80812340Y-64488501D02*
X80812340Y-64298025D01*
X80812340Y-64298025D02*
X80859959Y-64202787D01*
X80859959Y-64202787D02*
X80907578Y-64155168D01*
X80907578Y-64155168D02*
X81002816Y-64107549D01*
X81002816Y-64107549D02*
X81288530Y-64107549D01*
X81288530Y-64107549D02*
X81383768Y-64155168D01*
X81383768Y-64155168D02*
X81431388Y-64202787D01*
X81431388Y-64202787D02*
X81479007Y-64298025D01*
X81479007Y-64298025D02*
X81479007Y-64488501D01*
X81479007Y-64488501D02*
X81431388Y-64583739D01*
X81479007Y-63155168D02*
X81479007Y-63726596D01*
X81479007Y-63440882D02*
X80479007Y-63440882D01*
X80479007Y-63440882D02*
X80621864Y-63536120D01*
X80621864Y-63536120D02*
X80717102Y-63631358D01*
X80717102Y-63631358D02*
X80764721Y-63726596D01*
X84862340Y-66631359D02*
X85671864Y-66631359D01*
X85671864Y-66631359D02*
X85767102Y-66678978D01*
X85767102Y-66678978D02*
X85814721Y-66726597D01*
X85814721Y-66726597D02*
X85862340Y-66821835D01*
X85862340Y-66821835D02*
X85862340Y-66964692D01*
X85862340Y-66964692D02*
X85814721Y-67059930D01*
X85481388Y-66631359D02*
X85529007Y-66726597D01*
X85529007Y-66726597D02*
X85529007Y-66917073D01*
X85529007Y-66917073D02*
X85481388Y-67012311D01*
X85481388Y-67012311D02*
X85433768Y-67059930D01*
X85433768Y-67059930D02*
X85338530Y-67107549D01*
X85338530Y-67107549D02*
X85052816Y-67107549D01*
X85052816Y-67107549D02*
X84957578Y-67059930D01*
X84957578Y-67059930D02*
X84909959Y-67012311D01*
X84909959Y-67012311D02*
X84862340Y-66917073D01*
X84862340Y-66917073D02*
X84862340Y-66726597D01*
X84862340Y-66726597D02*
X84909959Y-66631359D01*
X85529007Y-65726597D02*
X85005197Y-65726597D01*
X85005197Y-65726597D02*
X84909959Y-65774216D01*
X84909959Y-65774216D02*
X84862340Y-65869454D01*
X84862340Y-65869454D02*
X84862340Y-66059930D01*
X84862340Y-66059930D02*
X84909959Y-66155168D01*
X85481388Y-65726597D02*
X85529007Y-65821835D01*
X85529007Y-65821835D02*
X85529007Y-66059930D01*
X85529007Y-66059930D02*
X85481388Y-66155168D01*
X85481388Y-66155168D02*
X85386149Y-66202787D01*
X85386149Y-66202787D02*
X85290911Y-66202787D01*
X85290911Y-66202787D02*
X85195673Y-66155168D01*
X85195673Y-66155168D02*
X85148054Y-66059930D01*
X85148054Y-66059930D02*
X85148054Y-65821835D01*
X85148054Y-65821835D02*
X85100435Y-65726597D01*
X84862340Y-65393263D02*
X84862340Y-65012311D01*
X84529007Y-65250406D02*
X85386149Y-65250406D01*
X85386149Y-65250406D02*
X85481388Y-65202787D01*
X85481388Y-65202787D02*
X85529007Y-65107549D01*
X85529007Y-65107549D02*
X85529007Y-65012311D01*
X85481388Y-64298025D02*
X85529007Y-64393263D01*
X85529007Y-64393263D02*
X85529007Y-64583739D01*
X85529007Y-64583739D02*
X85481388Y-64678977D01*
X85481388Y-64678977D02*
X85386149Y-64726596D01*
X85386149Y-64726596D02*
X85005197Y-64726596D01*
X85005197Y-64726596D02*
X84909959Y-64678977D01*
X84909959Y-64678977D02*
X84862340Y-64583739D01*
X84862340Y-64583739D02*
X84862340Y-64393263D01*
X84862340Y-64393263D02*
X84909959Y-64298025D01*
X84909959Y-64298025D02*
X85005197Y-64250406D01*
X85005197Y-64250406D02*
X85100435Y-64250406D01*
X85100435Y-64250406D02*
X85195673Y-64726596D01*
X85529007Y-63298025D02*
X85529007Y-63869453D01*
X85529007Y-63583739D02*
X84529007Y-63583739D01*
X84529007Y-63583739D02*
X84671864Y-63678977D01*
X84671864Y-63678977D02*
X84767102Y-63774215D01*
X84767102Y-63774215D02*
X84814721Y-63869453D01*
X69945180Y-57961666D02*
X69230895Y-57961666D01*
X69230895Y-57961666D02*
X69088038Y-57914047D01*
X69088038Y-57914047D02*
X68992800Y-57818809D01*
X68992800Y-57818809D02*
X68945180Y-57675952D01*
X68945180Y-57675952D02*
X68945180Y-57580714D01*
X68945180Y-58961666D02*
X68945180Y-58390238D01*
X68945180Y-58675952D02*
X69945180Y-58675952D01*
X69945180Y-58675952D02*
X69802323Y-58580714D01*
X69802323Y-58580714D02*
X69707085Y-58485476D01*
X69707085Y-58485476D02*
X69659466Y-58390238D01*
X89634819Y-63338094D02*
X88634819Y-63338094D01*
X88634819Y-63338094D02*
X88634819Y-63099999D01*
X88634819Y-63099999D02*
X88682438Y-62957142D01*
X88682438Y-62957142D02*
X88777676Y-62861904D01*
X88777676Y-62861904D02*
X88872914Y-62814285D01*
X88872914Y-62814285D02*
X89063390Y-62766666D01*
X89063390Y-62766666D02*
X89206247Y-62766666D01*
X89206247Y-62766666D02*
X89396723Y-62814285D01*
X89396723Y-62814285D02*
X89491961Y-62861904D01*
X89491961Y-62861904D02*
X89587200Y-62957142D01*
X89587200Y-62957142D02*
X89634819Y-63099999D01*
X89634819Y-63099999D02*
X89634819Y-63338094D01*
X88730057Y-62385713D02*
X88682438Y-62338094D01*
X88682438Y-62338094D02*
X88634819Y-62242856D01*
X88634819Y-62242856D02*
X88634819Y-62004761D01*
X88634819Y-62004761D02*
X88682438Y-61909523D01*
X88682438Y-61909523D02*
X88730057Y-61861904D01*
X88730057Y-61861904D02*
X88825295Y-61814285D01*
X88825295Y-61814285D02*
X88920533Y-61814285D01*
X88920533Y-61814285D02*
X89063390Y-61861904D01*
X89063390Y-61861904D02*
X89634819Y-62433332D01*
X89634819Y-62433332D02*
X89634819Y-61814285D01*
X118427010Y-60779819D02*
X118093677Y-60303628D01*
X117855582Y-60779819D02*
X117855582Y-59779819D01*
X117855582Y-59779819D02*
X118236534Y-59779819D01*
X118236534Y-59779819D02*
X118331772Y-59827438D01*
X118331772Y-59827438D02*
X118379391Y-59875057D01*
X118379391Y-59875057D02*
X118427010Y-59970295D01*
X118427010Y-59970295D02*
X118427010Y-60113152D01*
X118427010Y-60113152D02*
X118379391Y-60208390D01*
X118379391Y-60208390D02*
X118331772Y-60256009D01*
X118331772Y-60256009D02*
X118236534Y-60303628D01*
X118236534Y-60303628D02*
X117855582Y-60303628D01*
X118760344Y-59779819D02*
X119427010Y-59779819D01*
X119427010Y-59779819D02*
X118998439Y-60779819D01*
X142481666Y-51794819D02*
X142481666Y-52509104D01*
X142481666Y-52509104D02*
X142434047Y-52651961D01*
X142434047Y-52651961D02*
X142338809Y-52747200D01*
X142338809Y-52747200D02*
X142195952Y-52794819D01*
X142195952Y-52794819D02*
X142100714Y-52794819D01*
X142910238Y-51890057D02*
X142957857Y-51842438D01*
X142957857Y-51842438D02*
X143053095Y-51794819D01*
X143053095Y-51794819D02*
X143291190Y-51794819D01*
X143291190Y-51794819D02*
X143386428Y-51842438D01*
X143386428Y-51842438D02*
X143434047Y-51890057D01*
X143434047Y-51890057D02*
X143481666Y-51985295D01*
X143481666Y-51985295D02*
X143481666Y-52080533D01*
X143481666Y-52080533D02*
X143434047Y-52223390D01*
X143434047Y-52223390D02*
X142862619Y-52794819D01*
X142862619Y-52794819D02*
X143481666Y-52794819D01*
X115871545Y-62572843D02*
X115395354Y-62906176D01*
X115871545Y-63144271D02*
X114871545Y-63144271D01*
X114871545Y-63144271D02*
X114871545Y-62763319D01*
X114871545Y-62763319D02*
X114919164Y-62668081D01*
X114919164Y-62668081D02*
X114966783Y-62620462D01*
X114966783Y-62620462D02*
X115062021Y-62572843D01*
X115062021Y-62572843D02*
X115204878Y-62572843D01*
X115204878Y-62572843D02*
X115300116Y-62620462D01*
X115300116Y-62620462D02*
X115347735Y-62668081D01*
X115347735Y-62668081D02*
X115395354Y-62763319D01*
X115395354Y-62763319D02*
X115395354Y-63144271D01*
X115300116Y-62001414D02*
X115252497Y-62096652D01*
X115252497Y-62096652D02*
X115204878Y-62144271D01*
X115204878Y-62144271D02*
X115109640Y-62191890D01*
X115109640Y-62191890D02*
X115062021Y-62191890D01*
X115062021Y-62191890D02*
X114966783Y-62144271D01*
X114966783Y-62144271D02*
X114919164Y-62096652D01*
X114919164Y-62096652D02*
X114871545Y-62001414D01*
X114871545Y-62001414D02*
X114871545Y-61810938D01*
X114871545Y-61810938D02*
X114919164Y-61715700D01*
X114919164Y-61715700D02*
X114966783Y-61668081D01*
X114966783Y-61668081D02*
X115062021Y-61620462D01*
X115062021Y-61620462D02*
X115109640Y-61620462D01*
X115109640Y-61620462D02*
X115204878Y-61668081D01*
X115204878Y-61668081D02*
X115252497Y-61715700D01*
X115252497Y-61715700D02*
X115300116Y-61810938D01*
X115300116Y-61810938D02*
X115300116Y-62001414D01*
X115300116Y-62001414D02*
X115347735Y-62096652D01*
X115347735Y-62096652D02*
X115395354Y-62144271D01*
X115395354Y-62144271D02*
X115490592Y-62191890D01*
X115490592Y-62191890D02*
X115681068Y-62191890D01*
X115681068Y-62191890D02*
X115776306Y-62144271D01*
X115776306Y-62144271D02*
X115823926Y-62096652D01*
X115823926Y-62096652D02*
X115871545Y-62001414D01*
X115871545Y-62001414D02*
X115871545Y-61810938D01*
X115871545Y-61810938D02*
X115823926Y-61715700D01*
X115823926Y-61715700D02*
X115776306Y-61668081D01*
X115776306Y-61668081D02*
X115681068Y-61620462D01*
X115681068Y-61620462D02*
X115490592Y-61620462D01*
X115490592Y-61620462D02*
X115395354Y-61668081D01*
X115395354Y-61668081D02*
X115347735Y-61715700D01*
X115347735Y-61715700D02*
X115300116Y-61810938D01*
X106683257Y-62562389D02*
X106730877Y-62610008D01*
X106730877Y-62610008D02*
X106778496Y-62752865D01*
X106778496Y-62752865D02*
X106778496Y-62848103D01*
X106778496Y-62848103D02*
X106730877Y-62990960D01*
X106730877Y-62990960D02*
X106635638Y-63086198D01*
X106635638Y-63086198D02*
X106540400Y-63133817D01*
X106540400Y-63133817D02*
X106349924Y-63181436D01*
X106349924Y-63181436D02*
X106207067Y-63181436D01*
X106207067Y-63181436D02*
X106016591Y-63133817D01*
X106016591Y-63133817D02*
X105921353Y-63086198D01*
X105921353Y-63086198D02*
X105826115Y-62990960D01*
X105826115Y-62990960D02*
X105778496Y-62848103D01*
X105778496Y-62848103D02*
X105778496Y-62752865D01*
X105778496Y-62752865D02*
X105826115Y-62610008D01*
X105826115Y-62610008D02*
X105873734Y-62562389D01*
X105873734Y-62181436D02*
X105826115Y-62133817D01*
X105826115Y-62133817D02*
X105778496Y-62038579D01*
X105778496Y-62038579D02*
X105778496Y-61800484D01*
X105778496Y-61800484D02*
X105826115Y-61705246D01*
X105826115Y-61705246D02*
X105873734Y-61657627D01*
X105873734Y-61657627D02*
X105968972Y-61610008D01*
X105968972Y-61610008D02*
X106064210Y-61610008D01*
X106064210Y-61610008D02*
X106207067Y-61657627D01*
X106207067Y-61657627D02*
X106778496Y-62229055D01*
X106778496Y-62229055D02*
X106778496Y-61610008D01*
X106748496Y-57469889D02*
X106272305Y-57803222D01*
X106748496Y-58041317D02*
X105748496Y-58041317D01*
X105748496Y-58041317D02*
X105748496Y-57660365D01*
X105748496Y-57660365D02*
X105796115Y-57565127D01*
X105796115Y-57565127D02*
X105843734Y-57517508D01*
X105843734Y-57517508D02*
X105938972Y-57469889D01*
X105938972Y-57469889D02*
X106081829Y-57469889D01*
X106081829Y-57469889D02*
X106177067Y-57517508D01*
X106177067Y-57517508D02*
X106224686Y-57565127D01*
X106224686Y-57565127D02*
X106272305Y-57660365D01*
X106272305Y-57660365D02*
X106272305Y-58041317D01*
X106081829Y-56612746D02*
X106748496Y-56612746D01*
X105700877Y-56850841D02*
X106415162Y-57088936D01*
X106415162Y-57088936D02*
X106415162Y-56469889D01*
X112231545Y-57492843D02*
X111755354Y-57826176D01*
X112231545Y-58064271D02*
X111231545Y-58064271D01*
X111231545Y-58064271D02*
X111231545Y-57683319D01*
X111231545Y-57683319D02*
X111279164Y-57588081D01*
X111279164Y-57588081D02*
X111326783Y-57540462D01*
X111326783Y-57540462D02*
X111422021Y-57492843D01*
X111422021Y-57492843D02*
X111564878Y-57492843D01*
X111564878Y-57492843D02*
X111660116Y-57540462D01*
X111660116Y-57540462D02*
X111707735Y-57588081D01*
X111707735Y-57588081D02*
X111755354Y-57683319D01*
X111755354Y-57683319D02*
X111755354Y-58064271D01*
X111231545Y-56588081D02*
X111231545Y-57064271D01*
X111231545Y-57064271D02*
X111707735Y-57111890D01*
X111707735Y-57111890D02*
X111660116Y-57064271D01*
X111660116Y-57064271D02*
X111612497Y-56969033D01*
X111612497Y-56969033D02*
X111612497Y-56730938D01*
X111612497Y-56730938D02*
X111660116Y-56635700D01*
X111660116Y-56635700D02*
X111707735Y-56588081D01*
X111707735Y-56588081D02*
X111802973Y-56540462D01*
X111802973Y-56540462D02*
X112041068Y-56540462D01*
X112041068Y-56540462D02*
X112136306Y-56588081D01*
X112136306Y-56588081D02*
X112183926Y-56635700D01*
X112183926Y-56635700D02*
X112231545Y-56730938D01*
X112231545Y-56730938D02*
X112231545Y-56969033D01*
X112231545Y-56969033D02*
X112183926Y-57064271D01*
X112183926Y-57064271D02*
X112136306Y-57111890D01*
X82200952Y-51301490D02*
X82200952Y-51968157D01*
X82200952Y-51396728D02*
X82248571Y-51349109D01*
X82248571Y-51349109D02*
X82343809Y-51301490D01*
X82343809Y-51301490D02*
X82486666Y-51301490D01*
X82486666Y-51301490D02*
X82581904Y-51349109D01*
X82581904Y-51349109D02*
X82629523Y-51444347D01*
X82629523Y-51444347D02*
X82629523Y-51968157D01*
X83058095Y-51063395D02*
X83105714Y-51015776D01*
X83105714Y-51015776D02*
X83200952Y-50968157D01*
X83200952Y-50968157D02*
X83439047Y-50968157D01*
X83439047Y-50968157D02*
X83534285Y-51015776D01*
X83534285Y-51015776D02*
X83581904Y-51063395D01*
X83581904Y-51063395D02*
X83629523Y-51158633D01*
X83629523Y-51158633D02*
X83629523Y-51253871D01*
X83629523Y-51253871D02*
X83581904Y-51396728D01*
X83581904Y-51396728D02*
X83010476Y-51968157D01*
X83010476Y-51968157D02*
X83629523Y-51968157D01*
X84486666Y-51301490D02*
X84486666Y-52111014D01*
X84486666Y-52111014D02*
X84439047Y-52206252D01*
X84439047Y-52206252D02*
X84391428Y-52253871D01*
X84391428Y-52253871D02*
X84296190Y-52301490D01*
X84296190Y-52301490D02*
X84153333Y-52301490D01*
X84153333Y-52301490D02*
X84058095Y-52253871D01*
X84486666Y-51920538D02*
X84391428Y-51968157D01*
X84391428Y-51968157D02*
X84200952Y-51968157D01*
X84200952Y-51968157D02*
X84105714Y-51920538D01*
X84105714Y-51920538D02*
X84058095Y-51872918D01*
X84058095Y-51872918D02*
X84010476Y-51777680D01*
X84010476Y-51777680D02*
X84010476Y-51491966D01*
X84010476Y-51491966D02*
X84058095Y-51396728D01*
X84058095Y-51396728D02*
X84105714Y-51349109D01*
X84105714Y-51349109D02*
X84200952Y-51301490D01*
X84200952Y-51301490D02*
X84391428Y-51301490D01*
X84391428Y-51301490D02*
X84486666Y-51349109D01*
X85486666Y-51968157D02*
X84915238Y-51968157D01*
X85200952Y-51968157D02*
X85200952Y-50968157D01*
X85200952Y-50968157D02*
X85105714Y-51111014D01*
X85105714Y-51111014D02*
X85010476Y-51206252D01*
X85010476Y-51206252D02*
X84915238Y-51253871D01*
X74274819Y-57129166D02*
X73798628Y-57462499D01*
X74274819Y-57700594D02*
X73274819Y-57700594D01*
X73274819Y-57700594D02*
X73274819Y-57319642D01*
X73274819Y-57319642D02*
X73322438Y-57224404D01*
X73322438Y-57224404D02*
X73370057Y-57176785D01*
X73370057Y-57176785D02*
X73465295Y-57129166D01*
X73465295Y-57129166D02*
X73608152Y-57129166D01*
X73608152Y-57129166D02*
X73703390Y-57176785D01*
X73703390Y-57176785D02*
X73751009Y-57224404D01*
X73751009Y-57224404D02*
X73798628Y-57319642D01*
X73798628Y-57319642D02*
X73798628Y-57700594D01*
X74274819Y-56176785D02*
X74274819Y-56748213D01*
X74274819Y-56462499D02*
X73274819Y-56462499D01*
X73274819Y-56462499D02*
X73417676Y-56557737D01*
X73417676Y-56557737D02*
X73512914Y-56652975D01*
X73512914Y-56652975D02*
X73560533Y-56748213D01*
X79194819Y-64301666D02*
X78718628Y-64634999D01*
X79194819Y-64873094D02*
X78194819Y-64873094D01*
X78194819Y-64873094D02*
X78194819Y-64492142D01*
X78194819Y-64492142D02*
X78242438Y-64396904D01*
X78242438Y-64396904D02*
X78290057Y-64349285D01*
X78290057Y-64349285D02*
X78385295Y-64301666D01*
X78385295Y-64301666D02*
X78528152Y-64301666D01*
X78528152Y-64301666D02*
X78623390Y-64349285D01*
X78623390Y-64349285D02*
X78671009Y-64396904D01*
X78671009Y-64396904D02*
X78718628Y-64492142D01*
X78718628Y-64492142D02*
X78718628Y-64873094D01*
X78194819Y-63968332D02*
X78194819Y-63349285D01*
X78194819Y-63349285D02*
X78575771Y-63682618D01*
X78575771Y-63682618D02*
X78575771Y-63539761D01*
X78575771Y-63539761D02*
X78623390Y-63444523D01*
X78623390Y-63444523D02*
X78671009Y-63396904D01*
X78671009Y-63396904D02*
X78766247Y-63349285D01*
X78766247Y-63349285D02*
X79004342Y-63349285D01*
X79004342Y-63349285D02*
X79099580Y-63396904D01*
X79099580Y-63396904D02*
X79147200Y-63444523D01*
X79147200Y-63444523D02*
X79194819Y-63539761D01*
X79194819Y-63539761D02*
X79194819Y-63825475D01*
X79194819Y-63825475D02*
X79147200Y-63920713D01*
X79147200Y-63920713D02*
X79099580Y-63968332D01*
X78438571Y-51301490D02*
X78438571Y-51968157D01*
X78438571Y-51396728D02*
X78486190Y-51349109D01*
X78486190Y-51349109D02*
X78581428Y-51301490D01*
X78581428Y-51301490D02*
X78724285Y-51301490D01*
X78724285Y-51301490D02*
X78819523Y-51349109D01*
X78819523Y-51349109D02*
X78867142Y-51444347D01*
X78867142Y-51444347D02*
X78867142Y-51968157D01*
X79295714Y-51063395D02*
X79343333Y-51015776D01*
X79343333Y-51015776D02*
X79438571Y-50968157D01*
X79438571Y-50968157D02*
X79676666Y-50968157D01*
X79676666Y-50968157D02*
X79771904Y-51015776D01*
X79771904Y-51015776D02*
X79819523Y-51063395D01*
X79819523Y-51063395D02*
X79867142Y-51158633D01*
X79867142Y-51158633D02*
X79867142Y-51253871D01*
X79867142Y-51253871D02*
X79819523Y-51396728D01*
X79819523Y-51396728D02*
X79248095Y-51968157D01*
X79248095Y-51968157D02*
X79867142Y-51968157D01*
X80248095Y-51920538D02*
X80343333Y-51968157D01*
X80343333Y-51968157D02*
X80533809Y-51968157D01*
X80533809Y-51968157D02*
X80629047Y-51920538D01*
X80629047Y-51920538D02*
X80676666Y-51825299D01*
X80676666Y-51825299D02*
X80676666Y-51777680D01*
X80676666Y-51777680D02*
X80629047Y-51682442D01*
X80629047Y-51682442D02*
X80533809Y-51634823D01*
X80533809Y-51634823D02*
X80390952Y-51634823D01*
X80390952Y-51634823D02*
X80295714Y-51587204D01*
X80295714Y-51587204D02*
X80248095Y-51491966D01*
X80248095Y-51491966D02*
X80248095Y-51444347D01*
X80248095Y-51444347D02*
X80295714Y-51349109D01*
X80295714Y-51349109D02*
X80390952Y-51301490D01*
X80390952Y-51301490D02*
X80533809Y-51301490D01*
X80533809Y-51301490D02*
X80629047Y-51349109D01*
X81629047Y-51968157D02*
X81057619Y-51968157D01*
X81343333Y-51968157D02*
X81343333Y-50968157D01*
X81343333Y-50968157D02*
X81248095Y-51111014D01*
X81248095Y-51111014D02*
X81152857Y-51206252D01*
X81152857Y-51206252D02*
X81057619Y-51253871D01*
X86010952Y-51407324D02*
X86010952Y-52073991D01*
X86010952Y-51502562D02*
X86058571Y-51454943D01*
X86058571Y-51454943D02*
X86153809Y-51407324D01*
X86153809Y-51407324D02*
X86296666Y-51407324D01*
X86296666Y-51407324D02*
X86391904Y-51454943D01*
X86391904Y-51454943D02*
X86439523Y-51550181D01*
X86439523Y-51550181D02*
X86439523Y-52073991D01*
X87439523Y-52073991D02*
X86868095Y-52073991D01*
X87153809Y-52073991D02*
X87153809Y-51073991D01*
X87153809Y-51073991D02*
X87058571Y-51216848D01*
X87058571Y-51216848D02*
X86963333Y-51312086D01*
X86963333Y-51312086D02*
X86868095Y-51359705D01*
X88296666Y-51407324D02*
X88296666Y-52216848D01*
X88296666Y-52216848D02*
X88249047Y-52312086D01*
X88249047Y-52312086D02*
X88201428Y-52359705D01*
X88201428Y-52359705D02*
X88106190Y-52407324D01*
X88106190Y-52407324D02*
X87963333Y-52407324D01*
X87963333Y-52407324D02*
X87868095Y-52359705D01*
X88296666Y-52026372D02*
X88201428Y-52073991D01*
X88201428Y-52073991D02*
X88010952Y-52073991D01*
X88010952Y-52073991D02*
X87915714Y-52026372D01*
X87915714Y-52026372D02*
X87868095Y-51978752D01*
X87868095Y-51978752D02*
X87820476Y-51883514D01*
X87820476Y-51883514D02*
X87820476Y-51597800D01*
X87820476Y-51597800D02*
X87868095Y-51502562D01*
X87868095Y-51502562D02*
X87915714Y-51454943D01*
X87915714Y-51454943D02*
X88010952Y-51407324D01*
X88010952Y-51407324D02*
X88201428Y-51407324D01*
X88201428Y-51407324D02*
X88296666Y-51454943D01*
X89296666Y-52073991D02*
X88725238Y-52073991D01*
X89010952Y-52073991D02*
X89010952Y-51073991D01*
X89010952Y-51073991D02*
X88915714Y-51216848D01*
X88915714Y-51216848D02*
X88820476Y-51312086D01*
X88820476Y-51312086D02*
X88725238Y-51359705D01*
X107159821Y-64679219D02*
X107159821Y-65488742D01*
X107159821Y-65488742D02*
X107207440Y-65583980D01*
X107207440Y-65583980D02*
X107255059Y-65631600D01*
X107255059Y-65631600D02*
X107350297Y-65679219D01*
X107350297Y-65679219D02*
X107540773Y-65679219D01*
X107540773Y-65679219D02*
X107636011Y-65631600D01*
X107636011Y-65631600D02*
X107683630Y-65583980D01*
X107683630Y-65583980D02*
X107731249Y-65488742D01*
X107731249Y-65488742D02*
X107731249Y-64679219D01*
X108731249Y-65679219D02*
X108159821Y-65679219D01*
X108445535Y-65679219D02*
X108445535Y-64679219D01*
X108445535Y-64679219D02*
X108350297Y-64822076D01*
X108350297Y-64822076D02*
X108255059Y-64917314D01*
X108255059Y-64917314D02*
X108159821Y-64964933D01*
X131891487Y-58023734D02*
X131796249Y-57976115D01*
X131796249Y-57976115D02*
X131701011Y-57880877D01*
X131701011Y-57880877D02*
X131558154Y-57738019D01*
X131558154Y-57738019D02*
X131462916Y-57690400D01*
X131462916Y-57690400D02*
X131367678Y-57690400D01*
X131415297Y-57928496D02*
X131320059Y-57880877D01*
X131320059Y-57880877D02*
X131224821Y-57785638D01*
X131224821Y-57785638D02*
X131177202Y-57595162D01*
X131177202Y-57595162D02*
X131177202Y-57261829D01*
X131177202Y-57261829D02*
X131224821Y-57071353D01*
X131224821Y-57071353D02*
X131320059Y-56976115D01*
X131320059Y-56976115D02*
X131415297Y-56928496D01*
X131415297Y-56928496D02*
X131605773Y-56928496D01*
X131605773Y-56928496D02*
X131701011Y-56976115D01*
X131701011Y-56976115D02*
X131796249Y-57071353D01*
X131796249Y-57071353D02*
X131843868Y-57261829D01*
X131843868Y-57261829D02*
X131843868Y-57595162D01*
X131843868Y-57595162D02*
X131796249Y-57785638D01*
X131796249Y-57785638D02*
X131701011Y-57880877D01*
X131701011Y-57880877D02*
X131605773Y-57928496D01*
X131605773Y-57928496D02*
X131415297Y-57928496D01*
X132177202Y-56928496D02*
X132796249Y-56928496D01*
X132796249Y-56928496D02*
X132462916Y-57309448D01*
X132462916Y-57309448D02*
X132605773Y-57309448D01*
X132605773Y-57309448D02*
X132701011Y-57357067D01*
X132701011Y-57357067D02*
X132748630Y-57404686D01*
X132748630Y-57404686D02*
X132796249Y-57499924D01*
X132796249Y-57499924D02*
X132796249Y-57738019D01*
X132796249Y-57738019D02*
X132748630Y-57833257D01*
X132748630Y-57833257D02*
X132701011Y-57880877D01*
X132701011Y-57880877D02*
X132605773Y-57928496D01*
X132605773Y-57928496D02*
X132320059Y-57928496D01*
X132320059Y-57928496D02*
X132224821Y-57880877D01*
X132224821Y-57880877D02*
X132177202Y-57833257D01*
X78164580Y-56681666D02*
X78212200Y-56729285D01*
X78212200Y-56729285D02*
X78259819Y-56872142D01*
X78259819Y-56872142D02*
X78259819Y-56967380D01*
X78259819Y-56967380D02*
X78212200Y-57110237D01*
X78212200Y-57110237D02*
X78116961Y-57205475D01*
X78116961Y-57205475D02*
X78021723Y-57253094D01*
X78021723Y-57253094D02*
X77831247Y-57300713D01*
X77831247Y-57300713D02*
X77688390Y-57300713D01*
X77688390Y-57300713D02*
X77497914Y-57253094D01*
X77497914Y-57253094D02*
X77402676Y-57205475D01*
X77402676Y-57205475D02*
X77307438Y-57110237D01*
X77307438Y-57110237D02*
X77259819Y-56967380D01*
X77259819Y-56967380D02*
X77259819Y-56872142D01*
X77259819Y-56872142D02*
X77307438Y-56729285D01*
X77307438Y-56729285D02*
X77355057Y-56681666D01*
X78259819Y-55729285D02*
X78259819Y-56300713D01*
X78259819Y-56014999D02*
X77259819Y-56014999D01*
X77259819Y-56014999D02*
X77402676Y-56110237D01*
X77402676Y-56110237D02*
X77497914Y-56205475D01*
X77497914Y-56205475D02*
X77545533Y-56300713D01*
X124678496Y-64017738D02*
X124202305Y-64351071D01*
X124678496Y-64589166D02*
X123678496Y-64589166D01*
X123678496Y-64589166D02*
X123678496Y-64208214D01*
X123678496Y-64208214D02*
X123726115Y-64112976D01*
X123726115Y-64112976D02*
X123773734Y-64065357D01*
X123773734Y-64065357D02*
X123868972Y-64017738D01*
X123868972Y-64017738D02*
X124011829Y-64017738D01*
X124011829Y-64017738D02*
X124107067Y-64065357D01*
X124107067Y-64065357D02*
X124154686Y-64112976D01*
X124154686Y-64112976D02*
X124202305Y-64208214D01*
X124202305Y-64208214D02*
X124202305Y-64589166D01*
X124011829Y-63589166D02*
X125011829Y-63589166D01*
X124059448Y-63589166D02*
X124011829Y-63493928D01*
X124011829Y-63493928D02*
X124011829Y-63303452D01*
X124011829Y-63303452D02*
X124059448Y-63208214D01*
X124059448Y-63208214D02*
X124107067Y-63160595D01*
X124107067Y-63160595D02*
X124202305Y-63112976D01*
X124202305Y-63112976D02*
X124488019Y-63112976D01*
X124488019Y-63112976D02*
X124583257Y-63160595D01*
X124583257Y-63160595D02*
X124630877Y-63208214D01*
X124630877Y-63208214D02*
X124678496Y-63303452D01*
X124678496Y-63303452D02*
X124678496Y-63493928D01*
X124678496Y-63493928D02*
X124630877Y-63589166D01*
X124011829Y-62255833D02*
X124678496Y-62255833D01*
X124011829Y-62684404D02*
X124535638Y-62684404D01*
X124535638Y-62684404D02*
X124630877Y-62636785D01*
X124630877Y-62636785D02*
X124678496Y-62541547D01*
X124678496Y-62541547D02*
X124678496Y-62398690D01*
X124678496Y-62398690D02*
X124630877Y-62303452D01*
X124630877Y-62303452D02*
X124583257Y-62255833D01*
X124678496Y-61636785D02*
X124630877Y-61732023D01*
X124630877Y-61732023D02*
X124535638Y-61779642D01*
X124535638Y-61779642D02*
X123678496Y-61779642D01*
X124678496Y-61112975D02*
X124630877Y-61208213D01*
X124630877Y-61208213D02*
X124535638Y-61255832D01*
X124535638Y-61255832D02*
X123678496Y-61255832D01*
X124678496Y-60208213D02*
X124678496Y-60779641D01*
X124678496Y-60493927D02*
X123678496Y-60493927D01*
X123678496Y-60493927D02*
X123821353Y-60589165D01*
X123821353Y-60589165D02*
X123916591Y-60684403D01*
X123916591Y-60684403D02*
X123964210Y-60779641D01*
X133630343Y-58266009D02*
X133297010Y-58266009D01*
X133297010Y-58789819D02*
X133297010Y-57789819D01*
X133297010Y-57789819D02*
X133773200Y-57789819D01*
X134677962Y-58789819D02*
X134106534Y-58789819D01*
X134392248Y-58789819D02*
X134392248Y-57789819D01*
X134392248Y-57789819D02*
X134297010Y-57932676D01*
X134297010Y-57932676D02*
X134201772Y-58027914D01*
X134201772Y-58027914D02*
X134106534Y-58075533D01*
X70634819Y-62638094D02*
X69634819Y-62638094D01*
X69634819Y-62638094D02*
X69634819Y-62399999D01*
X69634819Y-62399999D02*
X69682438Y-62257142D01*
X69682438Y-62257142D02*
X69777676Y-62161904D01*
X69777676Y-62161904D02*
X69872914Y-62114285D01*
X69872914Y-62114285D02*
X70063390Y-62066666D01*
X70063390Y-62066666D02*
X70206247Y-62066666D01*
X70206247Y-62066666D02*
X70396723Y-62114285D01*
X70396723Y-62114285D02*
X70491961Y-62161904D01*
X70491961Y-62161904D02*
X70587200Y-62257142D01*
X70587200Y-62257142D02*
X70634819Y-62399999D01*
X70634819Y-62399999D02*
X70634819Y-62638094D01*
X70634819Y-61114285D02*
X70634819Y-61685713D01*
X70634819Y-61399999D02*
X69634819Y-61399999D01*
X69634819Y-61399999D02*
X69777676Y-61495237D01*
X69777676Y-61495237D02*
X69872914Y-61590475D01*
X69872914Y-61590475D02*
X69920533Y-61685713D01*
X82263095Y-55717819D02*
X82263095Y-56527342D01*
X82263095Y-56527342D02*
X82310714Y-56622580D01*
X82310714Y-56622580D02*
X82358333Y-56670200D01*
X82358333Y-56670200D02*
X82453571Y-56717819D01*
X82453571Y-56717819D02*
X82644047Y-56717819D01*
X82644047Y-56717819D02*
X82739285Y-56670200D01*
X82739285Y-56670200D02*
X82786904Y-56622580D01*
X82786904Y-56622580D02*
X82834523Y-56527342D01*
X82834523Y-56527342D02*
X82834523Y-55717819D01*
X83263095Y-55813057D02*
X83310714Y-55765438D01*
X83310714Y-55765438D02*
X83405952Y-55717819D01*
X83405952Y-55717819D02*
X83644047Y-55717819D01*
X83644047Y-55717819D02*
X83739285Y-55765438D01*
X83739285Y-55765438D02*
X83786904Y-55813057D01*
X83786904Y-55813057D02*
X83834523Y-55908295D01*
X83834523Y-55908295D02*
X83834523Y-56003533D01*
X83834523Y-56003533D02*
X83786904Y-56146390D01*
X83786904Y-56146390D02*
X83215476Y-56717819D01*
X83215476Y-56717819D02*
X83834523Y-56717819D01*
X129595938Y-54648734D02*
X129500700Y-54601115D01*
X129500700Y-54601115D02*
X129405462Y-54505877D01*
X129405462Y-54505877D02*
X129262605Y-54363019D01*
X129262605Y-54363019D02*
X129167367Y-54315400D01*
X129167367Y-54315400D02*
X129072129Y-54315400D01*
X129119748Y-54553496D02*
X129024510Y-54505877D01*
X129024510Y-54505877D02*
X128929272Y-54410638D01*
X128929272Y-54410638D02*
X128881653Y-54220162D01*
X128881653Y-54220162D02*
X128881653Y-53886829D01*
X128881653Y-53886829D02*
X128929272Y-53696353D01*
X128929272Y-53696353D02*
X129024510Y-53601115D01*
X129024510Y-53601115D02*
X129119748Y-53553496D01*
X129119748Y-53553496D02*
X129310224Y-53553496D01*
X129310224Y-53553496D02*
X129405462Y-53601115D01*
X129405462Y-53601115D02*
X129500700Y-53696353D01*
X129500700Y-53696353D02*
X129548319Y-53886829D01*
X129548319Y-53886829D02*
X129548319Y-54220162D01*
X129548319Y-54220162D02*
X129500700Y-54410638D01*
X129500700Y-54410638D02*
X129405462Y-54505877D01*
X129405462Y-54505877D02*
X129310224Y-54553496D01*
X129310224Y-54553496D02*
X129119748Y-54553496D01*
X129929272Y-53648734D02*
X129976891Y-53601115D01*
X129976891Y-53601115D02*
X130072129Y-53553496D01*
X130072129Y-53553496D02*
X130310224Y-53553496D01*
X130310224Y-53553496D02*
X130405462Y-53601115D01*
X130405462Y-53601115D02*
X130453081Y-53648734D01*
X130453081Y-53648734D02*
X130500700Y-53743972D01*
X130500700Y-53743972D02*
X130500700Y-53839210D01*
X130500700Y-53839210D02*
X130453081Y-53982067D01*
X130453081Y-53982067D02*
X129881653Y-54553496D01*
X129881653Y-54553496D02*
X130500700Y-54553496D01*
X115887010Y-60779819D02*
X115553677Y-60303628D01*
X115315582Y-60779819D02*
X115315582Y-59779819D01*
X115315582Y-59779819D02*
X115696534Y-59779819D01*
X115696534Y-59779819D02*
X115791772Y-59827438D01*
X115791772Y-59827438D02*
X115839391Y-59875057D01*
X115839391Y-59875057D02*
X115887010Y-59970295D01*
X115887010Y-59970295D02*
X115887010Y-60113152D01*
X115887010Y-60113152D02*
X115839391Y-60208390D01*
X115839391Y-60208390D02*
X115791772Y-60256009D01*
X115791772Y-60256009D02*
X115696534Y-60303628D01*
X115696534Y-60303628D02*
X115315582Y-60303628D01*
X116744153Y-59779819D02*
X116553677Y-59779819D01*
X116553677Y-59779819D02*
X116458439Y-59827438D01*
X116458439Y-59827438D02*
X116410820Y-59875057D01*
X116410820Y-59875057D02*
X116315582Y-60017914D01*
X116315582Y-60017914D02*
X116267963Y-60208390D01*
X116267963Y-60208390D02*
X116267963Y-60589342D01*
X116267963Y-60589342D02*
X116315582Y-60684580D01*
X116315582Y-60684580D02*
X116363201Y-60732200D01*
X116363201Y-60732200D02*
X116458439Y-60779819D01*
X116458439Y-60779819D02*
X116648915Y-60779819D01*
X116648915Y-60779819D02*
X116744153Y-60732200D01*
X116744153Y-60732200D02*
X116791772Y-60684580D01*
X116791772Y-60684580D02*
X116839391Y-60589342D01*
X116839391Y-60589342D02*
X116839391Y-60351247D01*
X116839391Y-60351247D02*
X116791772Y-60256009D01*
X116791772Y-60256009D02*
X116744153Y-60208390D01*
X116744153Y-60208390D02*
X116648915Y-60160771D01*
X116648915Y-60160771D02*
X116458439Y-60160771D01*
X116458439Y-60160771D02*
X116363201Y-60208390D01*
X116363201Y-60208390D02*
X116315582Y-60256009D01*
X116315582Y-60256009D02*
X116267963Y-60351247D01*
X128272113Y-62492068D02*
X128319733Y-62539687D01*
X128319733Y-62539687D02*
X128367352Y-62682544D01*
X128367352Y-62682544D02*
X128367352Y-62777782D01*
X128367352Y-62777782D02*
X128319733Y-62920639D01*
X128319733Y-62920639D02*
X128224494Y-63015877D01*
X128224494Y-63015877D02*
X128129256Y-63063496D01*
X128129256Y-63063496D02*
X127938780Y-63111115D01*
X127938780Y-63111115D02*
X127795923Y-63111115D01*
X127795923Y-63111115D02*
X127605447Y-63063496D01*
X127605447Y-63063496D02*
X127510209Y-63015877D01*
X127510209Y-63015877D02*
X127414971Y-62920639D01*
X127414971Y-62920639D02*
X127367352Y-62777782D01*
X127367352Y-62777782D02*
X127367352Y-62682544D01*
X127367352Y-62682544D02*
X127414971Y-62539687D01*
X127414971Y-62539687D02*
X127462590Y-62492068D01*
X127367352Y-62158734D02*
X127367352Y-61539687D01*
X127367352Y-61539687D02*
X127748304Y-61873020D01*
X127748304Y-61873020D02*
X127748304Y-61730163D01*
X127748304Y-61730163D02*
X127795923Y-61634925D01*
X127795923Y-61634925D02*
X127843542Y-61587306D01*
X127843542Y-61587306D02*
X127938780Y-61539687D01*
X127938780Y-61539687D02*
X128176875Y-61539687D01*
X128176875Y-61539687D02*
X128272113Y-61587306D01*
X128272113Y-61587306D02*
X128319733Y-61634925D01*
X128319733Y-61634925D02*
X128367352Y-61730163D01*
X128367352Y-61730163D02*
X128367352Y-62015877D01*
X128367352Y-62015877D02*
X128319733Y-62111115D01*
X128319733Y-62111115D02*
X128272113Y-62158734D01*
X93274819Y-57629166D02*
X92798628Y-57962499D01*
X93274819Y-58200594D02*
X92274819Y-58200594D01*
X92274819Y-58200594D02*
X92274819Y-57819642D01*
X92274819Y-57819642D02*
X92322438Y-57724404D01*
X92322438Y-57724404D02*
X92370057Y-57676785D01*
X92370057Y-57676785D02*
X92465295Y-57629166D01*
X92465295Y-57629166D02*
X92608152Y-57629166D01*
X92608152Y-57629166D02*
X92703390Y-57676785D01*
X92703390Y-57676785D02*
X92751009Y-57724404D01*
X92751009Y-57724404D02*
X92798628Y-57819642D01*
X92798628Y-57819642D02*
X92798628Y-58200594D01*
X92370057Y-57248213D02*
X92322438Y-57200594D01*
X92322438Y-57200594D02*
X92274819Y-57105356D01*
X92274819Y-57105356D02*
X92274819Y-56867261D01*
X92274819Y-56867261D02*
X92322438Y-56772023D01*
X92322438Y-56772023D02*
X92370057Y-56724404D01*
X92370057Y-56724404D02*
X92465295Y-56676785D01*
X92465295Y-56676785D02*
X92560533Y-56676785D01*
X92560533Y-56676785D02*
X92703390Y-56724404D01*
X92703390Y-56724404D02*
X93274819Y-57295832D01*
X93274819Y-57295832D02*
X93274819Y-56676785D01*
D12*
X117122185Y-63509318D02*
X117122185Y-62239318D01*
X118452662Y-63388365D02*
X118392186Y-63448842D01*
X118392186Y-63448842D02*
X118210757Y-63509318D01*
X118210757Y-63509318D02*
X118089805Y-63509318D01*
X118089805Y-63509318D02*
X117908376Y-63448842D01*
X117908376Y-63448842D02*
X117787424Y-63327889D01*
X117787424Y-63327889D02*
X117726947Y-63206937D01*
X117726947Y-63206937D02*
X117666471Y-62965032D01*
X117666471Y-62965032D02*
X117666471Y-62783603D01*
X117666471Y-62783603D02*
X117726947Y-62541699D01*
X117726947Y-62541699D02*
X117787424Y-62420746D01*
X117787424Y-62420746D02*
X117908376Y-62299794D01*
X117908376Y-62299794D02*
X118089805Y-62239318D01*
X118089805Y-62239318D02*
X118210757Y-62239318D01*
X118210757Y-62239318D02*
X118392186Y-62299794D01*
X118392186Y-62299794D02*
X118452662Y-62360270D01*
X119662186Y-63509318D02*
X118936471Y-63509318D01*
X119299328Y-63509318D02*
X119299328Y-62239318D01*
X119299328Y-62239318D02*
X119178376Y-62420746D01*
X119178376Y-62420746D02*
X119057424Y-62541699D01*
X119057424Y-62541699D02*
X118936471Y-62602175D01*
D11*
X108836637Y-57324458D02*
X108741399Y-57276839D01*
X108741399Y-57276839D02*
X108646161Y-57181601D01*
X108646161Y-57181601D02*
X108503304Y-57038743D01*
X108503304Y-57038743D02*
X108408066Y-56991124D01*
X108408066Y-56991124D02*
X108312828Y-56991124D01*
X108360447Y-57229220D02*
X108265209Y-57181601D01*
X108265209Y-57181601D02*
X108169971Y-57086362D01*
X108169971Y-57086362D02*
X108122352Y-56895886D01*
X108122352Y-56895886D02*
X108122352Y-56562553D01*
X108122352Y-56562553D02*
X108169971Y-56372077D01*
X108169971Y-56372077D02*
X108265209Y-56276839D01*
X108265209Y-56276839D02*
X108360447Y-56229220D01*
X108360447Y-56229220D02*
X108550923Y-56229220D01*
X108550923Y-56229220D02*
X108646161Y-56276839D01*
X108646161Y-56276839D02*
X108741399Y-56372077D01*
X108741399Y-56372077D02*
X108789018Y-56562553D01*
X108789018Y-56562553D02*
X108789018Y-56895886D01*
X108789018Y-56895886D02*
X108741399Y-57086362D01*
X108741399Y-57086362D02*
X108646161Y-57181601D01*
X108646161Y-57181601D02*
X108550923Y-57229220D01*
X108550923Y-57229220D02*
X108360447Y-57229220D01*
X109741399Y-57229220D02*
X109169971Y-57229220D01*
X109455685Y-57229220D02*
X109455685Y-56229220D01*
X109455685Y-56229220D02*
X109360447Y-56372077D01*
X109360447Y-56372077D02*
X109265209Y-56467315D01*
X109265209Y-56467315D02*
X109169971Y-56514934D01*
X107338026Y-53577420D02*
X107338026Y-53815515D01*
X107099931Y-53720277D02*
X107338026Y-53815515D01*
X107338026Y-53815515D02*
X107576121Y-53720277D01*
X107195169Y-54005991D02*
X107338026Y-53815515D01*
X107338026Y-53815515D02*
X107480883Y-54005991D01*
X107338026Y-53577420D02*
X107338026Y-53815515D01*
X107099931Y-53720277D02*
X107338026Y-53815515D01*
X107338026Y-53815515D02*
X107576121Y-53720277D01*
X107195169Y-54005991D02*
X107338026Y-53815515D01*
X107338026Y-53815515D02*
X107480883Y-54005991D01*
D13*
%TO.C,hsup1*%
X84525188Y-65202788D02*
G75*
G02*
X82023188Y-65202788I-1251000J0D01*
G01*
X82023188Y-65202788D02*
G75*
G02*
X84525188Y-65202788I1251000J0D01*
G01*
%TO.C,gate1*%
X88575188Y-65202788D02*
G75*
G02*
X86073188Y-65202788I-1251000J0D01*
G01*
X86073188Y-65202788D02*
G75*
G02*
X88575188Y-65202788I1251000J0D01*
G01*
%TO.C,J1*%
X64550000Y-53625000D02*
X66250000Y-53625000D01*
X64550000Y-62965000D02*
X66250000Y-62965000D01*
%TO.C,D2*%
X89865000Y-61000000D02*
X89865000Y-64885000D01*
X89865000Y-64885000D02*
X92135000Y-64885000D01*
X92135000Y-64885000D02*
X92135000Y-61000000D01*
%TO.C,R7*%
X117683677Y-56422936D02*
X117683677Y-57877064D01*
X119503677Y-56422936D02*
X119503677Y-57877064D01*
%TO.C,J2*%
X137160000Y-53340000D02*
X138430000Y-53340000D01*
X137160000Y-54610000D02*
X137160000Y-53340000D01*
X139472929Y-56770000D02*
X139870000Y-56770000D01*
X139472929Y-57530000D02*
X139870000Y-57530000D01*
X139472929Y-59310000D02*
X139870000Y-59310000D01*
X139472929Y-60070000D02*
X139870000Y-60070000D01*
X139472929Y-61850000D02*
X139870000Y-61850000D01*
X139472929Y-62610000D02*
X139870000Y-62610000D01*
X139472929Y-64390000D02*
X139870000Y-64390000D01*
X139472929Y-65150000D02*
X139870000Y-65150000D01*
X139540000Y-54230000D02*
X139870000Y-54230000D01*
X139540000Y-54990000D02*
X139870000Y-54990000D01*
X139870000Y-53280000D02*
X139870000Y-66100000D01*
X139870000Y-55880000D02*
X142530000Y-55880000D01*
X139870000Y-58420000D02*
X142530000Y-58420000D01*
X139870000Y-60960000D02*
X142530000Y-60960000D01*
X139870000Y-63500000D02*
X142530000Y-63500000D01*
X139870000Y-66100000D02*
X142530000Y-66100000D01*
X142530000Y-53280000D02*
X139870000Y-53280000D01*
X142530000Y-54230000D02*
X148530000Y-54230000D01*
X142530000Y-54290000D02*
X148530000Y-54290000D01*
X142530000Y-54410000D02*
X148530000Y-54410000D01*
X142530000Y-54530000D02*
X148530000Y-54530000D01*
X142530000Y-54650000D02*
X148530000Y-54650000D01*
X142530000Y-54770000D02*
X148530000Y-54770000D01*
X142530000Y-54890000D02*
X148530000Y-54890000D01*
X142530000Y-56770000D02*
X148530000Y-56770000D01*
X142530000Y-59310000D02*
X148530000Y-59310000D01*
X142530000Y-61850000D02*
X148530000Y-61850000D01*
X142530000Y-64390000D02*
X148530000Y-64390000D01*
X142530000Y-66100000D02*
X142530000Y-53280000D01*
X148530000Y-54230000D02*
X148530000Y-54990000D01*
X148530000Y-54990000D02*
X142530000Y-54990000D01*
X148530000Y-56770000D02*
X148530000Y-57530000D01*
X148530000Y-57530000D02*
X142530000Y-57530000D01*
X148530000Y-59310000D02*
X148530000Y-60070000D01*
X148530000Y-60070000D02*
X142530000Y-60070000D01*
X148530000Y-61850000D02*
X148530000Y-62610000D01*
X148530000Y-62610000D02*
X142530000Y-62610000D01*
X148530000Y-64390000D02*
X148530000Y-65150000D01*
X148530000Y-65150000D02*
X142530000Y-65150000D01*
%TO.C,R8*%
X112686726Y-61679113D02*
X112686726Y-63133241D01*
X114506726Y-61679113D02*
X114506726Y-63133241D01*
%TO.C,C2*%
X93705000Y-61723748D02*
X93705000Y-63146252D01*
X95525000Y-61723748D02*
X95525000Y-63146252D01*
%TO.C,R4*%
X93705000Y-56615436D02*
X93705000Y-58069564D01*
X95525000Y-56615436D02*
X95525000Y-58069564D01*
%TO.C,R5*%
X112686726Y-58053241D02*
X112686726Y-56599113D01*
X114506726Y-58053241D02*
X114506726Y-56599113D01*
%TO.C,n2g1*%
X85071000Y-53763338D02*
G75*
G02*
X82569000Y-53763338I-1251000J0D01*
G01*
X82569000Y-53763338D02*
G75*
G02*
X85071000Y-53763338I1251000J0D01*
G01*
%TO.C,R1*%
X71090000Y-56235436D02*
X71090000Y-57689564D01*
X72910000Y-56235436D02*
X72910000Y-57689564D01*
%TO.C,R3*%
X75925000Y-61695436D02*
X75925000Y-63149564D01*
X77745000Y-61695436D02*
X77745000Y-63149564D01*
%TO.C,n2s1*%
X81261000Y-53763338D02*
G75*
G02*
X78759000Y-53763338I-1251000J0D01*
G01*
X78759000Y-53763338D02*
G75*
G02*
X81261000Y-53763338I1251000J0D01*
G01*
%TO.C,n1g1*%
X88881000Y-53869172D02*
G75*
G02*
X86379000Y-53869172I-1251000J0D01*
G01*
X86379000Y-53869172D02*
G75*
G02*
X88881000Y-53869172I1251000J0D01*
G01*
D14*
%TO.C,U1*%
X111641726Y-63439400D02*
G75*
G02*
X111441726Y-63439400I-100000J0D01*
G01*
X111441726Y-63439400D02*
G75*
G02*
X111641726Y-63439400I100000J0D01*
G01*
D13*
%TO.C,Q3*%
X130136726Y-58563677D02*
X133896726Y-58563677D01*
X130136726Y-65383677D02*
X133896726Y-65383677D01*
X133896726Y-58563677D02*
X133896726Y-59823677D01*
X133896726Y-65383677D02*
X133896726Y-64123677D01*
X128856726Y-58663677D02*
X128616726Y-58333677D01*
X129096726Y-58333677D01*
X128856726Y-58663677D01*
G36*
X128856726Y-58663677D02*
G01*
X128616726Y-58333677D01*
X129096726Y-58333677D01*
X128856726Y-58663677D01*
G37*
%TO.C,D4*%
X127088677Y-54865000D02*
X121578677Y-54865000D01*
X127088677Y-58165000D02*
X121578677Y-58165000D01*
X127088677Y-58165000D02*
X127088677Y-54865000D01*
%TO.C,C1*%
X75290000Y-56313748D02*
X75290000Y-57736252D01*
X77110000Y-56313748D02*
X77110000Y-57736252D01*
%TO.C,Rpull1*%
X121493677Y-61695436D02*
X121493677Y-63149564D01*
X123313677Y-61695436D02*
X123313677Y-63149564D01*
%TO.C,F1*%
X134565741Y-55605000D02*
X133361613Y-55605000D01*
X134565741Y-57425000D02*
X133361613Y-57425000D01*
%TO.C,D1*%
X70865000Y-60300000D02*
X70865000Y-64185000D01*
X70865000Y-64185000D02*
X73135000Y-64185000D01*
X73135000Y-64185000D02*
X73135000Y-60300000D01*
D15*
%TO.C,U2*%
X81820000Y-57075000D02*
X85820000Y-57075000D01*
X81820000Y-62175000D02*
X85820000Y-62175000D01*
D14*
X79475000Y-57120000D02*
G75*
G02*
X79275000Y-57120000I-100000J0D01*
G01*
X79275000Y-57120000D02*
G75*
G02*
X79475000Y-57120000I100000J0D01*
G01*
D13*
%TO.C,Q2*%
X129691177Y-54938677D02*
X129041177Y-54938677D01*
X129691177Y-54938677D02*
X130341177Y-54938677D01*
X129691177Y-58058677D02*
X129041177Y-58058677D01*
X129691177Y-58058677D02*
X130341177Y-58058677D01*
X128528677Y-54988677D02*
X128288677Y-54658677D01*
X128768677Y-54658677D01*
X128528677Y-54988677D01*
G36*
X128528677Y-54988677D02*
G01*
X128288677Y-54658677D01*
X128768677Y-54658677D01*
X128528677Y-54988677D01*
G37*
%TO.C,R6*%
X115143677Y-56513819D02*
X115143677Y-57967947D01*
X116963677Y-56513819D02*
X116963677Y-57967947D01*
%TO.C,C3*%
X125152533Y-61614150D02*
X125152533Y-63036654D01*
X126972533Y-61614150D02*
X126972533Y-63036654D01*
%TO.C,R2*%
X90090000Y-56735436D02*
X90090000Y-58189564D01*
X91910000Y-56735436D02*
X91910000Y-58189564D01*
D14*
%TO.C,IC1*%
X118036948Y-61485000D02*
X118686948Y-61485000D01*
X118686948Y-61485000D02*
X118686948Y-64385000D01*
X118686948Y-64385000D02*
X118036948Y-64385000D01*
X118036948Y-64385000D02*
X118036948Y-61485000D01*
X116536948Y-61335000D02*
X117686948Y-61335000D01*
D16*
%TO.C,Q1*%
X107953976Y-58412701D02*
X109909776Y-58412701D01*
X109909776Y-55136101D02*
X107953976Y-55136101D01*
%TD*%
M02*
