%TF.GenerationSoftware,KiCad,Pcbnew,8.0.5*%
%TF.CreationDate,2024-10-04T19:06:34+02:00*%
%TF.ProjectId,BMU,424d552e-6b69-4636-9164-5f7063625858,rev?*%
%TF.SameCoordinates,Original*%
%TF.FileFunction,Copper,L2,Bot*%
%TF.FilePolarity,Positive*%
%FSLAX46Y46*%
G04 Gerber Fmt 4.6, Leading zero omitted, Abs format (unit mm)*
G04 Created by KiCad (PCBNEW 8.0.5) date 2024-10-04 19:06:34*
%MOMM*%
%LPD*%
G01*
G04 APERTURE LIST*
%TA.AperFunction,ComponentPad*%
%ADD10C,2.000000*%
%TD*%
%TA.AperFunction,ComponentPad*%
%ADD11O,1.700000X1.100000*%
%TD*%
%TA.AperFunction,ComponentPad*%
%ADD12R,1.700000X1.700000*%
%TD*%
%TA.AperFunction,ComponentPad*%
%ADD13O,1.700000X1.700000*%
%TD*%
%TA.AperFunction,ViaPad*%
%ADD14C,0.600000*%
%TD*%
%TA.AperFunction,Conductor*%
%ADD15C,0.200000*%
%TD*%
G04 APERTURE END LIST*
D10*
%TO.P,hsup1,1,1*%
%TO.N,PMOS-Drain*%
X83274188Y-65202788D03*
%TD*%
%TO.P,gate1,1,1*%
%TO.N,Net-(IC1-OUT)*%
X87324188Y-65202788D03*
%TD*%
D11*
%TO.P,J1,S1,SHIELD*%
%TO.N,unconnected-(J1-SHIELD-PadS1)*%
X67300000Y-53975000D03*
X63500000Y-53975000D03*
X67300000Y-62615000D03*
X63500000Y-62615000D03*
%TD*%
D12*
%TO.P,J2,1,Pin_1*%
%TO.N,+5V*%
X138430000Y-54610000D03*
D13*
%TO.P,J2,2,Pin_2*%
%TO.N,GND*%
X138430000Y-57150000D03*
%TO.P,J2,3,Pin_3*%
%TO.N,Net-(D4-K)*%
X138430000Y-59690000D03*
%TO.P,J2,4,Pin_4*%
%TO.N,Net-(IC1-VSS)*%
X138430000Y-62230000D03*
%TO.P,J2,5,Pin_5*%
%TO.N,Net-(J2-Pin_5)*%
X138430000Y-64770000D03*
%TD*%
D10*
%TO.P,n2g1,1,1*%
%TO.N,Net-(U1-OC)*%
X83820000Y-53763338D03*
%TD*%
%TO.P,n2s1,1,1*%
%TO.N,Net-(IC1-VSS)*%
X80010000Y-53763338D03*
%TD*%
%TO.P,n1g1,1,1*%
%TO.N,Net-(U1-OD)*%
X87630000Y-53869172D03*
%TD*%
D14*
%TO.N,Net-(D4-K)*%
X131087026Y-58420000D03*
%TO.N,Net-(IC1-VSS)*%
X112037026Y-63500000D03*
X131087026Y-63500000D03*
X108636726Y-58769102D03*
%TO.N,GND*%
X73660000Y-63885000D03*
X69850000Y-63500000D03*
%TO.N,PMOS-Drain*%
X92710000Y-55880000D03*
X87630000Y-62230000D03*
X118387026Y-57150000D03*
X133688677Y-57080712D03*
%TO.N,Net-(U1-OC)*%
X110241726Y-58380723D03*
%TO.N,Net-(U1-OD)*%
X109336726Y-56070450D03*
%TO.N,Net-(J2-Pin_5)*%
X80010000Y-60260000D03*
X106378677Y-57110723D03*
X112037026Y-57150000D03*
%TO.N,Net-(IC1-VSS)*%
X121176063Y-63885000D03*
%TD*%
D15*
%TO.N,Net-(D4-K)*%
X132357026Y-59690000D02*
X131087026Y-58420000D01*
X138430000Y-59690000D02*
X132357026Y-59690000D01*
%TO.N,Net-(IC1-VSS)*%
X131087026Y-63500000D02*
X137160000Y-63500000D01*
X137160000Y-63500000D02*
X138430000Y-62230000D01*
%TO.N,Net-(J2-Pin_5)*%
X129465555Y-64770000D02*
X138430000Y-64770000D01*
X103007954Y-53740000D02*
X106378677Y-57110723D01*
X95617886Y-54669172D02*
X96547058Y-53740000D01*
X93072299Y-54669172D02*
X95617886Y-54669172D01*
X96547058Y-53740000D02*
X103007954Y-53740000D01*
X80010000Y-60260000D02*
X87481471Y-60260000D01*
X87481471Y-60260000D02*
X93072299Y-54669172D01*
%TO.N,Net-(IC1-VSS)*%
X81415834Y-55169172D02*
X80010000Y-53763338D01*
X88168478Y-55169172D02*
X81415834Y-55169172D01*
X95452200Y-54269172D02*
X89068478Y-54269172D01*
X96381372Y-53340000D02*
X95452200Y-54269172D01*
X103312268Y-53340000D02*
X96381372Y-53340000D01*
X106586933Y-56470450D02*
X106442718Y-56470450D01*
X106442718Y-56470450D02*
X103312268Y-53340000D01*
X108636726Y-58520243D02*
X106586933Y-56470450D01*
X89068478Y-54269172D02*
X88168478Y-55169172D01*
X108636726Y-58769102D02*
X108636726Y-58520243D01*
%TO.N,Net-(U1-OC)*%
X96520000Y-52070000D02*
X106184805Y-52070000D01*
%TO.N,Net-(U1-OD)*%
X96685686Y-52470000D02*
X103007954Y-52470000D01*
%TO.N,Net-(J2-Pin_5)*%
X120057026Y-65170000D02*
X112037026Y-57150000D01*
X129465555Y-64770000D02*
X129065555Y-65170000D01*
X129065555Y-65170000D02*
X120057026Y-65170000D01*
%TO.N,Net-(IC1-VSS)*%
X111437026Y-62900000D02*
X112037026Y-63500000D01*
X111788497Y-56550000D02*
X111437026Y-56901471D01*
X113841063Y-56550000D02*
X111788497Y-56550000D01*
X111437026Y-56901471D02*
X111437026Y-62900000D01*
X121176063Y-63885000D02*
X113841063Y-56550000D01*
%TO.N,unconnected-(J1-SHIELD-PadS1)*%
X63500000Y-62615000D02*
X67300000Y-62615000D01*
X63500000Y-53975000D02*
X63500000Y-62615000D01*
X67300000Y-53975000D02*
X63500000Y-53975000D01*
%TO.N,GND*%
X73275000Y-63500000D02*
X69850000Y-63500000D01*
X73660000Y-63885000D02*
X73275000Y-63500000D01*
%TO.N,PMOS-Drain*%
X133619389Y-57150000D02*
X118387026Y-57150000D01*
X133688677Y-57080712D02*
X133619389Y-57150000D01*
X87630000Y-62230000D02*
X92710000Y-57150000D01*
X92710000Y-57150000D02*
X92710000Y-55880000D01*
%TO.N,Net-(U1-OC)*%
X85014166Y-52569172D02*
X88168478Y-52569172D01*
X110241726Y-56126921D02*
X110241726Y-58380723D01*
X83820000Y-53763338D02*
X85014166Y-52569172D01*
X88168478Y-52569172D02*
X88939306Y-53340000D01*
X88939306Y-53340000D02*
X95250000Y-53340000D01*
X95250000Y-53340000D02*
X96520000Y-52070000D01*
X106184805Y-52070000D02*
X110241726Y-56126921D01*
%TO.N,Net-(U1-OD)*%
X106608404Y-56070450D02*
X103007954Y-52470000D01*
X109336726Y-56070450D02*
X106608404Y-56070450D01*
X96685686Y-52470000D02*
X95286514Y-53869172D01*
X95286514Y-53869172D02*
X87630000Y-53869172D01*
%TD*%
M02*
