<?xml version="1.0" standalone="no"?>
<!DOCTYPE svg PUBLIC "-//W3C//DTD SVG 20010904//EN"
 "http://www.w3.org/TR/2001/REC-SVG-20010904/DTD/svg10.dtd">
<svg version="1.0" xmlns="http://www.w3.org/2000/svg"
 width="568.000000pt" height="136.000000pt" viewBox="0 0 568.000000 136.000000"
 preserveAspectRatio="xMidYMid meet">

<g transform="translate(0.000000,136.000000) scale(0.100000,-0.100000)"
fill="#000000" stroke="none">
<path d="M481 1075 c-63 -18 -114 -53 -142 -99 -29 -47 -71 -186 -64 -215 3
-14 32 -69 65 -121 67 -105 71 -129 41 -215 -11 -31 -26 -54 -41 -62 -49 -25
-51 0 -10 122 16 49 30 90 30 92 0 2 -37 3 -82 1 l-83 -3 -37 -110 c-21 -60
-38 -122 -38 -137 -1 -100 209 -131 339 -50 53 32 80 75 117 186 34 100 29
134 -29 225 -72 111 -80 129 -73 174 11 66 35 107 62 107 30 0 30 0 -1 -90
-14 -40 -25 -77 -25 -82 0 -5 37 -8 82 -6 l81 3 29 85 c28 84 34 124 22 155
-17 44 -149 66 -243 40z"/>
<path d="M1585 1075 c-27 -8 -53 -14 -57 -15 -17 -1 -81 -66 -99 -101 -32 -63
-209 -599 -209 -634 0 -20 8 -39 23 -53 29 -27 116 -46 176 -38 58 8 164 59
183 89 17 26 88 222 88 243 0 11 -17 14 -79 14 l-79 0 -38 -112 c-33 -95 -43
-113 -61 -116 -15 -2 -23 2 -23 11 0 11 147 457 190 575 9 24 18 32 36 32 13
0 24 -4 24 -9 0 -5 -13 -46 -30 -90 l-29 -81 83 0 83 0 28 78 c40 112 42 143
14 176 -39 44 -129 57 -224 31z"/>
<path d="M3431 1075 c-61 -17 -101 -43 -132 -86 -24 -35 -229 -628 -229 -665
0 -41 17 -61 65 -79 51 -20 92 -16 155 14 44 21 60 20 60 -5 0 -10 12 -14 44
-14 l43 0 71 203 c38 111 66 206 62 210 -4 4 -49 6 -100 5 l-93 -3 -18 -50
c-22 -63 -23 -75 -4 -75 8 0 15 -2 15 -4 0 -12 -54 -153 -62 -163 -12 -15 -48
-17 -48 -4 0 11 176 530 196 579 9 21 20 32 33 32 27 0 26 -11 -4 -100 -14
-40 -25 -77 -25 -82 0 -5 37 -8 82 -6 l81 3 34 100 c39 116 37 148 -14 177
-43 26 -145 32 -212 13z"/>
<path d="M806 1033 c-9 -26 -16 -50 -16 -55 0 -4 20 -8 45 -8 25 0 45 -4 45
-9 0 -5 -54 -168 -120 -363 -66 -194 -120 -354 -120 -356 0 -1 41 -1 92 0 l91
3 122 360 123 360 51 3 c54 3 60 9 85 90 l7 22 -194 0 -195 0 -16 -47z"/>
<path d="M1105 673 c-76 -225 -140 -414 -143 -421 -3 -10 16 -12 88 -10 l93 3
43 125 c23 69 87 257 141 418 l100 292 -92 0 -91 0 -139 -407z"/>
<path d="M1877 978 c-19 -57 -82 -244 -141 -415 -58 -172 -106 -315 -106 -318
0 -3 40 -5 89 -5 l89 0 26 73 c14 39 37 104 50 142 14 39 25 61 25 50 1 -19
-12 -145 -24 -228 l-5 -37 99 0 99 0 6 28 c3 15 8 117 11 227 l7 200 119 187
c65 103 119 190 119 193 0 3 -37 5 -82 5 l-83 0 -80 -129 c-44 -72 -81 -129
-82 -127 -2 1 15 56 37 121 22 66 40 123 40 127 0 4 -40 8 -89 8 l-89 0 -35
-102z"/>
<path d="M2255 669 c-77 -227 -142 -416 -144 -421 -2 -6 56 -9 150 -6 149 3
156 4 208 33 30 16 64 46 77 65 29 43 94 233 94 272 0 27 -30 68 -50 68 -22 0
-7 17 40 42 54 30 69 54 106 162 31 89 31 126 1 154 -36 34 -80 42 -217 42
l-125 0 -140 -411z m322 285 c8 -22 -45 -175 -69 -196 -23 -20 -38 -23 -38 -8
0 6 16 57 36 115 35 102 56 128 71 89z m-110 -321 c9 -22 -64 -240 -88 -264
-10 -10 -25 -19 -33 -19 -11 0 -2 37 36 150 48 146 68 177 85 133z"/>
<path d="M2845 1068 c-3 -7 -59 -174 -125 -370 -87 -258 -119 -364 -114 -382
31 -124 340 -101 416 30 10 17 72 189 138 383 l119 351 -92 0 -92 0 -119 -353
c-65 -193 -123 -358 -129 -364 -11 -15 -43 -17 -51 -4 -3 4 48 167 114 360 66
194 120 354 120 357 0 2 -41 4 -90 4 -63 0 -92 -4 -95 -12z"/>
<path d="M3895 673 c-76 -225 -140 -414 -143 -421 -4 -11 24 -13 144 -10 140
3 152 5 204 31 73 37 95 68 141 198 49 138 49 160 5 195 l-34 27 47 23 c56 29
83 67 116 164 30 89 31 119 5 153 -29 37 -76 47 -221 47 l-126 0 -138 -407z
m321 282 c8 -20 -45 -174 -67 -196 -11 -11 -25 -19 -33 -19 -11 0 -7 23 20
103 19 56 36 108 39 115 6 17 34 15 41 -3z m-116 -315 c13 -8 8 -28 -29 -140
-35 -107 -47 -133 -67 -142 -13 -6 -26 -9 -29 -6 -4 4 26 99 85 266 13 34 17
37 40 22z"/>
<path d="M4485 1068 c-36 -101 -275 -814 -275 -820 0 -4 31 -8 69 -8 l69 0 73
217 c41 120 75 209 77 197 2 -12 -6 -105 -17 -207 -12 -102 -21 -190 -21 -196
0 -7 25 -11 63 -11 l62 0 119 220 c66 121 121 218 123 216 2 -1 -30 -100 -71
-220 l-75 -216 82 0 82 0 138 406 c76 223 141 412 144 420 4 12 -15 14 -118
14 l-124 0 -105 -206 c-58 -113 -106 -200 -108 -192 -1 7 11 100 26 206 l29
192 -119 0 c-86 0 -120 -3 -123 -12z"/>
<path d="M5170 1077 c0 -2 -54 -162 -120 -356 -66 -194 -120 -368 -120 -387 0
-124 275 -138 390 -19 28 28 51 87 156 396 68 200 124 365 124 367 0 1 -41 1
-92 0 l-92 -3 -120 -354 c-72 -210 -128 -358 -137 -364 -9 -6 -24 -7 -32 -4
-14 5 1 57 103 358 66 194 120 356 120 361 0 4 -40 8 -90 8 -49 0 -90 -2 -90
-3z"/>
<path d="M3597 585 l-16 -45 119 0 118 0 10 28 c5 15 13 35 17 45 7 16 -3 17
-113 17 l-120 0 -15 -45z"/>
</g>
</svg>
