M48
; DRILL file {KiCad 8.0.6} date 2024-11-02T11:22:25+0100
; FORMAT={-:-/ absolute / inch / decimal}
; #@! TF.CreationDate,2024-11-02T11:22:25+01:00
; #@! TF.GenerationSoftware,Kicad,Pcbnew,8.0.6
; #@! TF.FileFunction,Plated,1,2,PTH
FMAT,2
INCH
; #@! TA.AperFunction,Plated,PTH,ViaDrill
T1C0.0118
; #@! TA.AperFunction,Plated,PTH,ViaDrill
T2C0.0197
; #@! TA.AperFunction,Plated,PTH,ComponentDrill
T3C0.0354
; #@! TA.AperFunction,Plated,PTH,ComponentDrill
T4C0.0394
%
G90
G05
T1
X3.248Y-2.4803
X3.3465Y-4.8228
X3.3858Y-2.0866
X3.7402Y-2.2835
X3.9567Y-2.2638
X4.1142Y-3.5039
X4.1929Y-2.185
X4.2323Y-3.5039
X4.311Y-4.0157
X4.4094Y-2.2638
X4.5866Y-3.878
X4.6063Y-3.8189
X4.6654Y-2.6969
X4.7047Y-3.5039
X4.7244Y-3.6811
X4.9213Y-3.3858
X4.9213Y-3.7795
X4.9409Y-2.2047
X4.9409Y-3.248
X4.9803Y-3.6417
X5.0Y-2.4606
X5.0Y-2.6969
X5.0Y-2.8346
X5.0197Y-3.563
X5.2362Y-3.563
X5.2559Y-1.9291
X5.3543Y-3.3661
X5.4331Y-4.2323
X5.4921Y-1.7126
X5.4921Y-3.1496
X5.5689Y-2.8329
X5.6496Y-1.8898
X5.6496Y-2.4409
X5.6496Y-3.6811
X5.6496Y-4.2323
X5.8268Y-3.878
X5.9843Y-4.1929
X6.0039Y-3.7992
X6.0236Y-3.3858
X6.2402Y-2.6969
X6.2992Y-3.7598
X6.2992Y-3.878
X6.3189Y-2.4606
X6.3189Y-3.5827
X6.5551Y-2.7756
X6.6142Y-2.185
X6.811Y-2.185
X6.9882Y-3.248
X7.1063Y-2.185
X7.126Y-3.3661
X7.5197Y-2.6575
T2
X6.9882Y-2.5197
T3
X5.1181Y-2.1785
X5.1181Y-2.2785
X5.1181Y-2.3785
X5.1181Y-2.4785
X5.1181Y-2.5785
X5.1181Y-2.6785
X5.1181Y-2.7785
X5.1181Y-2.8785
X5.1181Y-2.9785
X5.1181Y-3.0785
X5.1181Y-3.1785
X5.1181Y-3.2785
X5.1181Y-3.3785
X5.1181Y-3.4785
X5.1181Y-3.5785
X5.1181Y-3.6785
X5.1181Y-3.7785
X5.1181Y-3.8785
X5.1181Y-3.9785
X6.1417Y-2.1785
X6.1417Y-2.2785
X6.1417Y-2.3785
X6.1417Y-2.4785
X6.1417Y-2.5785
X6.1417Y-2.6785
X6.1417Y-2.7785
X6.1417Y-2.8785
X6.1417Y-2.9785
X6.1417Y-3.0785
X6.1417Y-3.1785
X6.1417Y-3.2785
X6.1417Y-3.3785
X6.1417Y-3.4785
X6.1417Y-3.5785
X6.1417Y-3.6785
X6.1417Y-3.7785
X6.1417Y-3.8785
X6.1417Y-3.9785
T4
X3.0906Y-2.1457
X3.0906Y-2.2457
X3.0906Y-2.3457
X3.2677Y-3.8386
X3.2677Y-3.9386
X3.2677Y-4.0386
X3.2677Y-4.2323
X3.2677Y-4.3323
X3.2677Y-4.4323
X3.2677Y-4.6063
X3.2677Y-4.7063
X3.2677Y-4.8063
X3.2874Y-2.1457
X3.2874Y-2.2457
X3.2874Y-2.3457
X3.4843Y-2.1447
X3.4843Y-2.2447
X3.4843Y-2.3447
X3.5242Y-2.5236
X3.6242Y-2.5236
X3.6614Y-2.185
X3.6614Y-2.3819
X3.7242Y-2.5236
X3.8242Y-2.5236
X3.8583Y-2.185
X3.8583Y-2.3819
X3.9242Y-2.5236
X4.0945Y-2.185
X4.0945Y-2.3819
X4.2913Y-2.185
X4.2913Y-2.3819
X4.4094Y-3.9961
X4.4465Y-2.5268
X4.4866Y-2.7756
X4.5094Y-3.9961
X4.5276Y-2.185
X4.5276Y-2.3819
X4.5465Y-2.5268
X4.5866Y-2.7756
X4.6094Y-3.9961
X4.6465Y-2.5268
X4.6866Y-2.7756
X4.7094Y-3.9961
X4.7244Y-2.185
X4.7244Y-2.3819
X4.7465Y-2.5268
X4.7866Y-2.7756
X4.8094Y-3.9961
X4.8465Y-2.5268
X4.8866Y-2.7756
X5.3937Y-1.5945
X5.3937Y-1.6945
X5.3937Y-1.7945
X5.4134Y-4.4872
X5.4134Y-4.5872
X5.4134Y-4.6872
X5.5906Y-1.5935
X5.5906Y-1.6935
X5.5906Y-1.7935
X5.5906Y-4.4866
X5.5906Y-4.5866
X5.5906Y-4.6866
X5.7677Y-4.4882
X5.7677Y-4.5882
X5.7677Y-4.6882
X5.7874Y-1.5935
X5.7874Y-1.6935
X5.7874Y-1.7935
X6.3189Y-2.0866
X6.3189Y-2.2835
X6.4543Y-2.5244
X6.4724Y-3.9803
X6.502Y-2.8583
X6.5157Y-2.0866
X6.5157Y-2.2835
X6.5543Y-2.5244
X6.5724Y-3.9803
X6.602Y-2.8583
X6.6543Y-2.5244
X6.6724Y-3.9803
X6.6732Y-2.0866
X6.6732Y-2.2835
X6.702Y-2.8583
X6.7543Y-2.5244
X6.7724Y-3.9803
X6.802Y-2.8583
X6.8543Y-2.5244
X6.8701Y-2.0866
X6.8701Y-2.2835
X6.8724Y-3.9803
X6.902Y-2.8583
X6.9882Y-2.0866
X6.9882Y-2.2835
X7.185Y-2.0866
X7.185Y-2.2835
X7.3205Y-2.5244
X7.4205Y-2.5244
X7.4409Y-2.126
X7.4409Y-2.226
X7.4409Y-2.326
X7.5205Y-2.5244
X7.6205Y-2.5244
X7.6378Y-2.125
X7.6378Y-2.225
X7.6378Y-2.325
X7.7205Y-2.5244
X7.8346Y-2.125
X7.8346Y-2.225
X7.8346Y-2.325
X7.9921Y-3.7392
X7.9921Y-3.8392
X7.9921Y-3.9392
X7.9921Y-4.1722
X7.9921Y-4.2722
X7.9921Y-4.3722
X7.9921Y-4.5866
X7.9921Y-4.6866
X7.9921Y-4.7866
M30
