%TF.GenerationSoftware,KiCad,Pcbnew,8.0.6*%
%TF.CreationDate,2024-11-02T11:24:59+01:00*%
%TF.ProjectId,BMU,424d552e-6b69-4636-9164-5f7063625858,rev?*%
%TF.SameCoordinates,Original*%
%TF.FileFunction,Soldermask,Top*%
%TF.FilePolarity,Negative*%
%FSLAX46Y46*%
G04 Gerber Fmt 4.6, Leading zero omitted, Abs format (unit mm)*
G04 Created by KiCad (PCBNEW 8.0.6) date 2024-11-02 11:24:59*
%MOMM*%
%LPD*%
G01*
G04 APERTURE LIST*
G04 Aperture macros list*
%AMRoundRect*
0 Rectangle with rounded corners*
0 $1 Rounding radius*
0 $2 $3 $4 $5 $6 $7 $8 $9 X,Y pos of 4 corners*
0 Add a 4 corners polygon primitive as box body*
4,1,4,$2,$3,$4,$5,$6,$7,$8,$9,$2,$3,0*
0 Add four circle primitives for the rounded corners*
1,1,$1+$1,$2,$3*
1,1,$1+$1,$4,$5*
1,1,$1+$1,$6,$7*
1,1,$1+$1,$8,$9*
0 Add four rect primitives between the rounded corners*
20,1,$1+$1,$2,$3,$4,$5,0*
20,1,$1+$1,$4,$5,$6,$7,0*
20,1,$1+$1,$6,$7,$8,$9,0*
20,1,$1+$1,$8,$9,$2,$3,0*%
G04 Aperture macros list end*
%ADD10RoundRect,0.175000X-0.425000X0.175000X-0.425000X-0.175000X0.425000X-0.175000X0.425000X0.175000X0*%
%ADD11RoundRect,0.190000X0.410000X-0.190000X0.410000X0.190000X-0.410000X0.190000X-0.410000X-0.190000X0*%
%ADD12RoundRect,0.200000X0.400000X-0.200000X0.400000X0.200000X-0.400000X0.200000X-0.400000X-0.200000X0*%
%ADD13RoundRect,0.175000X0.425000X-0.175000X0.425000X0.175000X-0.425000X0.175000X-0.425000X-0.175000X0*%
%ADD14RoundRect,0.190000X-0.410000X0.190000X-0.410000X-0.190000X0.410000X-0.190000X0.410000X0.190000X0*%
%ADD15RoundRect,0.200000X-0.400000X0.200000X-0.400000X-0.200000X0.400000X-0.200000X0.400000X0.200000X0*%
%ADD16O,1.700000X1.100000*%
%ADD17RoundRect,0.250000X0.625000X-0.375000X0.625000X0.375000X-0.625000X0.375000X-0.625000X-0.375000X0*%
%ADD18RoundRect,0.250000X-0.625000X0.312500X-0.625000X-0.312500X0.625000X-0.312500X0.625000X0.312500X0*%
%ADD19R,1.700000X1.700000*%
%ADD20O,1.700000X1.700000*%
%ADD21C,2.000000*%
%ADD22C,3.000000*%
%ADD23RoundRect,0.250000X-0.650000X0.325000X-0.650000X-0.325000X0.650000X-0.325000X0.650000X0.325000X0*%
%ADD24RoundRect,0.250000X0.625000X-0.312500X0.625000X0.312500X-0.625000X0.312500X-0.625000X-0.312500X0*%
%ADD25RoundRect,0.102000X0.605000X0.295000X-0.605000X0.295000X-0.605000X-0.295000X0.605000X-0.295000X0*%
%ADD26RoundRect,0.375000X-0.625000X-0.375000X0.625000X-0.375000X0.625000X0.375000X-0.625000X0.375000X0*%
%ADD27RoundRect,0.500000X-0.500000X-1.400000X0.500000X-1.400000X0.500000X1.400000X-0.500000X1.400000X0*%
%ADD28R,1.150000X0.600000*%
%ADD29RoundRect,0.250000X1.000000X0.650000X-1.000000X0.650000X-1.000000X-0.650000X1.000000X-0.650000X0*%
%ADD30RoundRect,0.250000X0.375000X0.625000X-0.375000X0.625000X-0.375000X-0.625000X0.375000X-0.625000X0*%
%ADD31RoundRect,0.100500X-0.986500X-0.301500X0.986500X-0.301500X0.986500X0.301500X-0.986500X0.301500X0*%
%ADD32RoundRect,0.102000X-1.206500X-1.651000X1.206500X-1.651000X1.206500X1.651000X-1.206500X1.651000X0*%
%ADD33RoundRect,0.150000X-0.587500X-0.150000X0.587500X-0.150000X0.587500X0.150000X-0.587500X0.150000X0*%
%ADD34R,0.977900X0.558800*%
G04 APERTURE END LIST*
D10*
%TO.C,J1*%
X67380000Y-57795000D03*
D11*
X67380000Y-59815000D03*
D12*
X67380000Y-61045000D03*
D13*
X67380000Y-58795000D03*
D14*
X67380000Y-56775000D03*
D15*
X67380000Y-55545000D03*
D16*
X67300000Y-53975000D03*
X63500000Y-53975000D03*
X67300000Y-62615000D03*
X63500000Y-62615000D03*
%TD*%
D17*
%TO.C,D2*%
X91000000Y-64000000D03*
X91000000Y-61200000D03*
%TD*%
D18*
%TO.C,R7*%
X118593677Y-55687500D03*
X118593677Y-58612500D03*
%TD*%
D19*
%TO.C,J2*%
X138675172Y-54804082D03*
D20*
X138675172Y-57344082D03*
X138675172Y-59884082D03*
X138675172Y-62424082D03*
X138675172Y-64964082D03*
%TD*%
D21*
%TO.C,hsup1*%
X83274188Y-65202788D03*
%TD*%
D18*
%TO.C,R8*%
X113596726Y-60943677D03*
X113596726Y-63868677D03*
%TD*%
D22*
%TO.C,TP1*%
X101577701Y-59698208D03*
%TD*%
D23*
%TO.C,C2*%
X94615000Y-60960000D03*
X94615000Y-63910000D03*
%TD*%
D18*
%TO.C,R4*%
X94615000Y-55880000D03*
X94615000Y-58805000D03*
%TD*%
D24*
%TO.C,R5*%
X113596726Y-58788677D03*
X113596726Y-55863677D03*
%TD*%
D21*
%TO.C,n2g1*%
X83820000Y-53763338D03*
%TD*%
%TO.C,gate1*%
X87324188Y-65202788D03*
%TD*%
D18*
%TO.C,R1*%
X72000000Y-55500000D03*
X72000000Y-58425000D03*
%TD*%
%TO.C,R3*%
X76835000Y-60960000D03*
X76835000Y-63885000D03*
%TD*%
D21*
%TO.C,n2s1*%
X80010000Y-53763338D03*
%TD*%
%TO.C,n1g1*%
X87630000Y-53869172D03*
%TD*%
D25*
%TO.C,U1*%
X110241726Y-63439400D03*
X110241726Y-62489400D03*
X110241726Y-61539400D03*
X107731726Y-61539400D03*
X107731726Y-62489400D03*
X107731726Y-63439400D03*
%TD*%
D26*
%TO.C,Q3*%
X128836726Y-59673677D03*
X128836726Y-61973677D03*
D27*
X135136726Y-61973677D03*
D26*
X128836726Y-64273677D03*
%TD*%
D28*
%TO.C,IC1*%
X117111948Y-61985000D03*
X117111948Y-62935000D03*
X117111948Y-63885000D03*
X119611948Y-63885000D03*
X119611948Y-62935000D03*
X119611948Y-61985000D03*
%TD*%
D29*
%TO.C,D4*%
X125578677Y-56515000D03*
X121578677Y-56515000D03*
%TD*%
D23*
%TO.C,C1*%
X76200000Y-55550000D03*
X76200000Y-58500000D03*
%TD*%
D18*
%TO.C,Rpull1*%
X122403677Y-60960000D03*
X122403677Y-63885000D03*
%TD*%
D30*
%TO.C,F1*%
X135363677Y-56515000D03*
X132563677Y-56515000D03*
%TD*%
D17*
%TO.C,D1*%
X72000000Y-63300000D03*
X72000000Y-60500000D03*
%TD*%
D31*
%TO.C,U2*%
X81345000Y-57720000D03*
X81345000Y-58990000D03*
X81345000Y-60260000D03*
X81345000Y-61530000D03*
X86295000Y-61530000D03*
X86295000Y-60260000D03*
X86295000Y-58990000D03*
X86295000Y-57720000D03*
D32*
X83820000Y-59625000D03*
%TD*%
D33*
%TO.C,Q2*%
X128753677Y-55548677D03*
X128753677Y-57448677D03*
X130628677Y-56498677D03*
%TD*%
D18*
%TO.C,R6*%
X116053677Y-55778383D03*
X116053677Y-58703383D03*
%TD*%
D23*
%TO.C,C3*%
X126062533Y-60850402D03*
X126062533Y-63800402D03*
%TD*%
D18*
%TO.C,R2*%
X91000000Y-56000000D03*
X91000000Y-58925000D03*
%TD*%
D34*
%TO.C,Q1*%
X107592026Y-55824400D03*
X107592026Y-56774401D03*
X107592026Y-57724402D03*
X110271726Y-57724402D03*
X110271726Y-56774401D03*
X110271726Y-55824400D03*
%TD*%
M02*
