%TF.GenerationSoftware,KiCad,Pcbnew,8.0.6*%
%TF.CreationDate,2024-10-22T16:45:09+02:00*%
%TF.ProjectId,BMU,424d552e-6b69-4636-9164-5f7063625858,rev?*%
%TF.SameCoordinates,Original*%
%TF.FileFunction,Copper,L1,Top*%
%TF.FilePolarity,Positive*%
%FSLAX46Y46*%
G04 Gerber Fmt 4.6, Leading zero omitted, Abs format (unit mm)*
G04 Created by KiCad (PCBNEW 8.0.6) date 2024-10-22 16:45:09*
%MOMM*%
%LPD*%
G01*
G04 APERTURE LIST*
G04 Aperture macros list*
%AMRoundRect*
0 Rectangle with rounded corners*
0 $1 Rounding radius*
0 $2 $3 $4 $5 $6 $7 $8 $9 X,Y pos of 4 corners*
0 Add a 4 corners polygon primitive as box body*
4,1,4,$2,$3,$4,$5,$6,$7,$8,$9,$2,$3,0*
0 Add four circle primitives for the rounded corners*
1,1,$1+$1,$2,$3*
1,1,$1+$1,$4,$5*
1,1,$1+$1,$6,$7*
1,1,$1+$1,$8,$9*
0 Add four rect primitives between the rounded corners*
20,1,$1+$1,$2,$3,$4,$5,0*
20,1,$1+$1,$4,$5,$6,$7,0*
20,1,$1+$1,$6,$7,$8,$9,0*
20,1,$1+$1,$8,$9,$2,$3,0*%
G04 Aperture macros list end*
%TA.AperFunction,ComponentPad*%
%ADD10C,3.000000*%
%TD*%
%TA.AperFunction,SMDPad,CuDef*%
%ADD11RoundRect,0.175000X-0.425000X0.175000X-0.425000X-0.175000X0.425000X-0.175000X0.425000X0.175000X0*%
%TD*%
%TA.AperFunction,SMDPad,CuDef*%
%ADD12RoundRect,0.190000X0.410000X-0.190000X0.410000X0.190000X-0.410000X0.190000X-0.410000X-0.190000X0*%
%TD*%
%TA.AperFunction,SMDPad,CuDef*%
%ADD13RoundRect,0.200000X0.400000X-0.200000X0.400000X0.200000X-0.400000X0.200000X-0.400000X-0.200000X0*%
%TD*%
%TA.AperFunction,SMDPad,CuDef*%
%ADD14RoundRect,0.175000X0.425000X-0.175000X0.425000X0.175000X-0.425000X0.175000X-0.425000X-0.175000X0*%
%TD*%
%TA.AperFunction,SMDPad,CuDef*%
%ADD15RoundRect,0.190000X-0.410000X0.190000X-0.410000X-0.190000X0.410000X-0.190000X0.410000X0.190000X0*%
%TD*%
%TA.AperFunction,SMDPad,CuDef*%
%ADD16RoundRect,0.200000X-0.400000X0.200000X-0.400000X-0.200000X0.400000X-0.200000X0.400000X0.200000X0*%
%TD*%
%TA.AperFunction,ComponentPad*%
%ADD17O,1.700000X1.100000*%
%TD*%
%TA.AperFunction,SMDPad,CuDef*%
%ADD18RoundRect,0.250000X0.625000X-0.375000X0.625000X0.375000X-0.625000X0.375000X-0.625000X-0.375000X0*%
%TD*%
%TA.AperFunction,SMDPad,CuDef*%
%ADD19RoundRect,0.250000X-0.625000X0.312500X-0.625000X-0.312500X0.625000X-0.312500X0.625000X0.312500X0*%
%TD*%
%TA.AperFunction,ComponentPad*%
%ADD20R,1.700000X1.700000*%
%TD*%
%TA.AperFunction,ComponentPad*%
%ADD21O,1.700000X1.700000*%
%TD*%
%TA.AperFunction,ComponentPad*%
%ADD22C,2.000000*%
%TD*%
%TA.AperFunction,SMDPad,CuDef*%
%ADD23RoundRect,0.250000X-0.650000X0.325000X-0.650000X-0.325000X0.650000X-0.325000X0.650000X0.325000X0*%
%TD*%
%TA.AperFunction,SMDPad,CuDef*%
%ADD24RoundRect,0.250000X0.625000X-0.312500X0.625000X0.312500X-0.625000X0.312500X-0.625000X-0.312500X0*%
%TD*%
%TA.AperFunction,SMDPad,CuDef*%
%ADD25R,1.210000X0.590000*%
%TD*%
%TA.AperFunction,SMDPad,CuDef*%
%ADD26RoundRect,0.375000X-0.625000X-0.375000X0.625000X-0.375000X0.625000X0.375000X-0.625000X0.375000X0*%
%TD*%
%TA.AperFunction,SMDPad,CuDef*%
%ADD27RoundRect,0.500000X-0.500000X-1.400000X0.500000X-1.400000X0.500000X1.400000X-0.500000X1.400000X0*%
%TD*%
%TA.AperFunction,SMDPad,CuDef*%
%ADD28R,1.150000X0.600000*%
%TD*%
%TA.AperFunction,SMDPad,CuDef*%
%ADD29RoundRect,0.250000X1.000000X0.650000X-1.000000X0.650000X-1.000000X-0.650000X1.000000X-0.650000X0*%
%TD*%
%TA.AperFunction,SMDPad,CuDef*%
%ADD30RoundRect,0.250000X0.375000X0.625000X-0.375000X0.625000X-0.375000X-0.625000X0.375000X-0.625000X0*%
%TD*%
%TA.AperFunction,SMDPad,CuDef*%
%ADD31RoundRect,0.075000X-0.910000X-0.225000X0.910000X-0.225000X0.910000X0.225000X-0.910000X0.225000X0*%
%TD*%
%TA.AperFunction,SMDPad,CuDef*%
%ADD32R,2.413000X3.302000*%
%TD*%
%TA.AperFunction,SMDPad,CuDef*%
%ADD33RoundRect,0.150000X-0.587500X-0.150000X0.587500X-0.150000X0.587500X0.150000X-0.587500X0.150000X0*%
%TD*%
%TA.AperFunction,SMDPad,CuDef*%
%ADD34R,0.977900X0.558800*%
%TD*%
%TA.AperFunction,ViaPad*%
%ADD35C,0.600000*%
%TD*%
%TA.AperFunction,Conductor*%
%ADD36C,0.200000*%
%TD*%
%TA.AperFunction,Conductor*%
%ADD37C,0.400000*%
%TD*%
%TA.AperFunction,Conductor*%
%ADD38C,0.700000*%
%TD*%
%TA.AperFunction,Conductor*%
%ADD39C,1.000000*%
%TD*%
G04 APERTURE END LIST*
D10*
%TO.P,TP1,1,1*%
%TO.N,unconnected-(TP1-Pad1)*%
X101577701Y-59698208D03*
%TD*%
D11*
%TO.P,J1,A5,CC1*%
%TO.N,unconnected-(J1-CC1-PadA5)*%
X67380000Y-57795000D03*
D12*
%TO.P,J1,A9,VBUS*%
%TO.N,+5V*%
X67380000Y-59815000D03*
D13*
%TO.P,J1,A12,GND*%
%TO.N,GND*%
X67380000Y-61045000D03*
D14*
%TO.P,J1,B5,CC2*%
%TO.N,unconnected-(J1-CC2-PadB5)*%
X67380000Y-58795000D03*
D15*
%TO.P,J1,B9,VBUS*%
%TO.N,+5V*%
X67380000Y-56775000D03*
D16*
%TO.P,J1,B12,GND*%
%TO.N,GND*%
X67380000Y-55545000D03*
D17*
%TO.P,J1,S1,SHIELD*%
%TO.N,unconnected-(J1-SHIELD-PadS1)*%
X67300000Y-53975000D03*
X63500000Y-53975000D03*
X67300000Y-62615000D03*
X63500000Y-62615000D03*
%TD*%
D18*
%TO.P,D2,1,K*%
%TO.N,Net-(D2-K)*%
X91000000Y-64000000D03*
%TO.P,D2,2,A*%
%TO.N,Net-(D2-A)*%
X91000000Y-61200000D03*
%TD*%
D19*
%TO.P,R7,1*%
%TO.N,PMOS-Drain*%
X118593677Y-55687500D03*
%TO.P,R7,2*%
%TO.N,Net-(Q3-D)*%
X118593677Y-58612500D03*
%TD*%
D20*
%TO.P,J2,1,Pin_1*%
%TO.N,+5V*%
X138675172Y-54804082D03*
D21*
%TO.P,J2,2,Pin_2*%
%TO.N,GND*%
X138675172Y-57344082D03*
%TO.P,J2,3,Pin_3*%
%TO.N,Net-(D4-K)*%
X138675172Y-59884082D03*
%TO.P,J2,4,Pin_4*%
%TO.N,Net-(J2-Pin_4)*%
X138675172Y-62424082D03*
%TO.P,J2,5,Pin_5*%
%TO.N,Net-(IC1-VSS)*%
X138675172Y-64964082D03*
%TD*%
D22*
%TO.P,hsup1,1,1*%
%TO.N,PMOS-Drain*%
X83274188Y-65202788D03*
%TD*%
D19*
%TO.P,R8,1*%
%TO.N,Net-(IC1-VDD)*%
X113596726Y-60943677D03*
%TO.P,R8,2*%
%TO.N,Net-(IC1-VSS)*%
X113596726Y-63868677D03*
%TD*%
D23*
%TO.P,C2,1*%
%TO.N,Net-(U1-VCC)*%
X94615000Y-60960000D03*
%TO.P,C2,2*%
%TO.N,Net-(IC1-VSS)*%
X94615000Y-63910000D03*
%TD*%
D19*
%TO.P,R4,1*%
%TO.N,PMOS-Drain*%
X94615000Y-55880000D03*
%TO.P,R4,2*%
%TO.N,Net-(U1-VCC)*%
X94615000Y-58805000D03*
%TD*%
D24*
%TO.P,R5,1*%
%TO.N,Net-(U1-CS)*%
X113596726Y-58788677D03*
%TO.P,R5,2*%
%TO.N,Net-(U2-GND)*%
X113596726Y-55863677D03*
%TD*%
D22*
%TO.P,n2g1,1,1*%
%TO.N,Net-(U1-OC)*%
X83820000Y-53763338D03*
%TD*%
%TO.P,gate1,1,1*%
%TO.N,Net-(IC1-OUT)*%
X87324188Y-65202788D03*
%TD*%
D19*
%TO.P,R1,1*%
%TO.N,+5V*%
X72000000Y-55500000D03*
%TO.P,R1,2*%
%TO.N,Net-(D1-A)*%
X72000000Y-58425000D03*
%TD*%
%TO.P,R3,1*%
%TO.N,Net-(U2-PROG)*%
X76835000Y-60960000D03*
%TO.P,R3,2*%
%TO.N,GND*%
X76835000Y-63885000D03*
%TD*%
D22*
%TO.P,n2s1,1,1*%
%TO.N,Net-(IC1-VSS)*%
X80010000Y-53763338D03*
%TD*%
%TO.P,n1g1,1,1*%
%TO.N,Net-(U1-OD)*%
X87630000Y-53869172D03*
%TD*%
D25*
%TO.P,U1,1,OD*%
%TO.N,Net-(U1-OD)*%
X110241726Y-63439400D03*
%TO.P,U1,2,CS*%
%TO.N,Net-(U1-CS)*%
X110241726Y-62489400D03*
%TO.P,U1,3,OC*%
%TO.N,Net-(U1-OC)*%
X110241726Y-61539400D03*
%TO.P,U1,4,TD*%
%TO.N,unconnected-(U1-TD-Pad4)*%
X107731726Y-61539400D03*
%TO.P,U1,5,VCC*%
%TO.N,Net-(U1-VCC)*%
X107731726Y-62489400D03*
%TO.P,U1,6,GND*%
%TO.N,Net-(IC1-VSS)*%
X107731726Y-63439400D03*
%TD*%
D26*
%TO.P,Q3,1,G*%
%TO.N,Net-(IC1-OUT)*%
X128836726Y-59673677D03*
%TO.P,Q3,2,D*%
%TO.N,Net-(Q3-D)*%
X128836726Y-61973677D03*
D27*
X135136726Y-61973677D03*
D26*
%TO.P,Q3,3,S*%
%TO.N,Net-(IC1-VSS)*%
X128836726Y-64273677D03*
%TD*%
D28*
%TO.P,IC1,1,NC_1*%
%TO.N,unconnected-(IC1-NC_1-Pad1)*%
X117111948Y-61985000D03*
%TO.P,IC1,2,VDD*%
%TO.N,Net-(IC1-VDD)*%
X117111948Y-62935000D03*
%TO.P,IC1,3,VSS*%
%TO.N,Net-(IC1-VSS)*%
X117111948Y-63885000D03*
%TO.P,IC1,4,NC_2*%
%TO.N,unconnected-(IC1-NC_2-Pad4)*%
X119611948Y-63885000D03*
%TO.P,IC1,5,NC_3*%
%TO.N,unconnected-(IC1-NC_3-Pad5)*%
X119611948Y-62935000D03*
%TO.P,IC1,6,OUT*%
%TO.N,Net-(IC1-OUT)*%
X119611948Y-61985000D03*
%TD*%
D29*
%TO.P,D4,1,K*%
%TO.N,Net-(D4-K)*%
X125578677Y-56515000D03*
%TO.P,D4,2,A*%
%TO.N,+5V*%
X121578677Y-56515000D03*
%TD*%
D23*
%TO.P,C1,1*%
%TO.N,+5V*%
X76200000Y-55550000D03*
%TO.P,C1,2*%
%TO.N,Net-(U2-GND)*%
X76200000Y-58500000D03*
%TD*%
D19*
%TO.P,Rpull1,1*%
%TO.N,+5V*%
X122403677Y-60960000D03*
%TO.P,Rpull1,2*%
%TO.N,Net-(IC1-VSS)*%
X122403677Y-63885000D03*
%TD*%
D30*
%TO.P,F1,1*%
%TO.N,PMOS-Drain*%
X135363677Y-56515000D03*
%TO.P,F1,2*%
%TO.N,Net-(J2-Pin_4)*%
X132563677Y-56515000D03*
%TD*%
D18*
%TO.P,D1,1,K*%
%TO.N,Net-(D1-K)*%
X72000000Y-63300000D03*
%TO.P,D1,2,A*%
%TO.N,Net-(D1-A)*%
X72000000Y-60500000D03*
%TD*%
D31*
%TO.P,U2,1,TEMP*%
%TO.N,unconnected-(U2-TEMP-Pad1)*%
X81345000Y-57720000D03*
%TO.P,U2,2,PROG*%
%TO.N,Net-(U2-PROG)*%
X81345000Y-58990000D03*
%TO.P,U2,3,GND*%
%TO.N,Net-(U2-GND)*%
X81345000Y-60260000D03*
%TO.P,U2,4,VCC*%
%TO.N,+5V*%
X81345000Y-61530000D03*
%TO.P,U2,5,BAT*%
%TO.N,PMOS-Drain*%
X86295000Y-61530000D03*
%TO.P,U2,6,~{STDBY}*%
%TO.N,Net-(D1-K)*%
X86295000Y-60260000D03*
%TO.P,U2,7,~{CHRG}*%
%TO.N,Net-(D2-K)*%
X86295000Y-58990000D03*
%TO.P,U2,8,CE*%
%TO.N,Net-(D2-A)*%
X86295000Y-57720000D03*
D32*
%TO.P,U2,9,EP*%
%TO.N,unconnected-(U2-EP-Pad9)*%
X83820000Y-59625000D03*
%TD*%
D33*
%TO.P,Q2,1,G*%
%TO.N,+5V*%
X128753677Y-55548677D03*
%TO.P,Q2,2,S*%
%TO.N,Net-(D4-K)*%
X128753677Y-57448677D03*
%TO.P,Q2,3,D*%
%TO.N,Net-(J2-Pin_4)*%
X130628677Y-56498677D03*
%TD*%
D19*
%TO.P,R6,1*%
%TO.N,PMOS-Drain*%
X116053677Y-55778383D03*
%TO.P,R6,2*%
%TO.N,Net-(IC1-VDD)*%
X116053677Y-58703383D03*
%TD*%
D23*
%TO.P,C3,1*%
%TO.N,Net-(IC1-VDD)*%
X126062533Y-60850402D03*
%TO.P,C3,2*%
%TO.N,Net-(IC1-VSS)*%
X126062533Y-63800402D03*
%TD*%
D19*
%TO.P,R2,1*%
%TO.N,+5V*%
X91000000Y-56000000D03*
%TO.P,R2,2*%
%TO.N,Net-(D2-A)*%
X91000000Y-58925000D03*
%TD*%
D34*
%TO.P,Q1,1,1*%
%TO.N,Net-(U2-GND)*%
X107592026Y-55824400D03*
%TO.P,Q1,2,2*%
%TO.N,unconnected-(Q1-Pad2)*%
X107592026Y-56774401D03*
%TO.P,Q1,3,3*%
%TO.N,Net-(IC1-VSS)*%
X107592026Y-57724402D03*
%TO.P,Q1,4,4*%
%TO.N,Net-(U1-OC)*%
X110271726Y-57724402D03*
%TO.P,Q1,5,5*%
%TO.N,unconnected-(Q1-Pad5)*%
X110271726Y-56774401D03*
%TO.P,Q1,6,6*%
%TO.N,Net-(U1-OD)*%
X110271726Y-55824400D03*
%TD*%
D35*
%TO.N,GND*%
X137000000Y-58000000D03*
%TO.N,PMOS-Drain*%
X84738488Y-63738488D03*
%TO.N,Net-(IC1-VSS)*%
X121176063Y-63885000D03*
X112037026Y-63500000D03*
X131087026Y-63500000D03*
X108636726Y-58769102D03*
%TO.N,GND*%
X73660000Y-63885000D03*
%TO.N,Net-(D4-K)*%
X131087026Y-58420000D03*
%TO.N,Net-(U2-GND)*%
X80010000Y-60260000D03*
X104750000Y-56750000D03*
%TO.N,PMOS-Drain*%
X84875665Y-62183946D03*
X118387026Y-57150000D03*
X133688677Y-57080712D03*
%TO.N,Net-(U1-OC)*%
X110241726Y-58380723D03*
%TO.N,Net-(U1-OD)*%
X109336726Y-56070450D03*
%TO.N,Net-(J2-Pin_4)*%
X132800811Y-58737684D03*
%TD*%
D36*
%TO.N,Net-(D2-K)*%
X90727106Y-63000000D02*
X91000000Y-63000000D01*
X86717106Y-58990000D02*
X90727106Y-63000000D01*
X86295000Y-58990000D02*
X86717106Y-58990000D01*
%TO.N,Net-(J2-Pin_4)*%
X132563677Y-58500550D02*
X132563677Y-56515000D01*
X132800811Y-58737684D02*
X132563677Y-58500550D01*
%TO.N,GND*%
X137655918Y-57344082D02*
X137000000Y-58000000D01*
X138675172Y-57344082D02*
X137655918Y-57344082D01*
%TO.N,Net-(IC1-OUT)*%
X120386948Y-61985000D02*
X119611948Y-61985000D01*
X120561408Y-62159460D02*
X120386948Y-61985000D01*
X120561408Y-64404382D02*
X120561408Y-62159460D01*
X121562026Y-65405000D02*
X120561408Y-64404382D01*
%TO.N,Net-(IC1-VSS)*%
X121176063Y-63885000D02*
X121160106Y-63869043D01*
X121176063Y-63885000D02*
X122403677Y-63885000D01*
D37*
%TO.N,Net-(U1-CS)*%
X111500000Y-60885403D02*
X111500000Y-62036126D01*
X113596726Y-58788677D02*
X111500000Y-60885403D01*
X111500000Y-62036126D02*
X111146726Y-62389400D01*
D36*
%TO.N,Net-(IC1-VSS)*%
X108766548Y-63209578D02*
X108636726Y-63339400D01*
X108766548Y-58898924D02*
X108766548Y-63209578D01*
D37*
X108636726Y-58769102D02*
X108766548Y-58898924D01*
%TO.N,Net-(IC1-OUT)*%
X121833186Y-65676160D02*
X121562026Y-65405000D01*
X137062316Y-63937684D02*
X135323840Y-65676160D01*
X137062316Y-62913052D02*
X137062316Y-63937684D01*
X135323840Y-65676160D02*
X121833186Y-65676160D01*
X135937684Y-59437684D02*
X137062316Y-60562316D01*
X137062316Y-60562316D02*
X137062316Y-62913052D01*
X128899042Y-59437684D02*
X135937684Y-59437684D01*
D36*
%TO.N,Net-(U2-GND)*%
X106903076Y-55824400D02*
X107592026Y-55824400D01*
X105977476Y-56750000D02*
X106903076Y-55824400D01*
X104750000Y-56750000D02*
X105977476Y-56750000D01*
D37*
%TO.N,Net-(U2-PROG)*%
X74371620Y-59371620D02*
X75960000Y-60960000D01*
X74371620Y-57356936D02*
X74371620Y-59371620D01*
X74774613Y-56953943D02*
X74371620Y-57356936D01*
X77054399Y-56953943D02*
X74774613Y-56953943D01*
X79090456Y-58990000D02*
X77054399Y-56953943D01*
X81345000Y-58990000D02*
X79090456Y-58990000D01*
%TO.N,PMOS-Drain*%
X92359219Y-65189119D02*
X92710000Y-64838338D01*
X92710000Y-55880000D02*
X94615000Y-55880000D01*
X88218285Y-63517955D02*
X89889449Y-65189119D01*
X84959021Y-63517955D02*
X88218285Y-63517955D01*
X92710000Y-64838338D02*
X92710000Y-55880000D01*
X84865006Y-63611970D02*
X84959021Y-63517955D01*
X89889449Y-65189119D02*
X92359219Y-65189119D01*
%TO.N,Net-(IC1-OUT)*%
X88986976Y-66000000D02*
X120967026Y-66000000D01*
X120967026Y-66000000D02*
X121562026Y-65405000D01*
X87756976Y-64770000D02*
X88986976Y-66000000D01*
D36*
X87324188Y-65202788D02*
X87756976Y-64770000D01*
%TO.N,PMOS-Drain*%
X84738488Y-63738488D02*
X84865006Y-63611970D01*
X85529611Y-61530000D02*
X86295000Y-61530000D01*
D37*
X84875665Y-62183946D02*
X85529611Y-61530000D01*
%TO.N,Net-(D1-K)*%
X88481841Y-62917955D02*
X72382045Y-62917955D01*
X72382045Y-62917955D02*
X72277500Y-63022500D01*
X88654552Y-61634553D02*
X88654552Y-62745244D01*
X88654552Y-62745244D02*
X88481841Y-62917955D01*
X87279999Y-60260000D02*
X88654552Y-61634553D01*
X86295000Y-60260000D02*
X87279999Y-60260000D01*
%TO.N,PMOS-Drain*%
X83274188Y-65202788D02*
X84738488Y-63738488D01*
%TO.N,Net-(D2-K)*%
X91000000Y-63000000D02*
X91000000Y-64000000D01*
D36*
X86295000Y-58990000D02*
X86990000Y-58990000D01*
D38*
%TO.N,+5V*%
X73500000Y-56267349D02*
X74267349Y-55500000D01*
X73500000Y-59700798D02*
X73500000Y-56267349D01*
X75871702Y-62072500D02*
X73500000Y-59700798D01*
X80802500Y-62072500D02*
X75871702Y-62072500D01*
X81345000Y-61530000D02*
X80802500Y-62072500D01*
D36*
%TO.N,Net-(U2-PROG)*%
X75960000Y-60960000D02*
X76835000Y-60960000D01*
%TO.N,Net-(IC1-VSS)*%
X108035126Y-65000000D02*
X108227026Y-65191900D01*
D37*
X95705000Y-65000000D02*
X108035126Y-65000000D01*
X94615000Y-63910000D02*
X95705000Y-65000000D01*
%TO.N,Net-(U1-VCC)*%
X105416126Y-64000000D02*
X106926726Y-62489400D01*
X97020000Y-64000000D02*
X105416126Y-64000000D01*
X94615000Y-61595000D02*
X97020000Y-64000000D01*
X106926726Y-62489400D02*
X107731726Y-62489400D01*
D36*
X94615000Y-60960000D02*
X94615000Y-61595000D01*
D37*
X94615000Y-60960000D02*
X94615000Y-58805000D01*
%TO.N,Net-(IC1-VSS)*%
X113596726Y-63868677D02*
X112273503Y-65191900D01*
D36*
X107592026Y-57724402D02*
X108636726Y-58769102D01*
X125913275Y-63800402D02*
X125828677Y-63885000D01*
D37*
X112037026Y-63500000D02*
X113228049Y-63500000D01*
D36*
X113596726Y-63868677D02*
X117095625Y-63868677D01*
D37*
X126535808Y-64273677D02*
X126062533Y-63800402D01*
X108536726Y-63439400D02*
X107731726Y-63439400D01*
D36*
X126062533Y-63800402D02*
X125913275Y-63800402D01*
D37*
X112273503Y-65191900D02*
X108227026Y-65191900D01*
X128836726Y-64273677D02*
X126535808Y-64273677D01*
X130313349Y-64273677D02*
X128836726Y-64273677D01*
D36*
X117095625Y-63868677D02*
X117111948Y-63885000D01*
D37*
X131087026Y-63500000D02*
X130313349Y-64273677D01*
D36*
X122488275Y-63800402D02*
X122403677Y-63885000D01*
D37*
X107731726Y-63439400D02*
X107731726Y-64696600D01*
X107731726Y-64696600D02*
X108227026Y-65191900D01*
X126062533Y-63800402D02*
X122488275Y-63800402D01*
D36*
X113228049Y-63500000D02*
X113596726Y-63868677D01*
D37*
%TO.N,Net-(IC1-VDD)*%
X113596726Y-60943677D02*
X115588049Y-62935000D01*
D36*
X113813383Y-60943677D02*
X113596726Y-60943677D01*
D37*
X116053677Y-58703383D02*
X113813383Y-60943677D01*
X115588049Y-62935000D02*
X117111948Y-62935000D01*
D36*
%TO.N,GND*%
X76835000Y-63885000D02*
X73660000Y-63885000D01*
D38*
%TO.N,+5V*%
X106102026Y-53340000D02*
X106957026Y-54195000D01*
X123028677Y-55065000D02*
X128270000Y-55065000D01*
X106957026Y-54195000D02*
X119258678Y-54195000D01*
X128753677Y-55548677D02*
X129485703Y-55548677D01*
X74267349Y-55500000D02*
X76150000Y-55500000D01*
X76200000Y-55550000D02*
X76530000Y-55550000D01*
X76980000Y-56000000D02*
X91000000Y-56000000D01*
X76530000Y-55550000D02*
X76980000Y-56000000D01*
D39*
X121578677Y-56515000D02*
X121578677Y-60135000D01*
X72000000Y-55500000D02*
X70755000Y-56745000D01*
X121578677Y-60135000D02*
X122403677Y-60960000D01*
D38*
X76150000Y-55500000D02*
X76200000Y-55550000D01*
X91000000Y-56000000D02*
X93660000Y-53340000D01*
X129485703Y-55548677D02*
X130424380Y-54610000D01*
X119665352Y-54601674D02*
X121578677Y-56515000D01*
X121578677Y-56515000D02*
X123028677Y-55065000D01*
D39*
X120751177Y-55687500D02*
X121578677Y-56515000D01*
D38*
X68425000Y-59845000D02*
X67380000Y-59845000D01*
X70425000Y-57075000D02*
X70425000Y-57845000D01*
X70755000Y-56745000D02*
X67410000Y-56745000D01*
X128270000Y-55065000D02*
X128753677Y-55548677D01*
X74267349Y-55500000D02*
X72000000Y-55500000D01*
X70425000Y-57845000D02*
X68425000Y-59845000D01*
X130424380Y-54610000D02*
X138430000Y-54610000D01*
X93660000Y-53340000D02*
X106102026Y-53340000D01*
X119258678Y-54195000D02*
X119665352Y-54601674D01*
D36*
%TO.N,Net-(D1-A)*%
X72000000Y-60500000D02*
X72000000Y-58425000D01*
%TO.N,Net-(D1-K)*%
X72277500Y-63022500D02*
X72000000Y-63300000D01*
%TO.N,Net-(D2-A)*%
X86295000Y-57720000D02*
X89795000Y-57720000D01*
X89795000Y-57720000D02*
X91000000Y-58925000D01*
X91000000Y-58925000D02*
X91000000Y-61200000D01*
D37*
%TO.N,Net-(D4-K)*%
X131087026Y-58420000D02*
X129725000Y-58420000D01*
X129725000Y-58420000D02*
X128753677Y-57448677D01*
X128753677Y-57448677D02*
X126512354Y-57448677D01*
X126512354Y-57448677D02*
X125578677Y-56515000D01*
%TO.N,Net-(U2-GND)*%
X78260000Y-60260000D02*
X76500000Y-58500000D01*
D36*
X111060676Y-55245000D02*
X111695676Y-55880000D01*
D37*
X80010000Y-60260000D02*
X78260000Y-60260000D01*
D36*
X80685000Y-60310000D02*
X81500000Y-60310000D01*
X80010000Y-60260000D02*
X81345000Y-60260000D01*
X107592026Y-55824400D02*
X108171426Y-55245000D01*
X113580403Y-55880000D02*
X113596726Y-55863677D01*
X111695676Y-55880000D02*
X113580403Y-55880000D01*
X108171426Y-55245000D02*
X111060676Y-55245000D01*
%TO.N,PMOS-Drain*%
X116144560Y-55687500D02*
X116053677Y-55778383D01*
X106158677Y-54845000D02*
X115120294Y-54845000D01*
X115120294Y-54845000D02*
X116053677Y-55778383D01*
X94615000Y-55880000D02*
X96505000Y-53990000D01*
X96505000Y-53990000D02*
X105303677Y-53990000D01*
D37*
X134254389Y-56515000D02*
X133688677Y-57080712D01*
D36*
X118387026Y-55894151D02*
X118593677Y-55687500D01*
X105303677Y-53990000D02*
X106158677Y-54845000D01*
D37*
X135363677Y-56515000D02*
X134254389Y-56515000D01*
D36*
X118593677Y-55687500D02*
X116144560Y-55687500D01*
X118387026Y-57150000D02*
X118387026Y-55894151D01*
%TO.N,Net-(U1-OC)*%
X110241726Y-58380723D02*
X110241726Y-57754402D01*
D37*
X110241726Y-61539400D02*
X110241726Y-58380723D01*
D36*
X110241726Y-57754402D02*
X110271726Y-57724402D01*
D37*
%TO.N,Net-(U1-OD)*%
X109336726Y-63139949D02*
X109636177Y-63439400D01*
D36*
X109336726Y-56070450D02*
X109336726Y-63139949D01*
D37*
X110271726Y-55824400D02*
X109582776Y-55824400D01*
X109582776Y-55824400D02*
X109336726Y-56070450D01*
X109636177Y-63439400D02*
X110241726Y-63439400D01*
%TO.N,Net-(Q3-D)*%
X135136726Y-61973677D02*
X128836726Y-61973677D01*
%TO.N,Net-(U1-CS)*%
X111046726Y-62489400D02*
X110241726Y-62489400D01*
D36*
X111146726Y-62389400D02*
X111046726Y-62489400D01*
%TO.N,Net-(J2-Pin_4)*%
X130628677Y-56498677D02*
X132547354Y-56498677D01*
X132547354Y-56498677D02*
X132563677Y-56515000D01*
%TO.N,Net-(Q3-D)*%
X121966948Y-62865000D02*
X127945403Y-62865000D01*
X119653677Y-61385000D02*
X120486948Y-61385000D01*
X127945403Y-62865000D02*
X128836726Y-61973677D01*
X118593677Y-60325000D02*
X119653677Y-61385000D01*
X120486948Y-61385000D02*
X121966948Y-62865000D01*
X118593677Y-58612500D02*
X118593677Y-60325000D01*
%TO.N,Net-(IC1-VDD)*%
X117007060Y-57750000D02*
X116053677Y-58703383D01*
X119828677Y-57750000D02*
X117007060Y-57750000D01*
X119863677Y-57785000D02*
X119828677Y-57750000D01*
X119863677Y-60196043D02*
X119863677Y-57785000D01*
X126062533Y-60850402D02*
X124447935Y-62465000D01*
X124447935Y-62465000D02*
X122132634Y-62465000D01*
X122132634Y-62465000D02*
X119863677Y-60196043D01*
%TD*%
%TA.AperFunction,Conductor*%
%TO.N,GND*%
G36*
X75448438Y-63635000D02*
G01*
X78226438Y-63635000D01*
X78251548Y-63621289D01*
X78277906Y-63618455D01*
X82559453Y-63618455D01*
X82626492Y-63638140D01*
X82672247Y-63690944D01*
X82682191Y-63760102D01*
X82653166Y-63823658D01*
X82618470Y-63851510D01*
X82450684Y-63942310D01*
X82450682Y-63942311D01*
X82254445Y-64095049D01*
X82086021Y-64278005D01*
X81950014Y-64486181D01*
X81850124Y-64713906D01*
X81789080Y-64954963D01*
X81789078Y-64954975D01*
X81768545Y-65202782D01*
X81768545Y-65202793D01*
X81789078Y-65450600D01*
X81789080Y-65450612D01*
X81850124Y-65691669D01*
X81950014Y-65919394D01*
X82086021Y-66127570D01*
X82095730Y-66138117D01*
X82254444Y-66310526D01*
X82450679Y-66463262D01*
X82669378Y-66581616D01*
X82904574Y-66662359D01*
X83149853Y-66703288D01*
X83398523Y-66703288D01*
X83643802Y-66662359D01*
X83878998Y-66581616D01*
X84097697Y-66463262D01*
X84293932Y-66310526D01*
X84462352Y-66127573D01*
X84598361Y-65919395D01*
X84698251Y-65691669D01*
X84759296Y-65450609D01*
X84759297Y-65450600D01*
X84779831Y-65202793D01*
X84779831Y-65202782D01*
X84759297Y-64954975D01*
X84759296Y-64954972D01*
X84759296Y-64954967D01*
X84726756Y-64826471D01*
X84729381Y-64756651D01*
X84759279Y-64708352D01*
X84937778Y-64529853D01*
X84984501Y-64500495D01*
X85088010Y-64464277D01*
X85240750Y-64368304D01*
X85354280Y-64254774D01*
X85415603Y-64221289D01*
X85441961Y-64218455D01*
X85945797Y-64218455D01*
X86012836Y-64238140D01*
X86058591Y-64290944D01*
X86068535Y-64360102D01*
X86049606Y-64410274D01*
X86038461Y-64427335D01*
X86000013Y-64486184D01*
X85900124Y-64713906D01*
X85839080Y-64954963D01*
X85839078Y-64954975D01*
X85818545Y-65202782D01*
X85818545Y-65202793D01*
X85839078Y-65450600D01*
X85839080Y-65450612D01*
X85900124Y-65691669D01*
X86000014Y-65919394D01*
X86136021Y-66127570D01*
X86145730Y-66138117D01*
X86304444Y-66310526D01*
X86500679Y-66463262D01*
X86719378Y-66581616D01*
X86954574Y-66662359D01*
X87199853Y-66703288D01*
X87448523Y-66703288D01*
X87693802Y-66662359D01*
X87928998Y-66581616D01*
X88147697Y-66463262D01*
X88236666Y-66394014D01*
X88301656Y-66368373D01*
X88370196Y-66381939D01*
X88400506Y-66404188D01*
X88540430Y-66544112D01*
X88540433Y-66544114D01*
X88655165Y-66620775D01*
X88677658Y-66630091D01*
X88732061Y-66673930D01*
X88754128Y-66740224D01*
X88736851Y-66807923D01*
X88692208Y-66852039D01*
X88592692Y-66909496D01*
X88592683Y-66909502D01*
X87459005Y-68043181D01*
X87397682Y-68076666D01*
X87371324Y-68079500D01*
X81665962Y-68079500D01*
X81598923Y-68059815D01*
X81555053Y-68010954D01*
X80975596Y-66852039D01*
X80925529Y-66751905D01*
X80915512Y-66731871D01*
X80889311Y-66679469D01*
X80880756Y-66662359D01*
X80859115Y-66619077D01*
X80854734Y-66610315D01*
X80733763Y-66368373D01*
X80729402Y-66359651D01*
X80724447Y-66349741D01*
X80723232Y-66347311D01*
X80709447Y-66319741D01*
X80699148Y-66299143D01*
X80698045Y-66296937D01*
X80698044Y-66296935D01*
X80668569Y-66237985D01*
X80668568Y-66237983D01*
X80618635Y-66138117D01*
X80550864Y-66002575D01*
X80485944Y-65872736D01*
X80477077Y-65849374D01*
X80476392Y-65846814D01*
X80452790Y-65805934D01*
X80449296Y-65799440D01*
X80428193Y-65757234D01*
X80426433Y-65755249D01*
X80411825Y-65734980D01*
X80410502Y-65732689D01*
X80410499Y-65732685D01*
X80377157Y-65699343D01*
X80372061Y-65693933D01*
X80370053Y-65691669D01*
X80340758Y-65658632D01*
X80338535Y-65657164D01*
X80319186Y-65641372D01*
X80317316Y-65639502D01*
X80317314Y-65639500D01*
X80301154Y-65630169D01*
X80276458Y-65615911D01*
X80270148Y-65612011D01*
X80230783Y-65586021D01*
X80230779Y-65586019D01*
X80230771Y-65586016D01*
X80228257Y-65585178D01*
X80205489Y-65574937D01*
X80203193Y-65573611D01*
X80203187Y-65573608D01*
X80203186Y-65573608D01*
X80203183Y-65573607D01*
X80203180Y-65573606D01*
X80157618Y-65561397D01*
X80150505Y-65559261D01*
X80131860Y-65553046D01*
X80112175Y-65546485D01*
X80054801Y-65506613D01*
X80038802Y-65480817D01*
X80019224Y-65438403D01*
X75087578Y-65438403D01*
X75020539Y-65418718D01*
X74999897Y-65402084D01*
X74545812Y-64947999D01*
X73967314Y-64369500D01*
X73879941Y-64319055D01*
X73853187Y-64303608D01*
X73757633Y-64278005D01*
X73725892Y-64269500D01*
X73725891Y-64269500D01*
X73362265Y-64269500D01*
X73295226Y-64249815D01*
X73293208Y-64247486D01*
X75460001Y-64247486D01*
X75470494Y-64350197D01*
X75525641Y-64516619D01*
X75525643Y-64516624D01*
X75617684Y-64665845D01*
X75741654Y-64789815D01*
X75890875Y-64881856D01*
X75890880Y-64881858D01*
X76057302Y-64937005D01*
X76057309Y-64937006D01*
X76160019Y-64947499D01*
X76584999Y-64947499D01*
X77085000Y-64947499D01*
X77509972Y-64947499D01*
X77509986Y-64947498D01*
X77612697Y-64937005D01*
X77779119Y-64881858D01*
X77779124Y-64881856D01*
X77928345Y-64789815D01*
X78052315Y-64665845D01*
X78144356Y-64516624D01*
X78144358Y-64516619D01*
X78199505Y-64350197D01*
X78199506Y-64350190D01*
X78209999Y-64247486D01*
X78210000Y-64247473D01*
X78210000Y-64135000D01*
X77085000Y-64135000D01*
X77085000Y-64947499D01*
X76584999Y-64947499D01*
X76585000Y-64947498D01*
X76585000Y-64135000D01*
X75460001Y-64135000D01*
X75460001Y-64247486D01*
X73293208Y-64247486D01*
X73249471Y-64197011D01*
X73239527Y-64127853D01*
X73256725Y-64080405D01*
X73309814Y-63994334D01*
X73364999Y-63827797D01*
X73375005Y-63729852D01*
X73401401Y-63665161D01*
X73458582Y-63625010D01*
X73498363Y-63618455D01*
X75392093Y-63618455D01*
X75448438Y-63635000D01*
G37*
%TD.AperFunction*%
%TA.AperFunction,Conductor*%
G36*
X107858030Y-51313591D02*
G01*
X110249414Y-52509282D01*
X110255935Y-52512790D01*
X110296814Y-52536392D01*
X110299368Y-52537076D01*
X110322747Y-52545949D01*
X110325102Y-52547127D01*
X110325109Y-52547129D01*
X110371311Y-52556584D01*
X110378543Y-52558290D01*
X110424108Y-52570500D01*
X110426757Y-52570500D01*
X110451619Y-52573018D01*
X110454214Y-52573549D01*
X110501295Y-52570723D01*
X110508725Y-52570500D01*
X140345500Y-52570500D01*
X140412539Y-52590185D01*
X140458294Y-52642989D01*
X140469500Y-52694500D01*
X140469500Y-66619077D01*
X140449815Y-66686116D01*
X140397011Y-66731871D01*
X140345558Y-66743077D01*
X121505198Y-66751905D01*
X121438149Y-66732252D01*
X121392370Y-66679469D01*
X121382394Y-66610315D01*
X121411389Y-66546746D01*
X121417444Y-66540238D01*
X121564547Y-66393134D01*
X121625868Y-66359651D01*
X121676418Y-66359200D01*
X121722533Y-66368373D01*
X121764192Y-66376660D01*
X121764193Y-66376660D01*
X135392836Y-66376660D01*
X135501252Y-66355094D01*
X135528168Y-66349740D01*
X135600592Y-66319741D01*
X135655647Y-66296937D01*
X135655648Y-66296936D01*
X135655651Y-66296935D01*
X135770383Y-66220274D01*
X137107913Y-64882741D01*
X137169236Y-64849257D01*
X137238927Y-64854241D01*
X137294861Y-64896112D01*
X137319122Y-64959615D01*
X137340108Y-65199485D01*
X137340110Y-65199495D01*
X137401266Y-65427737D01*
X137401268Y-65427741D01*
X137401269Y-65427745D01*
X137500011Y-65639498D01*
X137501137Y-65641912D01*
X137501139Y-65641916D01*
X137581886Y-65757234D01*
X137636677Y-65835483D01*
X137803771Y-66002577D01*
X137900556Y-66070347D01*
X137997337Y-66138114D01*
X137997339Y-66138115D01*
X137997342Y-66138117D01*
X138211509Y-66237985D01*
X138439764Y-66299145D01*
X138628090Y-66315621D01*
X138675171Y-66319741D01*
X138675172Y-66319741D01*
X138675173Y-66319741D01*
X138714406Y-66316308D01*
X138910580Y-66299145D01*
X139138835Y-66237985D01*
X139353002Y-66138117D01*
X139546573Y-66002577D01*
X139713667Y-65835483D01*
X139849207Y-65641912D01*
X139949075Y-65427745D01*
X140010235Y-65199490D01*
X140030831Y-64964082D01*
X140030033Y-64954966D01*
X140023732Y-64882940D01*
X140010235Y-64728674D01*
X139953416Y-64516619D01*
X139949077Y-64500426D01*
X139949076Y-64500425D01*
X139949075Y-64500419D01*
X139849207Y-64286253D01*
X139848588Y-64285368D01*
X139713666Y-64092679D01*
X139546574Y-63925588D01*
X139546568Y-63925583D01*
X139361014Y-63795657D01*
X139317389Y-63741080D01*
X139310195Y-63671582D01*
X139341718Y-63609227D01*
X139361014Y-63592507D01*
X139420156Y-63551095D01*
X139546573Y-63462577D01*
X139713667Y-63295483D01*
X139849207Y-63101912D01*
X139949075Y-62887745D01*
X140010235Y-62659490D01*
X140030831Y-62424082D01*
X140010235Y-62188674D01*
X139949075Y-61960419D01*
X139849207Y-61746253D01*
X139837004Y-61728824D01*
X139713666Y-61552679D01*
X139546574Y-61385588D01*
X139546568Y-61385583D01*
X139361014Y-61255657D01*
X139317389Y-61201080D01*
X139310195Y-61131582D01*
X139341718Y-61069227D01*
X139361014Y-61052507D01*
X139388720Y-61033107D01*
X139546573Y-60922577D01*
X139713667Y-60755483D01*
X139849207Y-60561912D01*
X139949075Y-60347745D01*
X140010235Y-60119490D01*
X140030831Y-59884082D01*
X140010235Y-59648674D01*
X139963798Y-59475367D01*
X139949077Y-59420426D01*
X139949076Y-59420425D01*
X139949075Y-59420419D01*
X139849207Y-59206253D01*
X139830674Y-59179784D01*
X139713666Y-59012679D01*
X139546574Y-58845588D01*
X139546573Y-58845587D01*
X139360577Y-58715351D01*
X139316953Y-58660774D01*
X139309760Y-58591275D01*
X139341282Y-58528921D01*
X139360577Y-58512201D01*
X139546254Y-58382187D01*
X139713277Y-58215164D01*
X139848772Y-58021660D01*
X139948601Y-57807574D01*
X139948604Y-57807568D01*
X140005808Y-57594082D01*
X139108184Y-57594082D01*
X139141097Y-57537075D01*
X139175172Y-57409908D01*
X139175172Y-57278256D01*
X139141097Y-57151089D01*
X139108184Y-57094082D01*
X140005808Y-57094082D01*
X140005807Y-57094081D01*
X139948604Y-56880595D01*
X139948601Y-56880589D01*
X139848772Y-56666504D01*
X139848771Y-56666502D01*
X139713285Y-56473008D01*
X139713280Y-56473002D01*
X139591225Y-56350947D01*
X139557740Y-56289624D01*
X139562724Y-56219932D01*
X139604596Y-56163999D01*
X139635572Y-56147084D01*
X139725019Y-56113723D01*
X139767498Y-56097880D01*
X139767498Y-56097879D01*
X139767503Y-56097878D01*
X139882718Y-56011628D01*
X139968968Y-55896413D01*
X140019263Y-55761565D01*
X140025672Y-55701955D01*
X140025671Y-53906210D01*
X140019263Y-53846599D01*
X140016988Y-53840500D01*
X139968969Y-53711753D01*
X139968965Y-53711746D01*
X139882719Y-53596537D01*
X139882716Y-53596534D01*
X139767507Y-53510288D01*
X139767500Y-53510284D01*
X139632654Y-53459990D01*
X139632655Y-53459990D01*
X139573055Y-53453583D01*
X139573053Y-53453582D01*
X139573045Y-53453582D01*
X139573036Y-53453582D01*
X137777301Y-53453582D01*
X137777295Y-53453583D01*
X137717688Y-53459990D01*
X137582843Y-53510284D01*
X137582836Y-53510288D01*
X137467627Y-53596534D01*
X137382827Y-53709812D01*
X137326893Y-53751682D01*
X137283561Y-53759500D01*
X130340608Y-53759500D01*
X130176305Y-53792182D01*
X130176293Y-53792185D01*
X130148780Y-53803582D01*
X130021523Y-53856292D01*
X130021510Y-53856299D01*
X129882218Y-53949372D01*
X129882214Y-53949375D01*
X129207371Y-54624219D01*
X129146048Y-54657704D01*
X129076356Y-54652720D01*
X129032009Y-54624219D01*
X128812165Y-54404375D01*
X128812161Y-54404372D01*
X128672869Y-54311299D01*
X128672857Y-54311292D01*
X128530239Y-54252220D01*
X128530236Y-54252217D01*
X128530236Y-54252218D01*
X128518082Y-54247184D01*
X128518079Y-54247183D01*
X128518075Y-54247182D01*
X128353771Y-54214500D01*
X128353767Y-54214500D01*
X122944910Y-54214500D01*
X122944905Y-54214500D01*
X122780601Y-54247182D01*
X122780595Y-54247184D01*
X122768440Y-54252219D01*
X122768438Y-54252219D01*
X122768437Y-54252220D01*
X122625820Y-54311292D01*
X122625807Y-54311299D01*
X122486515Y-54404372D01*
X122486511Y-54404375D01*
X121812706Y-55078181D01*
X121751383Y-55111666D01*
X121725025Y-55114500D01*
X121644459Y-55114500D01*
X121577420Y-55094815D01*
X121556778Y-55078181D01*
X121388961Y-54910363D01*
X121388957Y-54910360D01*
X121225097Y-54800872D01*
X121225087Y-54800867D01*
X121043013Y-54725449D01*
X121043005Y-54725447D01*
X121016119Y-54720099D01*
X120954208Y-54687714D01*
X120952629Y-54686163D01*
X120330319Y-54063853D01*
X120330299Y-54063831D01*
X119800843Y-53534375D01*
X119800839Y-53534372D01*
X119661544Y-53441297D01*
X119661541Y-53441296D01*
X119536493Y-53389500D01*
X119506760Y-53377184D01*
X119506752Y-53377182D01*
X119342449Y-53344500D01*
X119342445Y-53344500D01*
X107360677Y-53344500D01*
X107293638Y-53324815D01*
X107272996Y-53308181D01*
X106644191Y-52679375D01*
X106644187Y-52679372D01*
X106504895Y-52586299D01*
X106504882Y-52586292D01*
X106354446Y-52523981D01*
X106354444Y-52523979D01*
X106354444Y-52523980D01*
X106350112Y-52522185D01*
X106350097Y-52522181D01*
X106185797Y-52489500D01*
X106185793Y-52489500D01*
X93576233Y-52489500D01*
X93576228Y-52489500D01*
X93411928Y-52522181D01*
X93411913Y-52522185D01*
X93407582Y-52523980D01*
X93407579Y-52523981D01*
X93257143Y-52586292D01*
X93257137Y-52586295D01*
X93257137Y-52586296D01*
X93117840Y-52679373D01*
X93117831Y-52679379D01*
X93117830Y-52679380D01*
X90896528Y-54900681D01*
X90835205Y-54934166D01*
X90808847Y-54937000D01*
X90324998Y-54937000D01*
X90324980Y-54937001D01*
X90222203Y-54947500D01*
X90222200Y-54947501D01*
X90055668Y-55002685D01*
X90055663Y-55002687D01*
X89906342Y-55094789D01*
X89887951Y-55113181D01*
X89826628Y-55146666D01*
X89800270Y-55149500D01*
X88773555Y-55149500D01*
X88706516Y-55129815D01*
X88660761Y-55077011D01*
X88650817Y-55007853D01*
X88679842Y-54944297D01*
X88682307Y-54941536D01*
X88818164Y-54793957D01*
X88954173Y-54585779D01*
X89054063Y-54358053D01*
X89115108Y-54116993D01*
X89118300Y-54078469D01*
X89135643Y-53869177D01*
X89135643Y-53869166D01*
X89115109Y-53621359D01*
X89115107Y-53621347D01*
X89054063Y-53380290D01*
X88954173Y-53152565D01*
X88818166Y-52944389D01*
X88796557Y-52920916D01*
X88649744Y-52761434D01*
X88453509Y-52608698D01*
X88453507Y-52608697D01*
X88453506Y-52608696D01*
X88234811Y-52490344D01*
X88234802Y-52490341D01*
X87999616Y-52409601D01*
X87754335Y-52368672D01*
X87505665Y-52368672D01*
X87260383Y-52409601D01*
X87025197Y-52490341D01*
X87025188Y-52490344D01*
X86806493Y-52608696D01*
X86610257Y-52761433D01*
X86441833Y-52944389D01*
X86305826Y-53152565D01*
X86205936Y-53380290D01*
X86144892Y-53621347D01*
X86144890Y-53621359D01*
X86124357Y-53869166D01*
X86124357Y-53869177D01*
X86144890Y-54116984D01*
X86144892Y-54116996D01*
X86205936Y-54358053D01*
X86305826Y-54585778D01*
X86441833Y-54793954D01*
X86463049Y-54817001D01*
X86577675Y-54941518D01*
X86608597Y-55004172D01*
X86600737Y-55073598D01*
X86556590Y-55127753D01*
X86490172Y-55149444D01*
X86486445Y-55149500D01*
X84843224Y-55149500D01*
X84776185Y-55129815D01*
X84730430Y-55077011D01*
X84720486Y-55007853D01*
X84749511Y-54944297D01*
X84767057Y-54927650D01*
X84839744Y-54871076D01*
X85008164Y-54688123D01*
X85144173Y-54479945D01*
X85244063Y-54252219D01*
X85305108Y-54011159D01*
X85310228Y-53949372D01*
X85325643Y-53763343D01*
X85325643Y-53763332D01*
X85305109Y-53515525D01*
X85305107Y-53515513D01*
X85244063Y-53274456D01*
X85144173Y-53046731D01*
X85008166Y-52838555D01*
X84937170Y-52761433D01*
X84839744Y-52655600D01*
X84643509Y-52502864D01*
X84643507Y-52502863D01*
X84643506Y-52502862D01*
X84424811Y-52384510D01*
X84424802Y-52384507D01*
X84189616Y-52303767D01*
X83944335Y-52262838D01*
X83695665Y-52262838D01*
X83450383Y-52303767D01*
X83215197Y-52384507D01*
X83215188Y-52384510D01*
X82996493Y-52502862D01*
X82800257Y-52655599D01*
X82631833Y-52838555D01*
X82495826Y-53046731D01*
X82395936Y-53274456D01*
X82334892Y-53515513D01*
X82334890Y-53515525D01*
X82314357Y-53763332D01*
X82314357Y-53763343D01*
X82334890Y-54011150D01*
X82334892Y-54011162D01*
X82395936Y-54252219D01*
X82495826Y-54479944D01*
X82631833Y-54688120D01*
X82631836Y-54688123D01*
X82800256Y-54871076D01*
X82872939Y-54927647D01*
X82913751Y-54984357D01*
X82917426Y-55054130D01*
X82882795Y-55114813D01*
X82820853Y-55147140D01*
X82796776Y-55149500D01*
X81033224Y-55149500D01*
X80966185Y-55129815D01*
X80920430Y-55077011D01*
X80910486Y-55007853D01*
X80939511Y-54944297D01*
X80957057Y-54927650D01*
X81029744Y-54871076D01*
X81198164Y-54688123D01*
X81334173Y-54479945D01*
X81434063Y-54252219D01*
X81495108Y-54011159D01*
X81500228Y-53949372D01*
X81515643Y-53763343D01*
X81515643Y-53763332D01*
X81495109Y-53515525D01*
X81495107Y-53515513D01*
X81434063Y-53274456D01*
X81334173Y-53046731D01*
X81198166Y-52838555D01*
X81127170Y-52761433D01*
X81029744Y-52655600D01*
X80833509Y-52502864D01*
X80833507Y-52502863D01*
X80833506Y-52502862D01*
X80614811Y-52384510D01*
X80614802Y-52384507D01*
X80379616Y-52303767D01*
X80134335Y-52262838D01*
X79885665Y-52262838D01*
X79640383Y-52303767D01*
X79405197Y-52384507D01*
X79405188Y-52384510D01*
X79186493Y-52502862D01*
X78990257Y-52655599D01*
X78821833Y-52838555D01*
X78685826Y-53046731D01*
X78585936Y-53274456D01*
X78524892Y-53515513D01*
X78524890Y-53515525D01*
X78504357Y-53763332D01*
X78504357Y-53763343D01*
X78524890Y-54011150D01*
X78524892Y-54011162D01*
X78585936Y-54252219D01*
X78685826Y-54479944D01*
X78821833Y-54688120D01*
X78821836Y-54688123D01*
X78990256Y-54871076D01*
X79062939Y-54927647D01*
X79103751Y-54984357D01*
X79107426Y-55054130D01*
X79072795Y-55114813D01*
X79010853Y-55147140D01*
X78986776Y-55149500D01*
X77705154Y-55149500D01*
X77638115Y-55129815D01*
X77592360Y-55077011D01*
X77587448Y-55064504D01*
X77561145Y-54985129D01*
X77534814Y-54905666D01*
X77442712Y-54756344D01*
X77318656Y-54632288D01*
X77169334Y-54540186D01*
X77002797Y-54485001D01*
X77002795Y-54485000D01*
X76900010Y-54474500D01*
X75499998Y-54474500D01*
X75499981Y-54474501D01*
X75397203Y-54485000D01*
X75397200Y-54485001D01*
X75230668Y-54540185D01*
X75230663Y-54540187D01*
X75146584Y-54592047D01*
X75083368Y-54631039D01*
X75018273Y-54649500D01*
X73199730Y-54649500D01*
X73132691Y-54629815D01*
X73112049Y-54613181D01*
X73093657Y-54594789D01*
X73093656Y-54594788D01*
X72944334Y-54502686D01*
X72777797Y-54447501D01*
X72777795Y-54447500D01*
X72675010Y-54437000D01*
X71324998Y-54437000D01*
X71324981Y-54437001D01*
X71222203Y-54447500D01*
X71222200Y-54447501D01*
X71055668Y-54502685D01*
X71055663Y-54502687D01*
X70906342Y-54594789D01*
X70782289Y-54718842D01*
X70690187Y-54868163D01*
X70690185Y-54868168D01*
X70676283Y-54910122D01*
X70635001Y-55034703D01*
X70635001Y-55034704D01*
X70635000Y-55034704D01*
X70624500Y-55137483D01*
X70624500Y-55409217D01*
X70604815Y-55476256D01*
X70588181Y-55496898D01*
X70226899Y-55858181D01*
X70165576Y-55891666D01*
X70139218Y-55894500D01*
X68604000Y-55894500D01*
X68536961Y-55874815D01*
X68491206Y-55822011D01*
X68486811Y-55801811D01*
X68480000Y-55795000D01*
X66280001Y-55795000D01*
X66280001Y-55801582D01*
X66286408Y-55872102D01*
X66286409Y-55872107D01*
X66336981Y-56034398D01*
X66336982Y-56034400D01*
X66377703Y-56101761D01*
X66395539Y-56169315D01*
X66377704Y-56230058D01*
X66335710Y-56299525D01*
X66285822Y-56459623D01*
X66279500Y-56529201D01*
X66279500Y-57020808D01*
X66285821Y-57090376D01*
X66285824Y-57090386D01*
X66337837Y-57257303D01*
X66338989Y-57327163D01*
X66336683Y-57333559D01*
X66336719Y-57333570D01*
X66285686Y-57497338D01*
X66285685Y-57497341D01*
X66285685Y-57497343D01*
X66279500Y-57565406D01*
X66279500Y-58024594D01*
X66283577Y-58069452D01*
X66285685Y-58092654D01*
X66285686Y-58092661D01*
X66336719Y-58256430D01*
X66333991Y-58257279D01*
X66341722Y-58313361D01*
X66335866Y-58333304D01*
X66336719Y-58333570D01*
X66285686Y-58497338D01*
X66285685Y-58497341D01*
X66285685Y-58497343D01*
X66279500Y-58565406D01*
X66279500Y-59024594D01*
X66285685Y-59092657D01*
X66285686Y-59092662D01*
X66285687Y-59092664D01*
X66336719Y-59256432D01*
X66334226Y-59257208D01*
X66342091Y-59314125D01*
X66337838Y-59332695D01*
X66318842Y-59393656D01*
X66285823Y-59499620D01*
X66280382Y-59559500D01*
X66279500Y-59569201D01*
X66279500Y-60060808D01*
X66285821Y-60130376D01*
X66285823Y-60130383D01*
X66335708Y-60290470D01*
X66335709Y-60290472D01*
X66377703Y-60359939D01*
X66395539Y-60427494D01*
X66377704Y-60488236D01*
X66336981Y-60555601D01*
X66336980Y-60555603D01*
X66286409Y-60717893D01*
X66280000Y-60788427D01*
X66280000Y-60795000D01*
X68479999Y-60795000D01*
X68483318Y-60791680D01*
X68499684Y-60735947D01*
X68552488Y-60690192D01*
X68579801Y-60681370D01*
X68673082Y-60662816D01*
X68729876Y-60639291D01*
X68827863Y-60598704D01*
X68967162Y-60505627D01*
X70479781Y-58993005D01*
X70541102Y-58959522D01*
X70610793Y-58964506D01*
X70666727Y-59006377D01*
X70685164Y-59041680D01*
X70690186Y-59056834D01*
X70782288Y-59206156D01*
X70906344Y-59330212D01*
X70906347Y-59330214D01*
X70911116Y-59333985D01*
X70951491Y-59391008D01*
X70954629Y-59460807D01*
X70919532Y-59521222D01*
X70911116Y-59528515D01*
X70906341Y-59532290D01*
X70782289Y-59656342D01*
X70690187Y-59805663D01*
X70690185Y-59805668D01*
X70678613Y-59840591D01*
X70635001Y-59972203D01*
X70635001Y-59972204D01*
X70635000Y-59972204D01*
X70624500Y-60074983D01*
X70624500Y-60925001D01*
X70624501Y-60925019D01*
X70635000Y-61027796D01*
X70635001Y-61027799D01*
X70690185Y-61194331D01*
X70690187Y-61194336D01*
X70719094Y-61241202D01*
X70782288Y-61343656D01*
X70906344Y-61467712D01*
X71055666Y-61559814D01*
X71222203Y-61614999D01*
X71324991Y-61625500D01*
X72675008Y-61625499D01*
X72777797Y-61614999D01*
X72944334Y-61559814D01*
X73093656Y-61467712D01*
X73217712Y-61343656D01*
X73309814Y-61194334D01*
X73364999Y-61027797D01*
X73364999Y-61027792D01*
X73366279Y-61023931D01*
X73406051Y-60966486D01*
X73470567Y-60939662D01*
X73539343Y-60951977D01*
X73571666Y-60975253D01*
X74602188Y-62005774D01*
X74635673Y-62067097D01*
X74630689Y-62136789D01*
X74588817Y-62192722D01*
X74523353Y-62217139D01*
X74514507Y-62217455D01*
X72895747Y-62217455D01*
X72856744Y-62211161D01*
X72777801Y-62185002D01*
X72777798Y-62185001D01*
X72777797Y-62185001D01*
X72777793Y-62185000D01*
X72777790Y-62185000D01*
X72675010Y-62174500D01*
X71324998Y-62174500D01*
X71324981Y-62174501D01*
X71222203Y-62185000D01*
X71222200Y-62185001D01*
X71055668Y-62240185D01*
X71055663Y-62240187D01*
X70906342Y-62332289D01*
X70782289Y-62456342D01*
X70690187Y-62605663D01*
X70690185Y-62605668D01*
X70672352Y-62659485D01*
X70635001Y-62772203D01*
X70635001Y-62772204D01*
X70635000Y-62772204D01*
X70624500Y-62874983D01*
X70624500Y-63725001D01*
X70624501Y-63725019D01*
X70635000Y-63827796D01*
X70635001Y-63827799D01*
X70690185Y-63994331D01*
X70690189Y-63994340D01*
X70708821Y-64024547D01*
X70727261Y-64091940D01*
X70706338Y-64158603D01*
X70652696Y-64203372D01*
X70603282Y-64213643D01*
X62082419Y-64213643D01*
X62015380Y-64193958D01*
X61969625Y-64141154D01*
X61958419Y-64089643D01*
X61958419Y-62986037D01*
X61978104Y-62918998D01*
X62030908Y-62873243D01*
X62100066Y-62863299D01*
X62163622Y-62892324D01*
X62196979Y-62938582D01*
X62219225Y-62992288D01*
X62254336Y-63077055D01*
X62269059Y-63112598D01*
X62302724Y-63162981D01*
X62384024Y-63284657D01*
X62530342Y-63430975D01*
X62530345Y-63430977D01*
X62702402Y-63545941D01*
X62893580Y-63625130D01*
X63094831Y-63665161D01*
X63096530Y-63665499D01*
X63096534Y-63665500D01*
X63096535Y-63665500D01*
X63903466Y-63665500D01*
X63903467Y-63665499D01*
X64106420Y-63625130D01*
X64297598Y-63545941D01*
X64469655Y-63430977D01*
X64615977Y-63284655D01*
X64730941Y-63112598D01*
X64810130Y-62921420D01*
X64850500Y-62718465D01*
X64850500Y-62511535D01*
X64850499Y-62511530D01*
X65949500Y-62511530D01*
X65949500Y-62718469D01*
X65989868Y-62921412D01*
X65989870Y-62921420D01*
X66055982Y-63081029D01*
X66069059Y-63112598D01*
X66102724Y-63162981D01*
X66184024Y-63284657D01*
X66330342Y-63430975D01*
X66330345Y-63430977D01*
X66502402Y-63545941D01*
X66693580Y-63625130D01*
X66894831Y-63665161D01*
X66896530Y-63665499D01*
X66896534Y-63665500D01*
X66896535Y-63665500D01*
X67703466Y-63665500D01*
X67703467Y-63665499D01*
X67906420Y-63625130D01*
X68097598Y-63545941D01*
X68269655Y-63430977D01*
X68415977Y-63284655D01*
X68530941Y-63112598D01*
X68610130Y-62921420D01*
X68650500Y-62718465D01*
X68650500Y-62511535D01*
X68610130Y-62308580D01*
X68530941Y-62117402D01*
X68415977Y-61945345D01*
X68415975Y-61945342D01*
X68330472Y-61859839D01*
X68296987Y-61798516D01*
X68301971Y-61728824D01*
X68330476Y-61684472D01*
X68335074Y-61679874D01*
X68423019Y-61534395D01*
X68473590Y-61372106D01*
X68480000Y-61301572D01*
X68480000Y-61295000D01*
X66280001Y-61295000D01*
X66280001Y-61301582D01*
X66286408Y-61372102D01*
X66286409Y-61372107D01*
X66336981Y-61534397D01*
X66387710Y-61618313D01*
X66405546Y-61685868D01*
X66384028Y-61752342D01*
X66350487Y-61785563D01*
X66330346Y-61799021D01*
X66330341Y-61799025D01*
X66184024Y-61945342D01*
X66069058Y-62117403D01*
X65989870Y-62308579D01*
X65989868Y-62308587D01*
X65949500Y-62511530D01*
X64850499Y-62511530D01*
X64810130Y-62308580D01*
X64730941Y-62117402D01*
X64615977Y-61945345D01*
X64615975Y-61945342D01*
X64469657Y-61799024D01*
X64355658Y-61722853D01*
X64297598Y-61684059D01*
X64296014Y-61683403D01*
X64106420Y-61604870D01*
X64106412Y-61604868D01*
X63903469Y-61564500D01*
X63903465Y-61564500D01*
X63096535Y-61564500D01*
X63096530Y-61564500D01*
X62893587Y-61604868D01*
X62893579Y-61604870D01*
X62702403Y-61684058D01*
X62530342Y-61799024D01*
X62384024Y-61945342D01*
X62269057Y-62117403D01*
X62196980Y-62291415D01*
X62153139Y-62345818D01*
X62086845Y-62367883D01*
X62019145Y-62350604D01*
X61971535Y-62299466D01*
X61958419Y-62243962D01*
X61958419Y-54346037D01*
X61978104Y-54278998D01*
X62030908Y-54233243D01*
X62100066Y-54223299D01*
X62163622Y-54252324D01*
X62196979Y-54298582D01*
X62269059Y-54472598D01*
X62289163Y-54502686D01*
X62384024Y-54644657D01*
X62530342Y-54790975D01*
X62530345Y-54790977D01*
X62702402Y-54905941D01*
X62893580Y-54985130D01*
X63088049Y-55023812D01*
X63096530Y-55025499D01*
X63096534Y-55025500D01*
X63096535Y-55025500D01*
X63903466Y-55025500D01*
X63903467Y-55025499D01*
X64106420Y-54985130D01*
X64297598Y-54905941D01*
X64469655Y-54790977D01*
X64615977Y-54644655D01*
X64730941Y-54472598D01*
X64810130Y-54281420D01*
X64850500Y-54078465D01*
X64850500Y-53871535D01*
X64850499Y-53871530D01*
X65949500Y-53871530D01*
X65949500Y-54078469D01*
X65989388Y-54278998D01*
X65989870Y-54281420D01*
X66069059Y-54472598D01*
X66089163Y-54502686D01*
X66184024Y-54644657D01*
X66330341Y-54790974D01*
X66330345Y-54790977D01*
X66350484Y-54804434D01*
X66395289Y-54858047D01*
X66403996Y-54927372D01*
X66387710Y-54971685D01*
X66336982Y-55055599D01*
X66336980Y-55055603D01*
X66286409Y-55217893D01*
X66280000Y-55288427D01*
X66280000Y-55295000D01*
X68479999Y-55295000D01*
X68479999Y-55288417D01*
X68473591Y-55217897D01*
X68473590Y-55217892D01*
X68423018Y-55055603D01*
X68335072Y-54910122D01*
X68330472Y-54905522D01*
X68296987Y-54844199D01*
X68301971Y-54774507D01*
X68330470Y-54730161D01*
X68415977Y-54644655D01*
X68530941Y-54472598D01*
X68610130Y-54281420D01*
X68650500Y-54078465D01*
X68650500Y-53871535D01*
X68610130Y-53668580D01*
X68530941Y-53477402D01*
X68415977Y-53305345D01*
X68415975Y-53305342D01*
X68269657Y-53159024D01*
X68183626Y-53101541D01*
X68097598Y-53044059D01*
X67906420Y-52964870D01*
X67906412Y-52964868D01*
X67703469Y-52924500D01*
X67703465Y-52924500D01*
X66896535Y-52924500D01*
X66896530Y-52924500D01*
X66693587Y-52964868D01*
X66693579Y-52964870D01*
X66502403Y-53044058D01*
X66330342Y-53159024D01*
X66184024Y-53305342D01*
X66069058Y-53477403D01*
X65989870Y-53668579D01*
X65989868Y-53668587D01*
X65949500Y-53871530D01*
X64850499Y-53871530D01*
X64810130Y-53668580D01*
X64730941Y-53477402D01*
X64615977Y-53305345D01*
X64615975Y-53305342D01*
X64469657Y-53159024D01*
X64383626Y-53101541D01*
X64297598Y-53044059D01*
X64106420Y-52964870D01*
X64106412Y-52964868D01*
X63903469Y-52924500D01*
X63903465Y-52924500D01*
X63096535Y-52924500D01*
X63096530Y-52924500D01*
X62893587Y-52964868D01*
X62893579Y-52964870D01*
X62702403Y-53044058D01*
X62530342Y-53159024D01*
X62384024Y-53305342D01*
X62269057Y-53477403D01*
X62196980Y-53651415D01*
X62153139Y-53705818D01*
X62086845Y-53727883D01*
X62019145Y-53710604D01*
X61971535Y-53659466D01*
X61958419Y-53603962D01*
X61958419Y-52798868D01*
X61978104Y-52731829D01*
X62030908Y-52686074D01*
X62080930Y-52674877D01*
X68098556Y-52602810D01*
X68164045Y-52620596D01*
X68735290Y-52964868D01*
X68802266Y-53005232D01*
X68825941Y-53023755D01*
X69445159Y-53642972D01*
X69445169Y-53642983D01*
X69449499Y-53647313D01*
X69449500Y-53647314D01*
X69542686Y-53740500D01*
X69632205Y-53792184D01*
X69656814Y-53806392D01*
X69784107Y-53840500D01*
X69784108Y-53840500D01*
X69784109Y-53840500D01*
X74995890Y-53840500D01*
X74995892Y-53840500D01*
X75123186Y-53806392D01*
X75237314Y-53740500D01*
X75401170Y-53576643D01*
X75433567Y-53553333D01*
X75454459Y-53542927D01*
X75454462Y-53542927D01*
X75524249Y-53454738D01*
X75533773Y-53444040D01*
X77640995Y-51336819D01*
X77702318Y-51303334D01*
X77728676Y-51300500D01*
X107802576Y-51300500D01*
X107858030Y-51313591D01*
G37*
%TD.AperFunction*%
%TA.AperFunction,Conductor*%
G36*
X137267712Y-55480185D02*
G01*
X137313467Y-55532989D01*
X137324673Y-55584500D01*
X137324673Y-55701958D01*
X137331080Y-55761565D01*
X137381374Y-55896410D01*
X137381378Y-55896417D01*
X137467624Y-56011626D01*
X137467627Y-56011629D01*
X137582836Y-56097875D01*
X137582843Y-56097879D01*
X137642647Y-56120184D01*
X137714770Y-56147084D01*
X137770703Y-56188955D01*
X137795121Y-56254419D01*
X137780270Y-56322692D01*
X137759119Y-56350947D01*
X137637058Y-56473008D01*
X137501572Y-56666502D01*
X137501571Y-56666504D01*
X137401742Y-56880589D01*
X137401739Y-56880595D01*
X137344536Y-57094081D01*
X137344536Y-57094082D01*
X138242160Y-57094082D01*
X138209247Y-57151089D01*
X138175172Y-57278256D01*
X138175172Y-57409908D01*
X138209247Y-57537075D01*
X138242160Y-57594082D01*
X137344536Y-57594082D01*
X137401739Y-57807568D01*
X137401742Y-57807574D01*
X137501571Y-58021660D01*
X137637066Y-58215164D01*
X137804089Y-58382187D01*
X137989767Y-58512201D01*
X138033391Y-58566778D01*
X138040584Y-58636277D01*
X138009062Y-58698631D01*
X137989767Y-58715351D01*
X137803766Y-58845590D01*
X137636677Y-59012679D01*
X137501137Y-59206251D01*
X137501136Y-59206253D01*
X137401270Y-59420417D01*
X137401266Y-59420426D01*
X137353267Y-59599566D01*
X137316902Y-59659227D01*
X137254055Y-59689756D01*
X137184680Y-59681461D01*
X137145811Y-59655154D01*
X136384230Y-58893572D01*
X136384229Y-58893571D01*
X136269491Y-58816906D01*
X136142016Y-58764105D01*
X136142006Y-58764102D01*
X136006680Y-58737184D01*
X136006678Y-58737184D01*
X136006677Y-58737184D01*
X133717133Y-58737184D01*
X133650094Y-58717499D01*
X133604339Y-58664695D01*
X133593913Y-58627067D01*
X133586180Y-58558434D01*
X133586179Y-58558432D01*
X133586179Y-58558429D01*
X133526600Y-58388162D01*
X133430627Y-58235422D01*
X133303073Y-58107868D01*
X133303071Y-58107866D01*
X133303069Y-58107865D01*
X133222204Y-58057053D01*
X133175913Y-58004718D01*
X133164177Y-57952060D01*
X133164177Y-57945448D01*
X133183862Y-57878409D01*
X133236666Y-57832654D01*
X133249170Y-57827743D01*
X133258011Y-57824814D01*
X133258014Y-57824811D01*
X133264564Y-57821759D01*
X133265368Y-57823483D01*
X133323400Y-57807589D01*
X133362091Y-57814527D01*
X133509414Y-57866078D01*
X133509420Y-57866079D01*
X133509422Y-57866080D01*
X133509423Y-57866080D01*
X133509427Y-57866081D01*
X133688673Y-57886277D01*
X133688677Y-57886277D01*
X133688681Y-57886277D01*
X133867926Y-57866081D01*
X133867929Y-57866080D01*
X133867932Y-57866080D01*
X134038199Y-57806501D01*
X134190939Y-57710528D01*
X134256707Y-57644760D01*
X134318030Y-57611275D01*
X134387722Y-57616259D01*
X134432069Y-57644760D01*
X134520021Y-57732712D01*
X134669343Y-57824814D01*
X134835880Y-57879999D01*
X134938668Y-57890500D01*
X135788685Y-57890499D01*
X135788693Y-57890498D01*
X135788696Y-57890498D01*
X135857544Y-57883465D01*
X135891474Y-57879999D01*
X136058011Y-57824814D01*
X136207333Y-57732712D01*
X136331389Y-57608656D01*
X136423491Y-57459334D01*
X136478676Y-57292797D01*
X136489177Y-57190009D01*
X136489176Y-55839992D01*
X136478676Y-55737203D01*
X136441000Y-55623504D01*
X136438598Y-55553676D01*
X136474330Y-55493634D01*
X136536850Y-55462441D01*
X136558706Y-55460500D01*
X137200673Y-55460500D01*
X137267712Y-55480185D01*
G37*
%TD.AperFunction*%
%TD*%
M02*
