%TF.GenerationSoftware,KiCad,Pcbnew,8.0.6*%
%TF.CreationDate,2024-10-22T16:45:09+02:00*%
%TF.ProjectId,BMU,424d552e-6b69-4636-9164-5f7063625858,rev?*%
%TF.SameCoordinates,Original*%
%TF.FileFunction,Copper,L2,Bot*%
%TF.FilePolarity,Positive*%
%FSLAX46Y46*%
G04 Gerber Fmt 4.6, Leading zero omitted, Abs format (unit mm)*
G04 Created by KiCad (PCBNEW 8.0.6) date 2024-10-22 16:45:09*
%MOMM*%
%LPD*%
G01*
G04 APERTURE LIST*
%TA.AperFunction,ComponentPad*%
%ADD10C,3.000000*%
%TD*%
%TA.AperFunction,ComponentPad*%
%ADD11O,1.700000X1.100000*%
%TD*%
%TA.AperFunction,ComponentPad*%
%ADD12R,1.700000X1.700000*%
%TD*%
%TA.AperFunction,ComponentPad*%
%ADD13O,1.700000X1.700000*%
%TD*%
%TA.AperFunction,ComponentPad*%
%ADD14C,2.000000*%
%TD*%
%TA.AperFunction,ViaPad*%
%ADD15C,0.600000*%
%TD*%
%TA.AperFunction,Conductor*%
%ADD16C,0.400000*%
%TD*%
%TA.AperFunction,Conductor*%
%ADD17C,0.200000*%
%TD*%
G04 APERTURE END LIST*
D10*
%TO.P,TP1,1,1*%
%TO.N,unconnected-(TP1-Pad1)*%
X101577701Y-59698208D03*
%TD*%
D11*
%TO.P,J1,S1,SHIELD*%
%TO.N,unconnected-(J1-SHIELD-PadS1)*%
X67300000Y-53975000D03*
X63500000Y-53975000D03*
X67300000Y-62615000D03*
X63500000Y-62615000D03*
%TD*%
D12*
%TO.P,J2,1,Pin_1*%
%TO.N,+5V*%
X138675172Y-54804082D03*
D13*
%TO.P,J2,2,Pin_2*%
%TO.N,GND*%
X138675172Y-57344082D03*
%TO.P,J2,3,Pin_3*%
%TO.N,Net-(D4-K)*%
X138675172Y-59884082D03*
%TO.P,J2,4,Pin_4*%
%TO.N,Net-(J2-Pin_4)*%
X138675172Y-62424082D03*
%TO.P,J2,5,Pin_5*%
%TO.N,Net-(IC1-VSS)*%
X138675172Y-64964082D03*
%TD*%
D14*
%TO.P,hsup1,1,1*%
%TO.N,PMOS-Drain*%
X83274188Y-65202788D03*
%TD*%
%TO.P,n2g1,1,1*%
%TO.N,Net-(U1-OC)*%
X83820000Y-53763338D03*
%TD*%
%TO.P,gate1,1,1*%
%TO.N,Net-(IC1-OUT)*%
X87324188Y-65202788D03*
%TD*%
%TO.P,n2s1,1,1*%
%TO.N,Net-(IC1-VSS)*%
X80010000Y-53763338D03*
%TD*%
%TO.P,n1g1,1,1*%
%TO.N,Net-(U1-OD)*%
X87630000Y-53869172D03*
%TD*%
D15*
%TO.N,GND*%
X137000000Y-58000000D03*
%TO.N,PMOS-Drain*%
X84738488Y-63738488D03*
%TO.N,Net-(IC1-VSS)*%
X121176063Y-63885000D03*
X112037026Y-63500000D03*
X131087026Y-63500000D03*
X108636726Y-58769102D03*
%TO.N,GND*%
X73660000Y-63885000D03*
%TO.N,Net-(D4-K)*%
X131087026Y-58420000D03*
%TO.N,Net-(U2-GND)*%
X80010000Y-60260000D03*
X104750000Y-56750000D03*
%TO.N,PMOS-Drain*%
X84875665Y-62183946D03*
X118387026Y-57150000D03*
X133688677Y-57080712D03*
%TO.N,Net-(U1-OC)*%
X110241726Y-58380723D03*
%TO.N,Net-(U1-OD)*%
X109336726Y-56070450D03*
%TO.N,Net-(J2-Pin_4)*%
X132800811Y-58737684D03*
%TD*%
D16*
%TO.N,Net-(J2-Pin_4)*%
X130086938Y-58966938D02*
X132080000Y-60960000D01*
X130086938Y-57689119D02*
X130086938Y-58966938D01*
X137211090Y-60960000D02*
X138675172Y-62424082D01*
X131752246Y-57689119D02*
X130086938Y-57689119D01*
X132800811Y-58737684D02*
X131752246Y-57689119D01*
X132080000Y-60960000D02*
X137211090Y-60960000D01*
%TO.N,Net-(IC1-VSS)*%
X111437026Y-56901471D02*
X111437026Y-62900000D01*
X113841063Y-56550000D02*
X111788497Y-56550000D01*
X121176063Y-63885000D02*
X113841063Y-56550000D01*
X111437026Y-62900000D02*
X112037026Y-63500000D01*
X111788497Y-56550000D02*
X111437026Y-56901471D01*
%TO.N,PMOS-Drain*%
X119037026Y-56500000D02*
X118387026Y-57150000D01*
X133107965Y-56500000D02*
X119037026Y-56500000D01*
X133688677Y-57080712D02*
X133107965Y-56500000D01*
%TO.N,Net-(U1-OC)*%
X95748695Y-51751305D02*
X106308708Y-51751305D01*
X110241726Y-55684323D02*
X110241726Y-58380723D01*
X95500000Y-52000000D02*
X95748695Y-51751305D01*
X106308708Y-51751305D02*
X110241726Y-55684323D01*
X94419734Y-53150266D02*
X95500000Y-52070000D01*
X89650266Y-53150266D02*
X94419734Y-53150266D01*
X88500000Y-52000000D02*
X89650266Y-53150266D01*
X85583338Y-52000000D02*
X88500000Y-52000000D01*
X95500000Y-52070000D02*
X95500000Y-52000000D01*
X83820000Y-53763338D02*
X85583338Y-52000000D01*
%TO.N,Net-(U2-GND)*%
X103500000Y-55500000D02*
X92241471Y-55500000D01*
X104750000Y-56750000D02*
X103500000Y-55500000D01*
X92241471Y-55500000D02*
X87481471Y-60260000D01*
X87481471Y-60260000D02*
X80010000Y-60260000D01*
%TO.N,Net-(U1-OD)*%
X95286514Y-53869172D02*
X87630000Y-53869172D01*
X96685686Y-52470000D02*
X95286514Y-53869172D01*
X105736277Y-52470000D02*
X96685686Y-52470000D01*
X109336726Y-56070449D02*
X105736277Y-52470000D01*
X109336726Y-56070450D02*
X109336726Y-56070449D01*
%TO.N,Net-(IC1-VSS)*%
X88650257Y-55309155D02*
X81555817Y-55309155D01*
X104472268Y-54500000D02*
X89459412Y-54500000D01*
X89459412Y-54500000D02*
X88650257Y-55309155D01*
X108636726Y-58520243D02*
X106586933Y-56470450D01*
D17*
X108636726Y-58769102D02*
X108636726Y-58520243D01*
D16*
X106586933Y-56470450D02*
X106442718Y-56470450D01*
X106442718Y-56470450D02*
X104472268Y-54500000D01*
X81555817Y-55309155D02*
X80010000Y-53763338D01*
D17*
%TO.N,PMOS-Drain*%
X84875665Y-63601311D02*
X84738488Y-63738488D01*
D16*
X84875665Y-62183946D02*
X84875665Y-63601311D01*
D17*
%TO.N,unconnected-(J1-SHIELD-PadS1)*%
X63500000Y-62615000D02*
X67300000Y-62615000D01*
X63500000Y-53975000D02*
X63500000Y-62615000D01*
X67300000Y-53975000D02*
X63500000Y-53975000D01*
D16*
%TO.N,Net-(IC1-VSS)*%
X131087026Y-63500000D02*
X137725685Y-63500000D01*
X137725685Y-64014595D02*
X138675172Y-64964082D01*
X137725685Y-63500000D02*
X137725685Y-64014595D01*
%TO.N,Net-(D4-K)*%
X132551108Y-59884082D02*
X138675172Y-59884082D01*
X131087026Y-58420000D02*
X132551108Y-59884082D01*
%TD*%
%TA.AperFunction,Conductor*%
%TO.N,GND*%
G36*
X85059857Y-51320185D02*
G01*
X85105612Y-51372989D01*
X85115556Y-51442147D01*
X85086531Y-51505703D01*
X85080499Y-51512181D01*
X84318269Y-52274410D01*
X84256946Y-52307895D01*
X84194774Y-52304273D01*
X84194584Y-52305025D01*
X84190672Y-52304034D01*
X84190340Y-52304015D01*
X84189619Y-52303767D01*
X83944335Y-52262838D01*
X83695665Y-52262838D01*
X83450383Y-52303767D01*
X83215197Y-52384507D01*
X83215188Y-52384510D01*
X82996493Y-52502862D01*
X82800257Y-52655599D01*
X82631833Y-52838555D01*
X82495826Y-53046731D01*
X82395936Y-53274456D01*
X82334892Y-53515513D01*
X82334890Y-53515525D01*
X82314357Y-53763332D01*
X82314357Y-53763343D01*
X82334890Y-54011150D01*
X82334892Y-54011162D01*
X82395936Y-54252219D01*
X82476044Y-54434845D01*
X82484947Y-54504145D01*
X82454970Y-54567257D01*
X82395631Y-54604144D01*
X82362488Y-54608655D01*
X81897335Y-54608655D01*
X81830296Y-54588970D01*
X81809654Y-54572336D01*
X81495093Y-54257775D01*
X81461608Y-54196452D01*
X81462569Y-54139653D01*
X81495105Y-54011171D01*
X81495107Y-54011162D01*
X81495108Y-54011159D01*
X81503804Y-53906217D01*
X81515643Y-53763343D01*
X81515643Y-53763332D01*
X81495109Y-53515525D01*
X81495107Y-53515516D01*
X81477003Y-53444022D01*
X81434063Y-53274456D01*
X81334173Y-53046731D01*
X81198166Y-52838555D01*
X81104511Y-52736819D01*
X81029744Y-52655600D01*
X80833509Y-52502864D01*
X80833507Y-52502863D01*
X80833506Y-52502862D01*
X80614811Y-52384510D01*
X80614802Y-52384507D01*
X80379616Y-52303767D01*
X80134335Y-52262838D01*
X79885665Y-52262838D01*
X79640383Y-52303767D01*
X79405197Y-52384507D01*
X79405188Y-52384510D01*
X79186493Y-52502862D01*
X78990257Y-52655599D01*
X78821833Y-52838555D01*
X78685826Y-53046731D01*
X78585936Y-53274456D01*
X78524892Y-53515513D01*
X78524890Y-53515525D01*
X78504357Y-53763332D01*
X78504357Y-53763343D01*
X78524890Y-54011150D01*
X78524892Y-54011162D01*
X78585936Y-54252219D01*
X78685826Y-54479944D01*
X78821833Y-54688120D01*
X78821836Y-54688123D01*
X78990256Y-54871076D01*
X79186491Y-55023812D01*
X79186493Y-55023813D01*
X79401575Y-55140210D01*
X79405190Y-55142166D01*
X79640386Y-55222909D01*
X79885665Y-55263838D01*
X80134335Y-55263838D01*
X80379614Y-55222909D01*
X80380319Y-55222666D01*
X80380624Y-55222653D01*
X80384576Y-55221652D01*
X80384781Y-55222465D01*
X80450113Y-55219511D01*
X80508269Y-55252264D01*
X80871333Y-55615327D01*
X81011703Y-55755697D01*
X81082424Y-55826418D01*
X81109276Y-55853270D01*
X81224002Y-55929928D01*
X81224004Y-55929928D01*
X81224006Y-55929930D01*
X81286668Y-55955885D01*
X81286669Y-55955886D01*
X81313518Y-55967007D01*
X81351488Y-55982735D01*
X81351497Y-55982736D01*
X81351498Y-55982737D01*
X81378362Y-55988080D01*
X81378368Y-55988081D01*
X81378408Y-55988089D01*
X81467877Y-56005886D01*
X81486823Y-56009655D01*
X81486824Y-56009655D01*
X88719253Y-56009655D01*
X88827714Y-55988080D01*
X88854585Y-55982735D01*
X88919407Y-55955885D01*
X88982064Y-55929932D01*
X88982065Y-55929931D01*
X88982068Y-55929930D01*
X89096800Y-55853269D01*
X89713250Y-55236819D01*
X89774573Y-55203334D01*
X89800931Y-55200500D01*
X91250952Y-55200500D01*
X91317991Y-55220185D01*
X91363746Y-55272989D01*
X91373690Y-55342147D01*
X91344665Y-55405703D01*
X91338633Y-55412181D01*
X87227633Y-59523181D01*
X87166310Y-59556666D01*
X87139952Y-59559500D01*
X80435494Y-59559500D01*
X80369523Y-59540494D01*
X80359525Y-59534212D01*
X80189254Y-59474631D01*
X80189249Y-59474630D01*
X80010004Y-59454435D01*
X80009996Y-59454435D01*
X79830750Y-59474630D01*
X79830745Y-59474631D01*
X79660476Y-59534211D01*
X79507737Y-59630184D01*
X79380184Y-59757737D01*
X79284211Y-59910476D01*
X79224631Y-60080745D01*
X79224630Y-60080750D01*
X79204435Y-60259996D01*
X79204435Y-60260003D01*
X79224630Y-60439249D01*
X79224631Y-60439254D01*
X79284211Y-60609523D01*
X79375921Y-60755477D01*
X79380184Y-60762262D01*
X79507738Y-60889816D01*
X79559874Y-60922575D01*
X79660474Y-60985787D01*
X79660478Y-60985789D01*
X79734279Y-61011613D01*
X79830745Y-61045368D01*
X79830750Y-61045369D01*
X80009996Y-61065565D01*
X80010000Y-61065565D01*
X80010004Y-61065565D01*
X80189249Y-61045369D01*
X80189252Y-61045368D01*
X80189255Y-61045368D01*
X80359522Y-60985789D01*
X80360488Y-60985181D01*
X80369523Y-60979506D01*
X80435494Y-60960500D01*
X87550467Y-60960500D01*
X87641511Y-60942389D01*
X87685799Y-60933580D01*
X87749540Y-60907177D01*
X87813278Y-60880777D01*
X87813279Y-60880776D01*
X87813282Y-60880775D01*
X87928014Y-60804114D01*
X89033922Y-59698206D01*
X99572091Y-59698206D01*
X99572091Y-59698209D01*
X99592505Y-59983641D01*
X99653329Y-60263245D01*
X99753336Y-60531374D01*
X99890471Y-60782517D01*
X99890476Y-60782525D01*
X100061955Y-61011595D01*
X100061971Y-61011613D01*
X100264295Y-61213937D01*
X100264313Y-61213953D01*
X100493383Y-61385432D01*
X100493391Y-61385437D01*
X100744534Y-61522572D01*
X100744533Y-61522572D01*
X100744537Y-61522573D01*
X100744540Y-61522575D01*
X101012655Y-61622577D01*
X101012661Y-61622578D01*
X101012663Y-61622579D01*
X101292267Y-61683403D01*
X101292269Y-61683403D01*
X101292273Y-61683404D01*
X101545921Y-61701545D01*
X101577700Y-61703818D01*
X101577701Y-61703818D01*
X101577702Y-61703818D01*
X101606296Y-61701772D01*
X101863129Y-61683404D01*
X101871041Y-61681683D01*
X102142738Y-61622579D01*
X102142738Y-61622578D01*
X102142747Y-61622577D01*
X102410862Y-61522575D01*
X102662016Y-61385434D01*
X102891096Y-61213947D01*
X103093440Y-61011603D01*
X103264927Y-60782523D01*
X103402068Y-60531369D01*
X103502070Y-60263254D01*
X103562897Y-59983636D01*
X103583311Y-59698208D01*
X103562897Y-59412780D01*
X103559881Y-59398917D01*
X103502072Y-59133170D01*
X103502071Y-59133168D01*
X103502070Y-59133162D01*
X103402068Y-58865047D01*
X103349679Y-58769105D01*
X103264930Y-58613898D01*
X103264925Y-58613890D01*
X103093446Y-58384820D01*
X103093430Y-58384802D01*
X102891106Y-58182478D01*
X102891088Y-58182462D01*
X102662018Y-58010983D01*
X102662010Y-58010978D01*
X102410867Y-57873843D01*
X102410868Y-57873843D01*
X102239717Y-57810007D01*
X102142747Y-57773839D01*
X102142744Y-57773838D01*
X102142738Y-57773836D01*
X101863134Y-57713012D01*
X101577702Y-57692598D01*
X101577700Y-57692598D01*
X101292267Y-57713012D01*
X101012663Y-57773836D01*
X100744534Y-57873843D01*
X100493391Y-58010978D01*
X100493383Y-58010983D01*
X100264313Y-58182462D01*
X100264295Y-58182478D01*
X100061971Y-58384802D01*
X100061955Y-58384820D01*
X99890476Y-58613890D01*
X99890471Y-58613898D01*
X99753336Y-58865041D01*
X99653329Y-59133170D01*
X99592505Y-59412774D01*
X99572091Y-59698206D01*
X89033922Y-59698206D01*
X92495309Y-56236819D01*
X92556632Y-56203334D01*
X92582990Y-56200500D01*
X103158481Y-56200500D01*
X103225520Y-56220185D01*
X103246162Y-56236819D01*
X103958630Y-56949287D01*
X103987990Y-56996013D01*
X104024209Y-57099519D01*
X104119077Y-57250500D01*
X104120184Y-57252262D01*
X104247738Y-57379816D01*
X104400478Y-57475789D01*
X104468306Y-57499523D01*
X104570745Y-57535368D01*
X104570750Y-57535369D01*
X104749996Y-57555565D01*
X104750000Y-57555565D01*
X104750004Y-57555565D01*
X104929249Y-57535369D01*
X104929252Y-57535368D01*
X104929255Y-57535368D01*
X105099522Y-57475789D01*
X105252262Y-57379816D01*
X105379816Y-57252262D01*
X105475789Y-57099522D01*
X105535368Y-56929255D01*
X105544562Y-56847647D01*
X105571627Y-56783238D01*
X105629222Y-56743682D01*
X105699059Y-56741543D01*
X105755463Y-56773853D01*
X105996172Y-57014562D01*
X105996175Y-57014564D01*
X106076663Y-57068344D01*
X106110907Y-57091225D01*
X106238390Y-57144030D01*
X106240773Y-57144504D01*
X106241904Y-57145096D01*
X106244222Y-57145799D01*
X106244088Y-57146238D01*
X106302685Y-57176887D01*
X106304267Y-57178441D01*
X107795393Y-58669567D01*
X107828878Y-58730890D01*
X107830474Y-58762139D01*
X107831161Y-58762139D01*
X107831161Y-58769105D01*
X107851356Y-58948351D01*
X107851357Y-58948356D01*
X107910937Y-59118625D01*
X107981195Y-59230439D01*
X108006910Y-59271364D01*
X108134464Y-59398918D01*
X108287204Y-59494891D01*
X108399574Y-59534211D01*
X108457471Y-59554470D01*
X108457476Y-59554471D01*
X108636722Y-59574667D01*
X108636726Y-59574667D01*
X108636730Y-59574667D01*
X108815975Y-59554471D01*
X108815978Y-59554470D01*
X108815981Y-59554470D01*
X108986248Y-59494891D01*
X109138988Y-59398918D01*
X109266542Y-59271364D01*
X109362515Y-59118624D01*
X109422094Y-58948357D01*
X109422094Y-58948356D01*
X109423063Y-58945588D01*
X109463785Y-58888811D01*
X109528738Y-58863064D01*
X109597299Y-58876520D01*
X109627786Y-58898861D01*
X109739464Y-59010539D01*
X109892204Y-59106512D01*
X110056201Y-59163897D01*
X110062471Y-59166091D01*
X110062476Y-59166092D01*
X110241722Y-59186288D01*
X110241726Y-59186288D01*
X110241730Y-59186288D01*
X110420975Y-59166092D01*
X110420977Y-59166091D01*
X110420981Y-59166091D01*
X110420984Y-59166089D01*
X110420988Y-59166089D01*
X110571571Y-59113398D01*
X110641350Y-59109836D01*
X110701977Y-59144564D01*
X110734205Y-59206558D01*
X110736526Y-59230439D01*
X110736526Y-62831006D01*
X110736526Y-62968994D01*
X110736526Y-62968996D01*
X110736525Y-62968996D01*
X110763444Y-63104322D01*
X110763447Y-63104332D01*
X110816248Y-63231807D01*
X110892913Y-63346545D01*
X110892914Y-63346546D01*
X111245656Y-63699287D01*
X111275016Y-63746013D01*
X111311235Y-63849519D01*
X111311237Y-63849522D01*
X111407210Y-64002262D01*
X111534764Y-64129816D01*
X111625106Y-64186582D01*
X111687500Y-64225787D01*
X111687504Y-64225789D01*
X111812423Y-64269500D01*
X111857771Y-64285368D01*
X111857776Y-64285369D01*
X112037022Y-64305565D01*
X112037026Y-64305565D01*
X112037030Y-64305565D01*
X112216275Y-64285369D01*
X112216278Y-64285368D01*
X112216281Y-64285368D01*
X112386548Y-64225789D01*
X112539288Y-64129816D01*
X112666842Y-64002262D01*
X112762815Y-63849522D01*
X112822394Y-63679255D01*
X112823402Y-63670308D01*
X112842591Y-63500003D01*
X112842591Y-63499996D01*
X112822395Y-63320750D01*
X112822394Y-63320745D01*
X112809766Y-63284657D01*
X112762815Y-63150478D01*
X112666842Y-62997738D01*
X112539288Y-62870184D01*
X112386548Y-62774211D01*
X112386545Y-62774209D01*
X112283039Y-62737990D01*
X112236313Y-62708630D01*
X112173845Y-62646162D01*
X112140360Y-62584839D01*
X112137526Y-62558481D01*
X112137526Y-57374500D01*
X112157211Y-57307461D01*
X112210015Y-57261706D01*
X112261526Y-57250500D01*
X113499544Y-57250500D01*
X113566583Y-57270185D01*
X113587225Y-57286819D01*
X120384694Y-64084287D01*
X120414054Y-64131013D01*
X120450273Y-64234520D01*
X120450275Y-64234524D01*
X120482779Y-64286253D01*
X120546247Y-64387262D01*
X120673801Y-64514816D01*
X120826541Y-64610789D01*
X120948342Y-64653409D01*
X120996808Y-64670368D01*
X120996813Y-64670369D01*
X121176059Y-64690565D01*
X121176063Y-64690565D01*
X121176067Y-64690565D01*
X121355312Y-64670369D01*
X121355315Y-64670368D01*
X121355318Y-64670368D01*
X121525585Y-64610789D01*
X121678325Y-64514816D01*
X121805879Y-64387262D01*
X121901852Y-64234522D01*
X121961431Y-64064255D01*
X121968416Y-64002262D01*
X121981628Y-63885003D01*
X121981628Y-63884996D01*
X121961432Y-63705750D01*
X121961431Y-63705745D01*
X121933223Y-63625131D01*
X121901852Y-63535478D01*
X121805879Y-63382738D01*
X121678325Y-63255184D01*
X121641121Y-63231807D01*
X121525587Y-63159212D01*
X121525583Y-63159210D01*
X121422076Y-63122991D01*
X121375350Y-63093631D01*
X115431717Y-57149996D01*
X117581461Y-57149996D01*
X117581461Y-57150003D01*
X117601656Y-57329249D01*
X117601657Y-57329254D01*
X117661237Y-57499523D01*
X117756473Y-57651089D01*
X117757210Y-57652262D01*
X117884764Y-57779816D01*
X117927233Y-57806501D01*
X118034403Y-57873841D01*
X118037504Y-57875789D01*
X118207771Y-57935368D01*
X118207776Y-57935369D01*
X118387022Y-57955565D01*
X118387026Y-57955565D01*
X118387030Y-57955565D01*
X118566275Y-57935369D01*
X118566278Y-57935368D01*
X118566281Y-57935368D01*
X118736548Y-57875789D01*
X118889288Y-57779816D01*
X119016842Y-57652262D01*
X119112815Y-57499522D01*
X119149032Y-57396016D01*
X119178394Y-57349288D01*
X119290866Y-57236818D01*
X119352189Y-57203334D01*
X119378546Y-57200500D01*
X129345536Y-57200500D01*
X129412575Y-57220185D01*
X129458330Y-57272989D01*
X129468274Y-57342147D01*
X129460097Y-57371953D01*
X129413358Y-57484790D01*
X129413356Y-57484796D01*
X129386438Y-57620123D01*
X129386438Y-57620126D01*
X129386438Y-58897944D01*
X129386438Y-59035932D01*
X129386438Y-59035934D01*
X129386437Y-59035934D01*
X129413356Y-59171260D01*
X129413359Y-59171270D01*
X129466160Y-59298745D01*
X129542825Y-59413483D01*
X129542826Y-59413484D01*
X131535886Y-61406542D01*
X131587501Y-61458157D01*
X131633459Y-61504115D01*
X131748184Y-61580772D01*
X131748185Y-61580772D01*
X131748189Y-61580775D01*
X131838332Y-61618113D01*
X131872718Y-61632357D01*
X131875671Y-61633580D01*
X131902591Y-61638934D01*
X131992937Y-61656905D01*
X132011006Y-61660500D01*
X132011007Y-61660500D01*
X136869571Y-61660500D01*
X136936610Y-61680185D01*
X136957252Y-61696819D01*
X137312520Y-62052087D01*
X137346005Y-62113410D01*
X137344614Y-62171860D01*
X137340111Y-62188666D01*
X137340108Y-62188679D01*
X137319513Y-62424081D01*
X137319513Y-62424082D01*
X137340564Y-62664692D01*
X137326797Y-62733192D01*
X137278182Y-62783376D01*
X137217036Y-62799500D01*
X131512520Y-62799500D01*
X131446549Y-62780494D01*
X131436551Y-62774212D01*
X131266280Y-62714631D01*
X131266275Y-62714630D01*
X131087030Y-62694435D01*
X131087022Y-62694435D01*
X130907776Y-62714630D01*
X130907771Y-62714631D01*
X130737502Y-62774211D01*
X130584763Y-62870184D01*
X130457210Y-62997737D01*
X130361237Y-63150476D01*
X130301657Y-63320745D01*
X130301656Y-63320750D01*
X130281461Y-63499996D01*
X130281461Y-63500003D01*
X130301656Y-63679249D01*
X130301657Y-63679254D01*
X130361237Y-63849523D01*
X130409029Y-63925583D01*
X130457210Y-64002262D01*
X130584764Y-64129816D01*
X130675106Y-64186582D01*
X130737500Y-64225787D01*
X130737504Y-64225789D01*
X130862423Y-64269500D01*
X130907771Y-64285368D01*
X130907776Y-64285369D01*
X131087022Y-64305565D01*
X131087026Y-64305565D01*
X131087030Y-64305565D01*
X131266275Y-64285369D01*
X131266278Y-64285368D01*
X131266281Y-64285368D01*
X131436548Y-64225789D01*
X131437514Y-64225181D01*
X131446549Y-64219506D01*
X131512520Y-64200500D01*
X136961620Y-64200500D01*
X137028659Y-64220185D01*
X137074414Y-64272989D01*
X137076181Y-64277048D01*
X137087182Y-64303608D01*
X137104910Y-64346406D01*
X137181571Y-64461138D01*
X137312521Y-64592088D01*
X137346005Y-64653409D01*
X137344614Y-64711860D01*
X137340111Y-64728666D01*
X137340108Y-64728679D01*
X137319513Y-64964081D01*
X137319513Y-64964082D01*
X137340108Y-65199485D01*
X137340110Y-65199495D01*
X137401266Y-65427737D01*
X137401268Y-65427741D01*
X137401269Y-65427745D01*
X137500011Y-65639498D01*
X137501137Y-65641912D01*
X137501139Y-65641916D01*
X137581886Y-65757234D01*
X137636677Y-65835483D01*
X137803771Y-66002577D01*
X137900556Y-66070347D01*
X137997337Y-66138114D01*
X137997339Y-66138115D01*
X137997342Y-66138117D01*
X138211509Y-66237985D01*
X138439764Y-66299145D01*
X138628090Y-66315621D01*
X138675171Y-66319741D01*
X138675172Y-66319741D01*
X138675173Y-66319741D01*
X138714406Y-66316308D01*
X138910580Y-66299145D01*
X139138835Y-66237985D01*
X139353002Y-66138117D01*
X139546573Y-66002577D01*
X139713667Y-65835483D01*
X139849207Y-65641912D01*
X139949075Y-65427745D01*
X140010235Y-65199490D01*
X140030831Y-64964082D01*
X140010235Y-64728674D01*
X139949075Y-64500419D01*
X139849207Y-64286253D01*
X139848588Y-64285368D01*
X139713666Y-64092679D01*
X139546574Y-63925588D01*
X139546568Y-63925583D01*
X139361014Y-63795657D01*
X139317389Y-63741080D01*
X139310195Y-63671582D01*
X139341718Y-63609227D01*
X139361014Y-63592507D01*
X139427517Y-63545941D01*
X139546573Y-63462577D01*
X139713667Y-63295483D01*
X139849207Y-63101912D01*
X139949075Y-62887745D01*
X140010235Y-62659490D01*
X140030831Y-62424082D01*
X140010235Y-62188674D01*
X139949075Y-61960419D01*
X139849207Y-61746253D01*
X139805659Y-61684059D01*
X139713666Y-61552679D01*
X139546574Y-61385588D01*
X139546568Y-61385583D01*
X139361014Y-61255657D01*
X139317389Y-61201080D01*
X139310195Y-61131582D01*
X139341718Y-61069227D01*
X139361014Y-61052507D01*
X139383198Y-61036973D01*
X139546573Y-60922577D01*
X139713667Y-60755483D01*
X139849207Y-60561912D01*
X139949075Y-60347745D01*
X140010235Y-60119490D01*
X140030831Y-59884082D01*
X140010235Y-59648674D01*
X139949075Y-59420419D01*
X139849207Y-59206253D01*
X139835228Y-59186288D01*
X139713666Y-59012679D01*
X139546574Y-58845588D01*
X139546573Y-58845587D01*
X139360577Y-58715351D01*
X139316953Y-58660774D01*
X139309760Y-58591275D01*
X139341282Y-58528921D01*
X139360577Y-58512201D01*
X139546254Y-58382187D01*
X139713277Y-58215164D01*
X139848772Y-58021660D01*
X139948601Y-57807574D01*
X139948604Y-57807568D01*
X140005808Y-57594082D01*
X139108184Y-57594082D01*
X139141097Y-57537075D01*
X139175172Y-57409908D01*
X139175172Y-57278256D01*
X139141097Y-57151089D01*
X139108184Y-57094082D01*
X140005808Y-57094082D01*
X140005807Y-57094081D01*
X139948604Y-56880595D01*
X139948601Y-56880589D01*
X139848772Y-56666504D01*
X139848771Y-56666502D01*
X139713285Y-56473008D01*
X139713280Y-56473002D01*
X139591225Y-56350947D01*
X139557740Y-56289624D01*
X139562724Y-56219932D01*
X139604596Y-56163999D01*
X139635572Y-56147084D01*
X139767503Y-56097878D01*
X139882718Y-56011628D01*
X139968968Y-55896413D01*
X140019263Y-55761565D01*
X140025672Y-55701955D01*
X140025671Y-53906210D01*
X140019263Y-53846599D01*
X140016988Y-53840500D01*
X139968969Y-53711753D01*
X139968965Y-53711746D01*
X139882719Y-53596537D01*
X139882716Y-53596534D01*
X139767507Y-53510288D01*
X139767500Y-53510284D01*
X139632654Y-53459990D01*
X139632655Y-53459990D01*
X139573055Y-53453583D01*
X139573053Y-53453582D01*
X139573045Y-53453582D01*
X139573036Y-53453582D01*
X137777301Y-53453582D01*
X137777295Y-53453583D01*
X137717688Y-53459990D01*
X137582843Y-53510284D01*
X137582836Y-53510288D01*
X137467627Y-53596534D01*
X137467624Y-53596537D01*
X137381378Y-53711746D01*
X137381374Y-53711753D01*
X137331080Y-53846599D01*
X137327573Y-53879225D01*
X137324673Y-53906205D01*
X137324672Y-53906217D01*
X137324672Y-55701952D01*
X137324673Y-55701958D01*
X137331080Y-55761565D01*
X137381374Y-55896410D01*
X137381378Y-55896417D01*
X137467624Y-56011626D01*
X137467627Y-56011629D01*
X137582836Y-56097875D01*
X137582843Y-56097879D01*
X137645074Y-56121089D01*
X137714770Y-56147084D01*
X137770703Y-56188955D01*
X137795121Y-56254419D01*
X137780270Y-56322692D01*
X137759119Y-56350947D01*
X137637058Y-56473008D01*
X137501572Y-56666502D01*
X137501571Y-56666504D01*
X137401742Y-56880589D01*
X137401739Y-56880595D01*
X137344536Y-57094081D01*
X137344536Y-57094082D01*
X138242160Y-57094082D01*
X138209247Y-57151089D01*
X138175172Y-57278256D01*
X138175172Y-57409908D01*
X138209247Y-57537075D01*
X138242160Y-57594082D01*
X137344536Y-57594082D01*
X137401739Y-57807568D01*
X137401742Y-57807574D01*
X137501571Y-58021660D01*
X137637066Y-58215164D01*
X137804089Y-58382187D01*
X137989767Y-58512201D01*
X138033391Y-58566778D01*
X138040584Y-58636277D01*
X138009062Y-58698631D01*
X137989767Y-58715351D01*
X137803766Y-58845590D01*
X137636678Y-59012678D01*
X137554036Y-59130705D01*
X137499459Y-59174330D01*
X137452461Y-59183582D01*
X133667639Y-59183582D01*
X133600600Y-59163897D01*
X133554845Y-59111093D01*
X133544901Y-59041935D01*
X133550597Y-59018628D01*
X133586178Y-58916941D01*
X133586179Y-58916939D01*
X133588216Y-58898861D01*
X133606376Y-58737687D01*
X133606376Y-58737680D01*
X133586180Y-58558434D01*
X133586179Y-58558429D01*
X133570003Y-58512201D01*
X133526600Y-58388162D01*
X133430627Y-58235422D01*
X133303073Y-58107868D01*
X133165874Y-58021660D01*
X133150330Y-58011893D01*
X133046824Y-57975674D01*
X133000098Y-57946314D01*
X132465965Y-57412181D01*
X132432480Y-57350858D01*
X132437464Y-57281166D01*
X132479336Y-57225233D01*
X132544800Y-57200816D01*
X132553646Y-57200500D01*
X132766446Y-57200500D01*
X132833485Y-57220185D01*
X132854127Y-57236819D01*
X132897307Y-57279999D01*
X132926667Y-57326725D01*
X132962886Y-57430231D01*
X132991512Y-57475789D01*
X133058861Y-57582974D01*
X133186415Y-57710528D01*
X133276757Y-57767294D01*
X133296684Y-57779815D01*
X133339155Y-57806501D01*
X133509422Y-57866080D01*
X133509427Y-57866081D01*
X133688673Y-57886277D01*
X133688677Y-57886277D01*
X133688681Y-57886277D01*
X133867926Y-57866081D01*
X133867929Y-57866080D01*
X133867932Y-57866080D01*
X134038199Y-57806501D01*
X134190939Y-57710528D01*
X134318493Y-57582974D01*
X134414466Y-57430234D01*
X134474045Y-57259967D01*
X134475112Y-57250500D01*
X134494242Y-57080715D01*
X134494242Y-57080708D01*
X134474046Y-56901462D01*
X134474045Y-56901457D01*
X134462516Y-56868509D01*
X134414466Y-56731190D01*
X134318493Y-56578450D01*
X134190939Y-56450896D01*
X134141721Y-56419970D01*
X134038197Y-56354921D01*
X133934690Y-56318702D01*
X133887965Y-56289342D01*
X133554511Y-55955888D01*
X133554508Y-55955886D01*
X133439772Y-55879222D01*
X133312297Y-55826421D01*
X133312287Y-55826418D01*
X133176961Y-55799500D01*
X133176959Y-55799500D01*
X133176958Y-55799500D01*
X119106020Y-55799500D01*
X118968032Y-55799500D01*
X118968030Y-55799500D01*
X118832703Y-55826418D01*
X118832693Y-55826421D01*
X118705218Y-55879222D01*
X118590483Y-55955886D01*
X118590479Y-55955888D01*
X118187735Y-56358632D01*
X118141010Y-56387992D01*
X118037502Y-56424211D01*
X118037501Y-56424212D01*
X117884763Y-56520184D01*
X117757210Y-56647737D01*
X117661237Y-56800476D01*
X117601657Y-56970745D01*
X117601656Y-56970750D01*
X117581461Y-57149996D01*
X115431717Y-57149996D01*
X114287609Y-56005888D01*
X114287608Y-56005887D01*
X114172870Y-55929222D01*
X114045395Y-55876421D01*
X114045385Y-55876418D01*
X113910059Y-55849500D01*
X113910057Y-55849500D01*
X113910056Y-55849500D01*
X111857491Y-55849500D01*
X111719503Y-55849500D01*
X111719501Y-55849500D01*
X111584174Y-55876418D01*
X111584164Y-55876421D01*
X111456689Y-55929222D01*
X111341951Y-56005887D01*
X111341950Y-56005888D01*
X111153907Y-56193932D01*
X111092584Y-56227417D01*
X111022892Y-56222433D01*
X110966959Y-56180561D01*
X110942542Y-56115097D01*
X110942226Y-56106251D01*
X110942226Y-55615327D01*
X110915307Y-55480000D01*
X110915306Y-55479999D01*
X110915306Y-55479995D01*
X110887217Y-55412181D01*
X110862504Y-55352518D01*
X110862497Y-55352505D01*
X110785841Y-55237782D01*
X110745590Y-55197531D01*
X110688268Y-55140209D01*
X108902874Y-53354815D01*
X107060241Y-51512181D01*
X107026756Y-51450858D01*
X107031740Y-51381166D01*
X107073612Y-51325233D01*
X107139076Y-51300816D01*
X107147922Y-51300500D01*
X107802576Y-51300500D01*
X107858030Y-51313591D01*
X110249414Y-52509282D01*
X110255935Y-52512790D01*
X110296814Y-52536392D01*
X110299368Y-52537076D01*
X110322747Y-52545949D01*
X110325102Y-52547127D01*
X110325109Y-52547129D01*
X110371311Y-52556584D01*
X110378543Y-52558290D01*
X110424108Y-52570500D01*
X110426757Y-52570500D01*
X110451619Y-52573018D01*
X110454214Y-52573549D01*
X110501295Y-52570723D01*
X110508725Y-52570500D01*
X140345500Y-52570500D01*
X140412539Y-52590185D01*
X140458294Y-52642989D01*
X140469500Y-52694500D01*
X140469500Y-66619077D01*
X140449815Y-66686116D01*
X140397011Y-66731871D01*
X140345558Y-66743077D01*
X88970117Y-66767151D01*
X88967935Y-66769521D01*
X88908033Y-66805486D01*
X88876740Y-66809500D01*
X88834107Y-66809500D01*
X88706812Y-66843608D01*
X88592686Y-66909500D01*
X88592683Y-66909502D01*
X87459005Y-68043181D01*
X87397682Y-68076666D01*
X87371324Y-68079500D01*
X81665962Y-68079500D01*
X81598923Y-68059815D01*
X81555053Y-68010954D01*
X80933152Y-66767151D01*
X80921115Y-66743077D01*
X80915512Y-66731871D01*
X80859115Y-66619077D01*
X80840384Y-66581615D01*
X80709447Y-66319741D01*
X80699148Y-66299143D01*
X80668569Y-66237985D01*
X80668568Y-66237983D01*
X80618635Y-66138117D01*
X80550864Y-66002575D01*
X80485944Y-65872736D01*
X80477077Y-65849374D01*
X80476392Y-65846814D01*
X80452790Y-65805934D01*
X80449296Y-65799440D01*
X80428193Y-65757234D01*
X80426433Y-65755249D01*
X80411825Y-65734980D01*
X80410502Y-65732689D01*
X80410499Y-65732685D01*
X80377157Y-65699343D01*
X80372061Y-65693933D01*
X80370053Y-65691669D01*
X80340758Y-65658632D01*
X80338535Y-65657164D01*
X80319186Y-65641372D01*
X80317316Y-65639502D01*
X80317314Y-65639500D01*
X80301154Y-65630169D01*
X80276458Y-65615911D01*
X80270148Y-65612011D01*
X80230783Y-65586021D01*
X80230779Y-65586019D01*
X80230771Y-65586016D01*
X80228257Y-65585178D01*
X80205489Y-65574937D01*
X80203193Y-65573611D01*
X80203187Y-65573608D01*
X80203186Y-65573608D01*
X80203183Y-65573607D01*
X80203180Y-65573606D01*
X80157618Y-65561397D01*
X80150505Y-65559261D01*
X80131860Y-65553046D01*
X80112175Y-65546485D01*
X80054801Y-65506613D01*
X80038802Y-65480817D01*
X80019224Y-65438403D01*
X75087578Y-65438403D01*
X75020539Y-65418718D01*
X74999897Y-65402084D01*
X74800595Y-65202782D01*
X81768545Y-65202782D01*
X81768545Y-65202793D01*
X81789078Y-65450600D01*
X81789080Y-65450612D01*
X81850124Y-65691669D01*
X81950014Y-65919394D01*
X82086021Y-66127570D01*
X82095730Y-66138117D01*
X82254444Y-66310526D01*
X82450679Y-66463262D01*
X82669378Y-66581616D01*
X82904574Y-66662359D01*
X83149853Y-66703288D01*
X83398523Y-66703288D01*
X83643802Y-66662359D01*
X83878998Y-66581616D01*
X84097697Y-66463262D01*
X84293932Y-66310526D01*
X84462352Y-66127573D01*
X84598361Y-65919395D01*
X84698251Y-65691669D01*
X84759296Y-65450609D01*
X84759297Y-65450600D01*
X84779831Y-65202793D01*
X84779831Y-65202782D01*
X85818545Y-65202782D01*
X85818545Y-65202793D01*
X85839078Y-65450600D01*
X85839080Y-65450612D01*
X85900124Y-65691669D01*
X86000014Y-65919394D01*
X86136021Y-66127570D01*
X86145730Y-66138117D01*
X86304444Y-66310526D01*
X86500679Y-66463262D01*
X86719378Y-66581616D01*
X86954574Y-66662359D01*
X87199853Y-66703288D01*
X87448523Y-66703288D01*
X87693802Y-66662359D01*
X87928998Y-66581616D01*
X88147697Y-66463262D01*
X88343932Y-66310526D01*
X88512352Y-66127573D01*
X88648361Y-65919395D01*
X88748251Y-65691669D01*
X88809296Y-65450609D01*
X88809297Y-65450600D01*
X88829831Y-65202793D01*
X88829831Y-65202782D01*
X88809297Y-64954975D01*
X88809295Y-64954963D01*
X88748251Y-64713906D01*
X88648361Y-64486181D01*
X88512354Y-64278005D01*
X88472323Y-64234520D01*
X88343932Y-64095050D01*
X88147697Y-63942314D01*
X88147695Y-63942313D01*
X88147694Y-63942312D01*
X87928999Y-63823960D01*
X87928990Y-63823957D01*
X87693804Y-63743217D01*
X87448523Y-63702288D01*
X87199853Y-63702288D01*
X86954571Y-63743217D01*
X86719385Y-63823957D01*
X86719376Y-63823960D01*
X86500681Y-63942312D01*
X86304445Y-64095049D01*
X86136021Y-64278005D01*
X86000014Y-64486181D01*
X85900124Y-64713906D01*
X85839080Y-64954963D01*
X85839078Y-64954975D01*
X85818545Y-65202782D01*
X84779831Y-65202782D01*
X84759297Y-64954975D01*
X84759295Y-64954963D01*
X84729142Y-64835892D01*
X84698251Y-64713907D01*
X84696782Y-64710558D01*
X84696590Y-64709069D01*
X84696587Y-64709059D01*
X84696589Y-64709058D01*
X84687875Y-64641259D01*
X84717849Y-64578145D01*
X84777186Y-64541255D01*
X84796450Y-64537522D01*
X84816497Y-64535263D01*
X84917738Y-64523857D01*
X84917741Y-64523856D01*
X84917743Y-64523856D01*
X85088010Y-64464277D01*
X85240750Y-64368304D01*
X85368304Y-64240750D01*
X85464277Y-64088010D01*
X85523856Y-63917743D01*
X85523857Y-63917736D01*
X85529760Y-63865344D01*
X85538421Y-63831768D01*
X85549245Y-63805639D01*
X85576165Y-63670304D01*
X85576165Y-62609439D01*
X85595173Y-62543465D01*
X85601452Y-62533471D01*
X85601451Y-62533471D01*
X85601454Y-62533468D01*
X85661033Y-62363201D01*
X85661034Y-62363195D01*
X85681230Y-62183949D01*
X85681230Y-62183942D01*
X85661034Y-62004696D01*
X85661033Y-62004691D01*
X85645544Y-61960426D01*
X85601454Y-61834424D01*
X85505481Y-61681684D01*
X85377927Y-61554130D01*
X85375618Y-61552679D01*
X85225188Y-61458157D01*
X85054919Y-61398577D01*
X85054914Y-61398576D01*
X84875669Y-61378381D01*
X84875661Y-61378381D01*
X84696415Y-61398576D01*
X84696410Y-61398577D01*
X84526141Y-61458157D01*
X84373402Y-61554130D01*
X84245849Y-61681683D01*
X84149876Y-61834422D01*
X84090296Y-62004691D01*
X84090295Y-62004696D01*
X84070100Y-62183942D01*
X84070100Y-62183949D01*
X84090295Y-62363195D01*
X84090296Y-62363200D01*
X84149877Y-62533471D01*
X84156157Y-62543465D01*
X84175165Y-62609439D01*
X84175165Y-63118371D01*
X84155480Y-63185410D01*
X84138846Y-63206052D01*
X84108672Y-63236225D01*
X84012699Y-63388964D01*
X83953119Y-63559233D01*
X83953118Y-63559238D01*
X83938947Y-63685018D01*
X83911881Y-63749432D01*
X83854286Y-63788988D01*
X83784449Y-63791125D01*
X83775464Y-63788416D01*
X83643804Y-63743217D01*
X83398523Y-63702288D01*
X83149853Y-63702288D01*
X82904571Y-63743217D01*
X82669385Y-63823957D01*
X82669376Y-63823960D01*
X82450681Y-63942312D01*
X82254445Y-64095049D01*
X82086021Y-64278005D01*
X81950014Y-64486181D01*
X81850124Y-64713906D01*
X81789080Y-64954963D01*
X81789078Y-64954975D01*
X81768545Y-65202782D01*
X74800595Y-65202782D01*
X73967316Y-64369502D01*
X73967315Y-64369501D01*
X73967314Y-64369500D01*
X73910250Y-64336554D01*
X73853187Y-64303608D01*
X73757633Y-64278005D01*
X73725892Y-64269500D01*
X73725891Y-64269500D01*
X73210660Y-64269500D01*
X73143621Y-64249815D01*
X73142217Y-64248900D01*
X73120499Y-64234524D01*
X73088954Y-64213643D01*
X73088953Y-64213643D01*
X62082419Y-64213643D01*
X62015380Y-64193958D01*
X61969625Y-64141154D01*
X61958419Y-64089643D01*
X61958419Y-62986037D01*
X61978104Y-62918998D01*
X62030908Y-62873243D01*
X62100066Y-62863299D01*
X62163622Y-62892324D01*
X62196979Y-62938582D01*
X62221482Y-62997737D01*
X62261202Y-63093631D01*
X62269059Y-63112598D01*
X62300204Y-63159210D01*
X62384024Y-63284657D01*
X62530342Y-63430975D01*
X62530345Y-63430977D01*
X62702402Y-63545941D01*
X62893580Y-63625130D01*
X63096530Y-63665499D01*
X63096534Y-63665500D01*
X63096535Y-63665500D01*
X63903466Y-63665500D01*
X63903467Y-63665499D01*
X64106420Y-63625130D01*
X64297598Y-63545941D01*
X64469655Y-63430977D01*
X64615977Y-63284655D01*
X64616018Y-63284592D01*
X64625364Y-63270608D01*
X64678977Y-63225803D01*
X64728465Y-63215500D01*
X66071535Y-63215500D01*
X66138574Y-63235185D01*
X66174636Y-63270608D01*
X66184020Y-63284652D01*
X66184025Y-63284658D01*
X66330342Y-63430975D01*
X66330345Y-63430977D01*
X66502402Y-63545941D01*
X66693580Y-63625130D01*
X66896530Y-63665499D01*
X66896534Y-63665500D01*
X66896535Y-63665500D01*
X67703466Y-63665500D01*
X67703467Y-63665499D01*
X67906420Y-63625130D01*
X68097598Y-63545941D01*
X68269655Y-63430977D01*
X68415977Y-63284655D01*
X68530941Y-63112598D01*
X68610130Y-62921420D01*
X68650500Y-62718465D01*
X68650500Y-62511535D01*
X68610130Y-62308580D01*
X68530941Y-62117402D01*
X68415977Y-61945345D01*
X68415975Y-61945342D01*
X68269657Y-61799024D01*
X68183626Y-61741541D01*
X68097598Y-61684059D01*
X68097593Y-61684057D01*
X67906420Y-61604870D01*
X67906412Y-61604868D01*
X67703469Y-61564500D01*
X67703465Y-61564500D01*
X66896535Y-61564500D01*
X66896530Y-61564500D01*
X66693587Y-61604868D01*
X66693579Y-61604870D01*
X66502403Y-61684058D01*
X66330342Y-61799024D01*
X66184025Y-61945341D01*
X66184020Y-61945347D01*
X66174636Y-61959392D01*
X66121023Y-62004197D01*
X66071535Y-62014500D01*
X64728465Y-62014500D01*
X64661426Y-61994815D01*
X64625364Y-61959392D01*
X64615979Y-61945347D01*
X64615974Y-61945341D01*
X64469657Y-61799024D01*
X64297595Y-61684057D01*
X64177047Y-61634124D01*
X64122643Y-61590282D01*
X64100579Y-61523988D01*
X64100500Y-61519563D01*
X64100500Y-55070435D01*
X64120185Y-55003396D01*
X64172989Y-54957641D01*
X64177012Y-54955889D01*
X64297598Y-54905941D01*
X64469655Y-54790977D01*
X64615977Y-54644655D01*
X64616018Y-54644592D01*
X64625364Y-54630608D01*
X64678977Y-54585803D01*
X64728465Y-54575500D01*
X66071535Y-54575500D01*
X66138574Y-54595185D01*
X66174636Y-54630608D01*
X66184020Y-54644652D01*
X66184025Y-54644658D01*
X66330342Y-54790975D01*
X66330345Y-54790977D01*
X66502402Y-54905941D01*
X66693580Y-54985130D01*
X66888049Y-55023812D01*
X66896530Y-55025499D01*
X66896534Y-55025500D01*
X66896535Y-55025500D01*
X67703466Y-55025500D01*
X67703467Y-55025499D01*
X67906420Y-54985130D01*
X68097598Y-54905941D01*
X68269655Y-54790977D01*
X68415977Y-54644655D01*
X68530941Y-54472598D01*
X68610130Y-54281420D01*
X68650500Y-54078465D01*
X68650500Y-53871535D01*
X68610130Y-53668580D01*
X68530941Y-53477402D01*
X68415977Y-53305345D01*
X68415975Y-53305342D01*
X68269657Y-53159024D01*
X68183626Y-53101541D01*
X68097598Y-53044059D01*
X67906420Y-52964870D01*
X67906412Y-52964868D01*
X67703469Y-52924500D01*
X67703465Y-52924500D01*
X66896535Y-52924500D01*
X66896530Y-52924500D01*
X66693587Y-52964868D01*
X66693579Y-52964870D01*
X66502403Y-53044058D01*
X66330342Y-53159024D01*
X66184025Y-53305341D01*
X66184020Y-53305347D01*
X66174636Y-53319392D01*
X66121023Y-53364197D01*
X66071535Y-53374500D01*
X64728465Y-53374500D01*
X64661426Y-53354815D01*
X64625364Y-53319392D01*
X64615979Y-53305347D01*
X64615974Y-53305341D01*
X64469657Y-53159024D01*
X64383626Y-53101541D01*
X64297598Y-53044059D01*
X64106420Y-52964870D01*
X64106412Y-52964868D01*
X63903469Y-52924500D01*
X63903465Y-52924500D01*
X63096535Y-52924500D01*
X63096530Y-52924500D01*
X62893587Y-52964868D01*
X62893579Y-52964870D01*
X62702403Y-53044058D01*
X62530342Y-53159024D01*
X62384024Y-53305342D01*
X62269057Y-53477403D01*
X62196980Y-53651415D01*
X62153139Y-53705818D01*
X62086845Y-53727883D01*
X62019145Y-53710604D01*
X61971535Y-53659466D01*
X61958419Y-53603962D01*
X61958419Y-52798868D01*
X61978104Y-52731829D01*
X62030908Y-52686074D01*
X62080930Y-52674877D01*
X68098556Y-52602810D01*
X68164045Y-52620596D01*
X68735290Y-52964868D01*
X68802266Y-53005232D01*
X68825941Y-53023755D01*
X69445159Y-53642972D01*
X69445169Y-53642983D01*
X69449499Y-53647313D01*
X69449500Y-53647314D01*
X69542686Y-53740500D01*
X69644877Y-53799500D01*
X69656814Y-53806392D01*
X69784107Y-53840500D01*
X69784108Y-53840500D01*
X69784109Y-53840500D01*
X74995890Y-53840500D01*
X74995892Y-53840500D01*
X75123186Y-53806392D01*
X75237314Y-53740500D01*
X75401170Y-53576643D01*
X75433567Y-53553333D01*
X75454459Y-53542927D01*
X75454462Y-53542927D01*
X75524249Y-53454738D01*
X75533773Y-53444040D01*
X77640995Y-51336819D01*
X77702318Y-51303334D01*
X77728676Y-51300500D01*
X84992818Y-51300500D01*
X85059857Y-51320185D01*
G37*
%TD.AperFunction*%
%TD*%
M02*
