M48
; DRILL file {KiCad 8.0.6} date 2024-10-22T16:45:16+0200
; FORMAT={-:-/ absolute / inch / decimal}
; #@! TF.CreationDate,2024-10-22T16:45:16+02:00
; #@! TF.GenerationSoftware,Kicad,Pcbnew,8.0.6
; #@! TF.FileFunction,Plated,1,2,PTH
FMAT,2
INCH
; #@! TA.AperFunction,Plated,PTH,ViaDrill
T1C0.0118
; #@! TA.AperFunction,Plated,PTH,ComponentDrill
T2C0.0236
; #@! TA.AperFunction,Plated,PTH,ComponentDrill
T3C0.0394
; #@! TA.AperFunction,Plated,PTH,ComponentDrill
T4C0.0787
%
G90
G05
T1
X2.9Y-2.5152
X3.15Y-2.3724
X3.3362Y-2.5094
X3.3416Y-2.4482
X4.124Y-2.2343
X4.277Y-2.3137
X4.3046Y-2.2075
X4.3402Y-2.2985
X4.4109Y-2.5
X4.6609Y-2.25
X4.7707Y-2.5152
X5.1609Y-2.3
X5.1609Y-2.5
X5.2284Y-2.3125
X5.2633Y-2.2473
X5.3937Y-2.2835
T3
X3.15Y-2.1167
X3.2785Y-2.567
X3.3Y-2.1167
X3.438Y-2.567
X3.45Y-2.1208
X5.4597Y-2.1576
X5.4597Y-2.2576
X5.4597Y-2.3576
X5.4597Y-2.4576
X5.4597Y-2.5576
T4
X3.9991Y-2.3503
T2
G00X2.5118Y-2.125
M15
G01X2.4882Y-2.125
M16
G05
G00X2.5118Y-2.4652
M15
G01X2.4882Y-2.4652
M16
G05
G00X2.6614Y-2.125
M15
G01X2.6378Y-2.125
M16
G05
G00X2.6614Y-2.4652
M15
G01X2.6378Y-2.4652
M16
G05
M30
